<?xml version="1.0" encoding="UTF-8"?>
<svg id="Object" xmlns="http://www.w3.org/2000/svg" viewBox="0 0 117.65 136.68">
  <defs>
    <style>
      .cls-1 {
        fill: #fae1c3;
      }

      .cls-2 {
        fill: #aee8d9;
      }

      .cls-3 {
        fill: #333;
      }

      .cls-4 {
        fill: #75c9b3;
      }

      .cls-5 {
        fill: #ccf0df;
      }

      .cls-6 {
        fill: #f2f2f2;
      }
    </style>
  </defs>
  <g>
    <g>
      <path class="cls-1" d="m16.63,80.22c-3.35,1.01-5.26,4.54-4.25,7.9l6.77,22.56c1.01,3.35,4.54,5.26,7.9,4.25h0c3.35-1.01,5.26-4.54,4.25-7.9l-6.77-22.56c-1.01-3.35-4.54-5.26-7.9-4.25h0Z"/>
      <path class="cls-3" d="m25.21,116.7h0c-3.43,0-6.52-2.3-7.51-5.59l-6.77-22.56c-.6-2.01-.39-4.13.61-5.97.99-1.84,2.64-3.19,4.65-3.79.73-.22,1.49-.33,2.26-.33,3.43,0,6.52,2.3,7.51,5.59l6.77,22.56c1.24,4.14-1.12,8.52-5.26,9.76-.74.22-1.49.33-2.26.33Zm-6.76-35.24c-.47,0-.94.07-1.39.21-1.24.37-2.26,1.2-2.87,2.34-.61,1.14-.75,2.45-.38,3.69l6.77,22.56c.61,2.03,2.52,3.45,4.63,3.45h0c.47,0,.94-.07,1.39-.21,2.56-.77,4.01-3.47,3.25-6.03l-6.77-22.56c-.61-2.03-2.52-3.45-4.63-3.45Z"/>
    </g>
    <g>
      <path class="cls-1" d="m111.45,97.91c-.41.09-1.01.25-1.76.45-4.22,1.13-12.08,3.24-26.34,1.66-.23-.03-.45-.1-.65-.23-.24-.15-.48-.3-.74-.45-6.43-3.72-14.49-3.46-21.02.69l-3.71,2.35c-.22.14-.48.22-.75.23l-15.89.57c-1.66-.03-2.96.44-3.85,1.35-.71.72-1.14,1.71-1.15,2.65,0,.52.04,1,.15,1.44.04.11.07.22.09.33.56,1.77,2.08,2.8,4.3,2.84l14.34.2h15.77c.83,0,1.5.67,1.5,1.5s-.67,1.5-1.5,1.5h-15.79l-14.37-.2c-3.39-.05-5.93-1.77-6.97-4.52l-9.28-4.29c-.31-.15-.57-.4-.72-.71l-11.39-23.48c-.43-.94-1.26-1.68-2.29-2.05-.83-.3-2.17-.49-3.81.26-2.68,1.23-3.04,3.64-2.21,5.48l12.36,27.01,26.16,14.98c3.16,1.81,6.27,3.52,9.62,4.67,2.37.81,4.91,1.13,7.99,1.37,7.25.55,14.21-.4,21.59-1.41,2.53-.34,5.14-.7,7.73-.99,6.06-.66,15.33-.39,19.56.3,2.9.47,4.43-3.92,5.08-6.59,2.65-10.79.15-26.2-2.05-26.93Z"/>
      <path class="cls-3" d="m114.44,96.76c-1.3-1.9-2.76-1.94-3.52-1.79-.56.11-1.2.28-2.01.5-4,1.07-11.41,3.06-24.88,1.61-.18-.11-.37-.23-.56-.34-7.4-4.28-16.65-3.99-24.13.75l-3.37,2.13-15.41.55c-3.04-.03-4.92,1.2-5.95,2.24-1.16,1.17-1.87,2.72-1.99,4.31l-7.04-3.25-11.14-22.96c-.75-1.65-2.21-2.96-4-3.6-1.91-.68-4.07-.56-6.07.36-3.82,1.75-5.38,5.72-3.7,9.45l12.57,27.46c.13.28.35.52.62.68l26.57,15.22c3.16,1.81,6.54,3.67,10.14,4.91,2.97,1.02,6.06,1.32,8.74,1.52,1.52.12,3.04.17,4.56.17,6,0,11.91-.81,17.67-1.59,2.51-.34,5.1-.7,7.65-.98,5.74-.63,14.79-.37,18.74.28,1.74.28,4.23-.05,6.27-3.26,5.15-8.08,3.94-28.95.23-34.38Zm-6.02,34.67c-4.23-.69-13.49-.97-19.56-.3-2.6.29-5.21.64-7.73.99-7.37,1.01-14.34,1.96-21.59,1.41-3.08-.23-5.62-.56-7.99-1.37-3.36-1.15-6.47-2.87-9.62-4.67l-26.16-14.98-12.36-27.01c-.83-1.84-.47-4.25,2.21-5.48,1.65-.75,2.98-.56,3.81-.26,1.03.37,1.86,1.1,2.29,2.05l11.39,23.48c.15.31.41.56.72.71l9.28,4.29c1.04,2.75,3.58,4.48,6.97,4.52l14.37.2h15.79c.83,0,1.5-.67,1.5-1.5s-.67-1.5-1.5-1.5h-15.77l-14.34-.2c-2.22-.03-3.73-1.06-4.3-2.84-.02-.11-.05-.22-.09-.33-.11-.44-.16-.92-.15-1.44.01-.94.44-1.93,1.15-2.65.89-.9,2.19-1.38,3.85-1.35l15.89-.57c.27,0,.52-.09.75-.23l3.71-2.35c6.53-4.14,14.59-4.4,21.02-.69.25.15.5.3.74.45.2.13.42.21.65.23,14.26,1.58,22.11-.52,26.34-1.66.75-.2,1.35-.36,1.76-.45,2.2.73,4.69,16.14,2.05,26.93-.65,2.66-2.18,7.06-5.08,6.59Z"/>
    </g>
  </g>
  <g>
    <g>
      <rect class="cls-2" x="26.8" y="1.5" width="64.05" height="25.84" rx="2.91" ry="2.91"/>
      <path class="cls-3" d="m87.94,28.84H29.71c-2.43,0-4.41-1.98-4.41-4.41V4.41c0-2.43,1.98-4.41,4.41-4.41h58.23c2.43,0,4.41,1.98,4.41,4.41v20.02c0,2.43-1.98,4.41-4.41,4.41ZM29.71,3c-.78,0-1.41.63-1.41,1.41v20.02c0,.78.63,1.41,1.41,1.41h58.23c.78,0,1.41-.63,1.41-1.41V4.41c0-.78-.63-1.41-1.41-1.41H29.71Z"/>
    </g>
    <g>
      <path class="cls-5" d="m34.59,8.25h48.48v9.41c0,1.28-1.04,2.32-2.32,2.32h-43.83c-1.28,0-2.32-1.04-2.32-2.32v-9.41h0Z"/>
      <path class="cls-3" d="m80.74,21.48h-43.83c-2.11,0-3.82-1.71-3.82-3.82v-9.41c0-.83.67-1.5,1.5-1.5h48.48c.83,0,1.5.67,1.5,1.5v9.41c0,2.11-1.71,3.82-3.82,3.82Zm-44.66-11.73v7.91c0,.45.37.82.82.82h43.83c.45,0,.82-.37.82-.82v-7.91h-45.48Z"/>
    </g>
    <g>
      <g>
        <rect class="cls-4" x="38.82" y="5.42" width="40" height="71.17" rx="2.7" ry="2.7"/>
        <path class="cls-3" d="m76.13,77.84h-34.6c-2.18,0-3.95-1.77-3.95-3.95V8.12c0-2.18,1.77-3.95,3.95-3.95h34.6c2.18,0,3.95,1.77,3.95,3.95v65.77c0,2.18-1.77,3.95-3.95,3.95ZM41.52,6.67c-.8,0-1.45.65-1.45,1.45v65.77c0,.8.65,1.45,1.45,1.45h34.6c.8,0,1.45-.65,1.45-1.45V8.12c0-.8-.65-1.45-1.45-1.45h-34.6Z"/>
      </g>
      <g>
        <rect class="cls-5" x="50.09" y="21" width="17.47" height="40" transform="translate(99.83 -17.82) rotate(90)"/>
        <path class="cls-3" d="m78.83,50.99h-40c-.69,0-1.25-.56-1.25-1.25v-17.47c0-.69.56-1.25,1.25-1.25h40c.69,0,1.25.56,1.25,1.25v17.47c0,.69-.56,1.25-1.25,1.25Zm-38.75-2.5h37.5v-14.97h-37.5v14.97Z"/>
      </g>
      <g>
        <circle class="cls-2" cx="58.83" cy="41.01" r="14.85"/>
        <path class="cls-3" d="m58.83,57.1c-8.88,0-16.1-7.22-16.1-16.1s7.22-16.1,16.1-16.1,16.1,7.22,16.1,16.1-7.22,16.1-16.1,16.1Zm0-29.69c-7.5,0-13.6,6.1-13.6,13.6s6.1,13.6,13.6,13.6,13.6-6.1,13.6-13.6-6.1-13.6-13.6-13.6Z"/>
      </g>
      <g>
        <g>
          <path class="cls-6" d="m58.83,61.77c1.95,0,3.53,1.58,3.53,3.53s-1.58,3.53-3.53,3.53-3.53-1.58-3.53-3.53,1.58-3.53,3.53-3.53Z"/>
          <path class="cls-3" d="m58.83,70.08c-2.64,0-4.78-2.15-4.78-4.78s2.15-4.78,4.78-4.78,4.78,2.15,4.78,4.78-2.15,4.78-4.78,4.78Zm0-7.07c-1.26,0-2.28,1.02-2.28,2.28s1.02,2.28,2.28,2.28,2.28-1.02,2.28-2.28-1.02-2.28-2.28-2.28Z"/>
        </g>
        <g>
          <circle class="cls-6" cx="58.83" cy="16.71" r="3.53"/>
          <path class="cls-3" d="m58.83,21.5c-2.64,0-4.78-2.15-4.78-4.78s2.15-4.78,4.78-4.78,4.78,2.15,4.78,4.78-2.15,4.78-4.78,4.78Zm0-7.07c-1.26,0-2.28,1.02-2.28,2.28s1.02,2.28,2.28,2.28,2.28-1.02,2.28-2.28-1.02-2.28-2.28-2.28Z"/>
        </g>
      </g>
    </g>
    <g>
      <rect class="cls-6" x="26.8" y="1.5" width="64.05" height="6.75" rx="2.91" ry="2.91"/>
      <path class="cls-3" d="m87.94,9.5H29.71c-2.29,0-4.16-1.87-4.16-4.16v-.92c0-2.29,1.87-4.16,4.16-4.16h58.23c2.29,0,4.16,1.87,4.16,4.16v.92c0,2.29-1.87,4.16-4.16,4.16ZM29.71,2.75c-.92,0-1.66.75-1.66,1.66v.92c0,.92.75,1.66,1.66,1.66h58.23c.92,0,1.66-.75,1.66-1.66v-.92c0-.92-.75-1.66-1.66-1.66H29.71Z"/>
    </g>
  </g>
</svg>