<?xml version="1.0" encoding="UTF-8"?>
<svg id="Objects" xmlns="http://www.w3.org/2000/svg" viewBox="0 0 348.45 110.28">
  <defs>
    <style>
      .cls-1 {
        fill: #76c12e;
      }

      .cls-2 {
        fill: #b6e357;
      }

      .cls-3 {
        fill: #d6f2ac;
      }

      .cls-4 {
        fill: #ace359;
      }

      .cls-5 {
        fill: #c9ea7e;
      }

      .cls-6 {
        fill: #cced91;
      }

      .cls-7 {
        fill: #c0eb88;
      }

      .cls-8 {
        fill: #a7e14e;
      }

      .cls-9 {
        fill: #c0ec88;
      }

      .cls-10 {
        fill: #d1f0a3;
      }

      .cls-11 {
        fill: #87cf35;
      }

      .cls-12 {
        fill: #87ce39;
      }

      .cls-13 {
        fill: #b5e562;
      }

      .cls-14 {
        fill: #c8ed93;
      }

      .cls-15 {
        fill: #b1e35b;
      }

      .cls-16 {
        fill: #aae251;
      }

      .cls-17 {
        fill: #cbee96;
      }

      .cls-18 {
        fill: #b5e669;
      }

      .cls-19 {
        fill: #a3df45;
      }

      .cls-20 {
        fill: #bbe979;
      }

      .cls-21 {
        fill: #ade14e;
      }

      .cls-22 {
        fill: #d9ee91;
      }

      .cls-23 {
        fill: #daf3ab;
      }

      .cls-24 {
        fill: #cfef9c;
      }

      .cls-25 {
        fill: #a2de4e;
      }

      .cls-26 {
        fill: #d7f2ac;
      }

      .cls-27 {
        fill: #bde876;
      }

      .cls-28 {
        fill: #bfe66a;
      }

      .cls-29 {
        fill: #bce979;
      }

      .cls-30 {
        fill: #a5e047;
      }

      .cls-31 {
        fill: #c1ec89;
      }

      .cls-32 {
        fill: #b8e666;
      }

      .cls-33 {
        fill: #aae358;
      }

      .cls-34 {
        fill: #a7e14b;
      }

      .cls-35 {
        fill: #b8e871;
      }

      .cls-36 {
        fill: #b2e76c;
      }

      .cls-37 {
        fill: #d4f1a5;
      }

      .cls-38 {
        fill: #89d036;
      }

      .cls-39 {
        fill: #c2eb7e;
      }

      .cls-40 {
        fill: #b8e770;
      }

      .cls-41 {
        fill: #c4f2a7;
      }

      .cls-42 {
        fill: #caef9c;
      }

      .cls-43 {
        fill: #bdea7f;
      }

      .cls-44 {
        fill: #d2f1a5;
      }

      .cls-45 {
        fill: #d6f1a8;
      }

      .cls-46 {
        fill: #8dd338;
      }

      .cls-47 {
        fill: #b4e66a;
      }

      .cls-48 {
        fill: #bfeb7f;
      }

      .cls-49 {
        fill: #a9df43;
      }

      .cls-50 {
        fill: #dbf2ab;
      }

      .cls-51 {
        fill: #d1f09b;
      }

      .cls-52 {
        fill: #ccec8d;
      }

      .cls-53 {
        fill: #a7e04d;
      }

      .cls-54 {
        fill: #b7e668;
      }

      .cls-55 {
        fill: #c0ed8d;
      }

      .cls-56 {
        fill: #a8e251;
      }

      .cls-57 {
        fill: #c3ec86;
      }

      .cls-58 {
        fill: #c0ea81;
      }

      .cls-59 {
        fill: #afe357;
      }

      .cls-60 {
        fill: #abe254;
      }

      .cls-61 {
        fill: #b6e564;
      }

      .cls-62 {
        fill: #d0f0a3;
      }

      .cls-63 {
        fill: #c2ea7c;
      }

      .cls-64 {
        fill: #c1e973;
      }

      .cls-65 {
        fill: #abe152;
      }

      .cls-66 {
        fill: #beed8a;
      }

      .cls-67 {
        fill: #c0eb80;
      }

      .cls-68 {
        fill: #d4f1a8;
      }

      .cls-69 {
        fill: #b4e662;
      }

      .cls-70 {
        fill: #a7e14d;
      }

      .cls-71 {
        fill: #76bd2e;
      }

      .cls-72 {
        fill: #c5f1a0;
      }

      .cls-73 {
        fill: #c3e875;
      }

      .cls-74 {
        fill: #bae872;
      }

      .cls-75 {
        fill: #afe459;
      }

      .cls-76 {
        fill: #c3eb80;
      }

      .cls-77 {
        fill: #bde977;
      }

      .cls-78 {
        fill: #b3e76b;
      }

      .cls-79 {
        fill: #d9f1a7;
      }

      .cls-80 {
        fill: #caee96;
      }

      .cls-81 {
        fill: #95d83c;
      }

      .cls-82 {
        fill: #c3ec83;
      }

      .cls-83 {
        fill: #c7ea7b;
      }

      .cls-84 {
        fill: #cef1a5;
      }

      .cls-85 {
        fill: #c0eb82;
      }

      .cls-86 {
        fill: #cfec87;
      }

      .cls-87 {
        fill: #b9e872;
      }

      .cls-88 {
        fill: #d5f2aa;
      }

      .cls-89 {
        fill: #b5e665;
      }

      .cls-90 {
        fill: #cbeb86;
      }

      .cls-91 {
        fill: #beed8f;
      }

      .cls-92 {
        fill: #cbee94;
      }

      .cls-93 {
        fill: #c3ea7b;
      }

      .cls-94 {
        fill: #b7e66a;
      }

      .cls-95 {
        fill: #c9ee93;
      }

      .cls-96 {
        fill: #b3e669;
      }

      .cls-97 {
        fill: #aae14a;
      }

      .cls-98 {
        fill: #ccee9f;
      }

      .cls-99 {
        fill: #b2e563;
      }

      .cls-100 {
        fill: #84cc33;
      }

      .cls-101 {
        fill: #c6ed91;
      }

      .cls-102 {
        fill: #aee35a;
      }

      .cls-103 {
        fill: #caf1a1;
      }

      .cls-104 {
        fill: #a4df44;
      }

      .cls-105 {
        fill: #b8e772;
      }

      .cls-106 {
        fill: #b9e563;
      }

      .cls-107 {
        fill: #c7ec85;
      }

      .cls-108 {
        fill: #c1ec88;
      }

      .cls-109 {
        fill: #afe45c;
      }

      .cls-110 {
        fill: #d6f3ad;
      }

      .cls-111 {
        fill: #b8e874;
      }

      .cls-112 {
        fill: #a6e14f;
      }

      .cls-113 {
        fill: #bce978;
      }

      .cls-114 {
        fill: #c0e97b;
      }

      .cls-115 {
        fill: #bfeb84;
      }

      .cls-116 {
        fill: #bde76f;
      }

      .cls-117 {
        fill: #c5ef95;
      }

      .cls-118 {
        fill: #bde86f;
      }

      .cls-119 {
        fill: #c9ec89;
      }

      .cls-120 {
        fill: #cef0a1;
      }

      .cls-121 {
        fill: #daf09d;
      }

      .cls-122 {
        fill: #c6ec85;
      }

      .cls-123 {
        fill: #b6e45f;
      }

      .cls-124 {
        fill: #dbf2ad;
      }

      .cls-125 {
        fill: #aee45a;
      }

      .cls-126 {
        fill: #d7f1a3;
      }

      .cls-127 {
        fill: #caec8a;
      }

      .cls-128 {
        fill: #c7ea7e;
      }

      .cls-129 {
        fill: #bbea80;
      }

      .cls-130 {
        fill: #b2e666;
      }

      .cls-131 {
        fill: #b0e45f;
      }

      .cls-132 {
        fill: #b5e76c;
      }

      .cls-133 {
        fill: #b9e871;
      }

      .cls-134 {
        fill: #b9e76b;
      }

      .cls-135 {
        fill: #caef9a;
      }

      .cls-136 {
        fill: #cced8b;
      }

      .cls-137 {
        fill: #bdea7a;
      }

      .cls-138 {
        fill: #b7e769;
      }

      .cls-139 {
        fill: #c1ea7e;
      }

      .cls-140 {
        fill: #a8e24e;
      }

      .cls-141 {
        fill: #c4ea7b;
      }

      .cls-142 {
        fill: #aee251;
      }

      .cls-143 {
        fill: #cfef94;
      }

      .cls-144 {
        fill: #bae976;
      }

      .cls-145 {
        fill: #b3e566;
      }

      .cls-146 {
        fill: #b2e769;
      }

      .cls-147 {
        fill: #b9e45d;
      }

      .cls-148 {
        fill: #bce97b;
      }

      .cls-149 {
        fill: #bcea7a;
      }

      .cls-150 {
        fill: #ccef9c;
      }

      .cls-151 {
        fill: #c8ef9a;
      }

      .cls-152 {
        fill: #aee55f;
      }

      .cls-153 {
        fill: #c8eb85;
      }

      .cls-154 {
        fill: #c5ee91;
      }

      .cls-155 {
        fill: #bde97a;
      }

      .cls-156 {
        fill: #bcea78;
      }

      .cls-157 {
        fill: #bae975;
      }

      .cls-158 {
        fill: #b6e66b;
      }

      .cls-159 {
        fill: #cef1aa;
      }

      .cls-160 {
        fill: #d6f1aa;
      }

      .cls-161 {
        fill: #b3e560;
      }

      .cls-162 {
        fill: #ceed96;
      }

      .cls-163 {
        fill: #b6e669;
      }

      .cls-164 {
        fill: #c4ed8d;
      }

      .cls-165 {
        fill: #a8e14f;
      }

      .cls-166 {
        fill: #c0e979;
      }

      .cls-167 {
        fill: #d0ee93;
      }

      .cls-168 {
        fill: #aee358;
      }

      .cls-169 {
        fill: #aae155;
      }

      .cls-170 {
        fill: #bde975;
      }

      .cls-171 {
        fill: #cef2ad;
      }

      .cls-172 {
        fill: #cfee96;
      }

      .cls-173 {
        fill: #aee14d;
      }

      .cls-174 {
        fill: #ade252;
      }

      .cls-175 {
        fill: #bae76f;
      }

      .cls-176 {
        fill: #a9e252;
      }

      .cls-177 {
        fill: #bde870;
      }

      .cls-178 {
        fill: #d8f0a5;
      }

      .cls-179 {
        fill: #c2ed8a;
      }

      .cls-180 {
        fill: #b4e565;
      }

      .cls-181 {
        fill: #bbe976;
      }

      .cls-182 {
        fill: #b1e561;
      }

      .cls-183 {
        fill: #c9f0a0;
      }

      .cls-184 {
        fill: #c3ee95;
      }

      .cls-185 {
        fill: #c0eb81;
      }

      .cls-186 {
        fill: #abe357;
      }

      .cls-187 {
        fill: #bbe872;
      }

      .cls-188 {
        fill: #d0f1a7;
      }

      .cls-189 {
        fill: #cbf09f;
      }

      .cls-190 {
        fill: #b3e466;
      }

      .cls-191 {
        fill: #cef3aa;
      }

      .cls-192 {
        fill: #b4e665;
      }

      .cls-193 {
        fill: #bfe974;
      }

      .cls-194 {
        fill: #cdef9c;
      }

      .cls-195 {
        fill: #daf1a7;
      }

      .cls-196 {
        fill: #bbe45a;
      }

      .cls-197 {
        fill: #d5ef9a;
      }

      .cls-198 {
        fill: #b8e563;
      }

      .cls-199 {
        fill: #d1f2ac;
      }

      .cls-200 {
        fill: #bfe871;
      }

      .cls-201 {
        fill: #caec8c;
      }

      .cls-202 {
        fill: #b8e66a;
      }

      .cls-203 {
        fill: #cbee91;
      }

      .cls-204 {
        fill: #c7ec88;
      }

      .cls-205 {
        fill: #9cdd3b;
      }

      .cls-206 {
        fill: #a8e250;
      }

      .cls-207 {
        fill: #d9f1a3;
      }

      .cls-208 {
        fill: #c3e770;
      }

      .cls-209 {
        fill: #cce978;
      }

      .cls-210 {
        fill: #ace251;
      }

      .cls-211 {
        fill: #b5e870;
      }

      .cls-212 {
        fill: #a6df44;
      }

      .cls-213 {
        fill: #d0f1a3;
      }

      .cls-214 {
        fill: #ace253;
      }

      .cls-215 {
        fill: #85cb34;
      }

      .cls-216 {
        fill: #bee977;
      }

      .cls-217 {
        fill: #b0e251;
      }

      .cls-218 {
        fill: #bae97b;
      }

      .cls-219 {
        fill: #c0e978;
      }

      .cls-220 {
        fill: #cfef9a;
      }

      .cls-221 {
        fill: #b5e55e;
      }

      .cls-222 {
        fill: #d0f2a9;
      }

      .cls-223 {
        fill: #d2f2ac;
      }

      .cls-224 {
        fill: #9cdd3a;
      }

      .cls-225 {
        fill: #b1e560;
      }

      .cls-226 {
        fill: #c6ec8c;
      }

      .cls-227 {
        fill: #b2e66c;
      }

      .cls-228 {
        fill: #c4ea7f;
      }

      .cls-229 {
        fill: #b1e460;
      }

      .cls-230 {
        fill: #ceed8b;
      }

      .cls-231 {
        fill: #cef09f;
      }

      .cls-232 {
        fill: #d5f1a5;
      }

      .cls-233 {
        fill: #c6ed90;
      }

      .cls-234 {
        fill: #b7e76c;
      }

      .cls-235 {
        fill: #cfed8e;
      }

      .cls-236 {
        fill: #c6eb82;
      }

      .cls-237 {
        fill: #d0ef98;
      }

      .cls-238 {
        fill: #b8e669;
      }

      .cls-239 {
        fill: #a1de41;
      }

      .cls-240 {
        fill: #cbef98;
      }

      .cls-241 {
        fill: #a2df44;
      }

      .cls-242 {
        fill: #c5ea80;
      }

      .cls-243 {
        fill: #cbeb81;
      }

      .cls-244 {
        fill: #b3e668;
      }

      .cls-245 {
        fill: #c4ee90;
      }

      .cls-246 {
        fill: #c5ec89;
      }

      .cls-247 {
        fill: #dff0a0;
      }

      .cls-248 {
        fill: #c7ec86;
      }

      .cls-249 {
        fill: #a9e357;
      }

      .cls-250 {
        fill: #afe561;
      }

      .cls-251 {
        fill: #d7f2aa;
      }

      .cls-252 {
        fill: #c7ec89;
      }

      .cls-253 {
        fill: #b3e255;
      }

      .cls-254 {
        fill: #b3e671;
      }

      .cls-255 {
        fill: #c9ee91;
      }

      .cls-256 {
        fill: #a9e14f;
      }

      .cls-257 {
        fill: #d5f1a3;
      }

      .cls-258 {
        fill: #d5f1ab;
      }

      .cls-259 {
        fill: #dcee93;
      }

      .cls-260 {
        fill: #c6ed8e;
      }

      .cls-261 {
        fill: #a7e14c;
      }

      .cls-262 {
        fill: #8fd336;
      }

      .cls-263 {
        fill: #d2f1a9;
      }

      .cls-264 {
        fill: #b8e978;
      }
    </style>
  </defs>
  <path class="cls-52" d="m348.1,109.71c.12-.03.23-.03.35,0-.07.19-.13.38-.2.57-.22-.15-.17-.36-.15-.57Z"/>
  <g>
    <path class="cls-224" d="m135.35,39.33l-.03.11-.12.02c-.08.2-.16.4-.45.36h0c-1.42.45-2.72,1.14-4.02,1.83-.07.13-.18.2-.34.23-2.61.71-5.16,1.5-7.6,2.7-.89.44-1.33,1.36-2.35,1.52h.03c-.74.05-1.2.89-2.05.65h.08c-1.27.36-2.61.54-3.69,1.34h-.03c-.21.03-.43.04-.64.05v.06c-.86-.09-1.53.43-2.31.61-.19.04-.38.1-.57.14-.19.03-.38.09-.57.14-.19.06-.36.13-.53.22-.33.19-.63.41-.97.58-.45.5-.99.79-1.72.67h.08c-1.14-.02-1.42,1.64-2.76,1.24l.09-.02c-1.87-.15-3.19,1.43-5.02,1.41h.04c-.44-.05-.73.26-1.1.39.02.1-.02.17-.13.21-.27.17-.56.06-.84.06l.09-.02c-1.63.09-3.06.85-4.61,1.19-.16.13-.31.28-.44.44-1.39.77-2.54,2.64-4.49.85-.34-.04-.62.1-.86.3-.59.52-1.18,1.04-1.9,1.39-.18.04-.37.08-.55.11-.28.02-.56.04-.84.06-.19.02-.38.05-.57.09-.28.07-.56.15-.84.23-.2.04-.39.1-.58.16-1.57-.45-2.91-.44-4.23.81-.83.79-2.27.84-3.49,1.01-.2-.02-.41-.02-.61,0-.97.2-2.01,0-2.93.46-.16.09-.27.22-.35.38.09.43-.24.5-.58.56-.45.11-.91.15-1.37.09-.38-.07-.76-.17-1.14-.24-.2-.04-.41-.05-.62-.06-1.41-.13-2.75.23-4.08.55-.19.07-.35.18-.5.3-.64.61-1.48.07-2.19.31-.2.06-.38.15-.56.26-.82.41-1.59.81-2.59.37-1.61-.71-2.65-.17-3.11,1.41-.32,1.08-.77,1.97-2.19,1.02-.13-.15-.28-.28-.45-.39-.55-.27-1.13-.42-1.75-.44-.55,0-1.07.14-1.56.36,0-.01-.22,0-.22,0,0,0-.09-.19-.09-.2-.3-.53-.86-.78-1.24-.35-.55.62-1.05-.02-1.54.14-1.3,1.43-1.22-.6-1.92-.66-.19-.11-.39-.16-.61-.15-.31.04-.74.06-.84.28-1.11,2.47-3.56,1.39-5.43,1.79-.18-.1-.36-.19-.54-.28-1.39-.85-2.95-.15-4.41-.42-.17.06-.34.15-.49.24-.27.19-.46.45-.73.64-.14.06-.28.1-.44.1-.24-.03-.47-.09-.7-.13-.17-.03-.34-.05-.51-.06-.59-.05-.95-.44-1.34-.78-.16-.12-.34-.21-.54-.28-1.21.4-2.27.67-3.61-.06-1.01-.55-2.38.44-3.63.22-.69-.06-1.39-.09-2.09-.16-.39-.06-.76-.17-1.13-.29-.87-.31-1.78-.35-2.7-.42-.43,0-.85.08-1.22.29-.7,1.98-2.44,2.12-4.27,2.09-.19.02-.37.08-.54.15-.43.49-.72.01-1.05-.15-.43-.14-.74-.07-.88.37-.08.53-.23,1.05-.44,1.55-.07.18-.1.37-.12.56,0,.41.13.78.47,1.06.19.11.39.16.61.15.55-.09.91-.54,1.47-.65-.54.39-1.16.72-1.12,1.47.03.4.17.78.38,1.13.77.69.06,2.05,1.31,2.53.18.1.37.18.57.24.2.06.41.09.62.1.21,0,.42-.02.63-.05,1.57.72,2.87,1.88,4.53,2.47.44.15.68.18.91-.2.21-.64.56-1.23.65-1.89.02-.44.25-.08.4-.07.89.25,1.08-.67,1.67-.83.42-.12,1.17-.32,1.28.46.12.75-.53.51-.93.51-1.03,0-1.8.32-2.09,1.31-.24.29-.53.55-.58.94-.01.19.03.37.11.54.19.23.41.4.75.25l-.02.02c.34.16.72.23,1.08.32.17.07.33.15.5.23.17.06.35.11.53.14.09.02.18.03.27.05.27.06.54.12.82.17.19.02.38.03.57.02.5-.05.95.09,1.39.27.19.07.38.12.58.15.49.07.98.08,1.46.17.18.04.37.06.56.07.27,0,.54-.05.8-.11.17-.02.34-.05.52-.07.17,0,.35-.02.52-.04.18,0,.35,0,.53-.01.46,0,.88.13,1.31.26.18.06.37.09.56.12.2.03.39.04.59.03.1,0,.2-.02.3-.03.88-.13,1.76-.15,2.64.02h-.05c.46-.02.92.03,1.38-.02h-.06c.23.13.47.12.71.06h-.05c.24.07.48.08.71-.01l-.03-.02c.15.08.31.15.47.21.17.05.34.08.52.1.27.02.54.02.81.02.18-.02.37-.04.55-.07.37.03.74.09,1.12.11.19.02.38.03.56.04.19,0,.37,0,.56-.02.18-.02.36-.07.53-.12.34-.15.67-.14,1.01,0,.17.05.34.07.51.08.25-.02.5-.08.75-.13.16-.03.32-.06.48-.09.24-.03.49-.03.74-.02.17.03.34.04.52.04.19,0,.37-.02.55-.06.18-.07.34-.16.48-.29.19-.23.27-.49.17-.78-.29-.58-.82-.82-1.45-.93-.29-.06-.58-.13-.86-.24-1.25-1.52-3.12-.51-4.61-1.01-.22-.28-.14-.64-.24-.95-.11-.26-.28-.46-.51-.63-.18-.09-.37-.15-.57-.19-.66.13-.71.87-1.27,1.07-.23.16.18.29-.06.12-.22-.16.16-.16.2-.29.52-1.24.4-1.3-1.84-.99-1.12-.14-1.26,1.82-2.66,1.06-.56-.29-.91-.59-.08-.97,1.19-.89,2.6.16,3.83-.37.62.03,1.23.07,1.83.21.85.56,1.13-1.37,2.07-.4.71.55,1.38,1.51,2.3.24.02-.52-.25-.95-.58-1.41.34.2.49.47.63.76.49.48.57,1.1.65,1.72.04.09.08.17.12.26.07.08.14.15.2.22.09.06.18.11.27.16.73.27,1.45.48,2.11-.14.16-.24.38-.53.31-.78-.67-2.25.75-2.53,2.59-2.41.6-.14,1.13-.48,1.76-.53.87-.02,1.63.47,2.57.46-.37.12-.66.02-.96.07-.33.12-.59.32-.78.58-.48.99-.11,1.65.93,2.05.24.11.53.03.78.14-.29.16-.62.22-.91.37-.58.22-1.24,0-1.81.27-.29.17-.49.41-.59.73-.08.7.19,1.23.88,1.55,1.33-.67,1.44.92,2.31,1.09h-.07c.34.18.67.05,1.01-.03.17-.02.34-.05.51-.06.35.02.7.1,1.05.06.36-.05.71-.15,1.09-.15.19.01.38,0,.58,0,.29-.02.57-.08.8-.24.09-.09.21-.31.24-.31.19.05-.04.14,0,.23,0,.17.08.31.2.44.16.09.33.15.52.19.09.01.19.02.28.03.19.01.38,0,.57-.01.19-.02.38-.06.56-.11.45-.14.89-.3,1.19-.66.1-.15.18-.31.25-.47.11-.11.23-.21.38-.23,3.13-.37,6.22-.76,9.18-1.97,2.11-.86,4.51-.75,6.78-1.06.2-.06.4-.14.59-.23,1.04-.45,2.07-.95,3.28-.78.22-.03.42-.09.62-.17,1.83-1.29,4.18-1.29,6.19-2.26,3.41-1.64,7.5-1.51,10.85-3.83,1.32-.92,3.76-1.31,5.77-1.62.91-.14,1.56-.57,2.03-1.28.35-.43.86-.35,1.34-.37.61-.13,1.1-.5,1.67-.7.72-.32,1.63-.23,2.18-.89.2-.31.18-.67.25-1.01.06-.15.15-.29.26-.41.5-.24.89.06,1.31.2.19.06.38.08.57.06.33-.32.67-.15,1.01,0,2.69-1.02,5.31-2.16,7.8-3.55.39-.06-.16-1.44.96-.54.67.54,1.21.11,1.55-.51.05-.12-.07-.25-.05-.34.02-.16.14-.14.18.06.1.14.21.24.36.32.19.06.37.07.56.02.48-.71,1.27-.85,2.06-1,.3-.11.56-.27.79-.48.39-.54.75-1.13,1.62-.67.39.04.74-.09,1.11-.21,1.13-.37,1.54-2.12,2.72-1.81,1.53.4,2.36-.82,3.66-.82.9,0,1.61-.75,2.27-1.35.5-.68,1.43-.54,2.08-.93.34-.29.58-.78,1.2-.55.53.04,1.12-.26,1.54.28.45.46.9.8,1.46.13.15-.34.09-.7.14-1.05.09-.48.54-.66.92-.9.86-.49.93-1.34,1.09-2.14.48.15.78.51,1.24.6,1.83-.3,3.65-.6,4.41-2.52.2-.68.3-1.42,1.09-1.79.21-.1.43-.2.65-.27.13-.03.26-.04.4-.03.12.05.22.13.28.25.09.2.21.38.45.45.17.02.34.02.51,0,.27-.04.52-.12.75-.24.31-.22.47-.5.4-.87-.05-.15-.13-.28-.23-.4-.04-.05-.09-.11-.13-.16.01,0-.02-.19-.02-.19,0,0,.15-.13.17-.13.72-.33,1.53.65,2.19-.16.17-1.16.43-1.94,2.05-1.15.83.4,2.42.7,1.6-1.23-.18-.2-.43-.51-.17-.66.37-.22.12.14.12.22,0,.13-.01.25.05.39.66.74,1.38.47,2.11.14.28-.17.5-.4.66-.67.41-.6-.29-1.51.63-1.97.47-.29.84-.72,1.37-.94.27-.13.53-.27.79-.42.65-.36,1.31-.69,1.9-1.14,1.15-.83,2.57-1.18,3.82-1.83,1.17-.43,2.22-1.05,3.3-1.62.85-.83,2.55-.17,3.09-1.53,0-.21-.07-.4-.22-.57-2.65-1.82-5.83-1.38-8.81-1.78-1.37-.19-2.74-.41-4.07-.79-.51-.14-1.1-.35-1.12-.94-.02-.49.57-.62.93-.86,1.47-1,3.41-1.35,4.56-2.8.08-.4-.23-.61-.47-.88-.18-.21-.84-.26-.43-.7.16-.17.57-.02.87,0,.29.02.59-.02.87.02.16.43.19.98.93.85,1.76-.47,2.94-1.69,4.18-2.83.17-.59-.32-.72-.73-.9-.21-.07-.43-.1-.65-.16-.34-.09-.84-.15-.73-.6.12-.49.57-.34.9-.19.53.25,1.03.57,1.65.64.53.06,1.06.05,1.59-.02.42-.07.83-.19,1.23-.31,1.1-.38,2.2-.78,3.23-1.31.25-.17.45-.39.67-.59.32-.24.66-.47.84-.84.09-1.52-.79-2-2.27-1.83-.8.25-.16,1.47-1.21,1.56-.37-.03-.73-.12-1.09-.19-.48-.09-.96-.12-1.44-.2-.72-.14-1.42-.33-2.03-.73-.14-.14-.28-.27-.42-.41-.07-.07-.14-.14-.22-.21-1.05-1.48-2.58-.17-3.82-.57-.2-.06-.41-.07-.62-.04-.59.18-1.09.58-1.75.57-.19-.03-.38-.06-.57-.11-.61-1.37-2.28-1.6-3.22-2.62-.17-.12-.36-.22-.55-.29-1.08-.29-2.23-1.31-3.06.34-.55-.45-.09-1.07-.5-1.44-.13-.15-.3-.27-.49-.35-1.56-.44-1.47,1.69-2.83,1.56-.77.15-1.64.72-2.09-.44-.19-.08-.38-.14-.58-.19-.2-.05-.41-.09-.61-.13-1.22.17-.97-1.44-2.03-1.46-.31,0-.62.05-.91.14-.19.07-.37.16-.54.26-.56.34-.91-.08-1.31-.32-.52-.23-1.02-.14-1.51.09-1.22,1.1-.55-1.12-1.39-.7-.19-.08-.39-.14-.59-.19-1.72-.51-3.55.08-5.26-.46-.8-.16-1.61-.3-2.4-.5-.2-.06-.4-.11-.6-.16-1.11-.43-2.23-.66-3.37-.09-.69.31-1.15.75-1.54,1.42-.43.74-.74.07-.94-.35-.06-.19-.15-.35-.28-.51-1.13-.73-2.12.36-3.2.22-.82-.14-1.58-.5-2.4-.59-.23-.02-.48.06-.69-.08-.06-.13-.13-.26-.21-.38-.08-.13-.19-.23-.32-.31-.11-.08-.24-.14-.38-.19-.14-.06-.21-.16-.2-.31.31-.35.69-.63.7-1.12-.26-1.3-1.03-1.45-2.15-.84-.74.58-1.47,1.04-2.41.25-.63-.54-1.11-.17-1.52.33-.12.13-.24.27-.36.4-.27.25-.61.34-.98.38-.41.06-.75.22-1.04.49-.22.22-.32.49-.37.78,0,.17-.01.35-.02.52.54-.12.85,0,1.09.42h-.03c1.17.35,2.28.82,3.39,1.32,1.51,1,3.41,1.22,4.91,2.21-.07,1.02-.7.15-1.03.25q-2.51-1.61-4.16.25c.1,1.92.73,2.52,3.24,3.11-.03.71-.85,1-1.02,1.63-.1.29-.12.58-.03.87.72.72,1.94.48,2.66,1.19.15.1.32.19.48.28.28.17.6.3.69.64-.02.34-.34.55-.45.85-.19.7.79,1.12.5,1.84-.07.29.09.53.2.78v-.02c.02.57.33.87.94.91h-.05c.22.07.45.05.68.05h0c.73.03,1.31.44,1.97.66h0c.55.08,1.02.61,1.65.29h-.02c1.13.78,2.05.75,2.6-.61.1-.17-.07-.4.14-.52.03-.02-.09.27.09.36.94.85,2.14.9,3.34.96.6.05,1.21.15,1.81.04.2-.04.39-.08.59-.11h-.01c1.43.2,2.75,1.43,4.3.37h-.01c1.51-.03,1.67,2.06,3.31,1.84h-.06c.23.11.47.11.71.03l-.06-.02c.21.06.4.03.56-.12,1.32-1.6,2.67.13,3.99-.02,1.65.1,3.33-.09,4.91.52.4.12.82.19,1.24.25,2.11.96.08,1.57-.37,1.78-1.09.51-2.23.93-3.2,1.64-.2.14-.41.29-.61.43-.37.02-.61.33-.97.36h.03c-1.17-.19-1.72.89-2.67,1.14h0c-.56-.02-.76.64-1.33.61h0c-1.18.2-2,1.02-3,1.52h.03c-1.08.08-1.33,1.32-2.36,1.47h0c-.39-.02-.65.28-1,.35h.04c-.78-.15-.93.87-1.68.77l-.05.02c-.35.05-.6.34-.97.36h.02c-.76-.04-.95.87-1.68.88h0c-.39-.02-.65.29-1.01.33h.03c-.97-.14-1.57.59-2.35.89h.04c-.95,0-1.16,1.08-2.04,1.19h.03c-.4-.06-.67.26-1.02.33h.04c-.44-.11-.72.24-1.1.34Z"/>
    <path class="cls-165" d="m116.73,12.48c.38.12.65-.04.89-.29v.02c.04-.21.05-.41.06-.62h0c.06-.54.21-1.13-.67-1.21h.03c-.37-.02-.65-.4-1.07-.23l-.11.11c-.14.26-.17.52,0,.78.1.07.14.17.12.29.1.47.71.66.72,1.17v-.02Z"/>
    <path class="cls-27" d="m123.24,14.4c.91-.4.68-1.15.64-1.83-.1-.05-.17-.13-.23-.22-.22-.07-.46-.07-.68-.1h-.04c-1.52.94,0,1.47.33,2.16h-.02Z"/>
    <path class="cls-77" d="m126.15,17.72c-.3-.16-.61-.47-.93-.1-.3.35.05.61.24.88.04.19.16.27.37.25.11.04.2.1.27.19.48.12.69-.14.82-.51-.1-.38-.36-.61-.76-.72Z"/>
    <path class="cls-47" d="m141.31,21.7c.27.39.84.63.68,1.23.1.09.18.2.24.31,1.71.39.62-1,1.04-1.43-.66-.04-1.31-.07-1.97-.11Z"/>
    <path class="cls-263" d="m161.33,24.17c-.1.3-.2.6-.3.9.21.18.42.36.63.54.49-.29.5-.8.69-1.23-.34-.07-.68-.14-1.02-.21Z"/>
    <path class="cls-155" d="m156.43,23.76c-.34.25-.61.52-.37.97.12.01.21.07.28.15.23.12.48.11.73.12v-.03c.3-.64-.24-.89-.64-1.21Z"/>
    <path class="cls-124" d="m153.8,24.39c.08-.99-.46-.65-.97-.38.19.19.39.39.58.58.21.07.33,0,.38-.19Z"/>
    <path class="cls-259" d="m118.14,3.3c.22.15.44.15.67.01h0c-.02-.2-.14-.29-.34-.29h.02c-.12.09-.23.18-.34.28Z"/>
    <path class="cls-1" d="m172.98,20.94c-.99.93-2.44,1.11-3.57,1.86-.59.4-1.29.73-1.87,1.19-.93.75-.8,1.95.35,2.17,2.85.54,5.66,1.47,8.64,1.11.95-.11,1.76-.13,2.53.61.58.55,1.47.8,2.38.51.47.01.89-.35.75-.61-.96-1.77,1.92-1.94,1.59-3.42.22-.02.5-.2.65-.09.23.17-.15.24-.19.4-.16.63-.83.8-1.28,1.17-.32.27-.93.43-.79.94.16.58.75.64,1.32.6,1.4-.32,2.61-1.34,4.2-.95,1.79-.76,2.94-1.8,1.94-3.79-.41-.83.19-1.33.69-1.87.15-.3.18-.58-.08-.84-1.21-.79-2.34.63-3.51.12,1.22-.37,1.97-1.57,3.43-1.73.6-.07.62-.91.41-1.49-.22-.61-.53-1.19-.77-1.79-.1-.17-.24-.32-.41-.43-.47-.16-.97-.22-1.4-.49-.17-.1-.36-.17-.54-.24-.5-.15-.99.02-1.49.04-.22.04-.33.17-.35.37-1.26.42-2.52.83-3.66,1.52-.7.5-.03.69.27.88.76.49,1.74.54,2.83,1.08-1.56.2-2.85.69-3.4-1.04-.09-.29-.69-.24-1.07-.33-.21-.05-.43-.09-.65-.1-.22.05-.42.13-.61.23-.27.22-.4.48-.37.82-1.8.65-2.86,2.33-4.67,2.96-.17-.02-.34,0-.5.05-.16.07-.3.15-.44.24-.13.1-.25.22-.36.34Z"/>
    <path class="cls-214" d="m12.3,64.91c-.3-.38-.54-.63-1.05-.15-.9.83-1.02.83-1.66-.16-.23-.36-.48-.56-.88-.51-.64.08-.96-.37-1.4-.63h0c-.56-.04-1.07.03-1.34.58.12,1.03-.13,2.05-.04,3.08.09.11.18.22.27.33.2.26.21.78.7.7.69-.11.12-.71.36-1.01h0c1.05.77,2.27-.48,3.39.27.27.18.74-.57.79-.85.11-.67.41-1.17.87-1.64Z"/>
    <path class="cls-169" d="m187.29,14.08c.09.1.2.19.3.28.91.26,1.61-.2,2.33-.59.18-.1.35-.23.49-.38.32-.51.29-.93-.32-1.22-.02-.3-1.01.62-.52-.35.04-.08-.14-.17-.31-.17h.02c-.79.08-1.14-.68-1.81-.82-.95-.19-1.91-.71-2.8.13,0,0-.11.17-.11.17-.05.13-.06.26-.02.39l.15.14c1.05.21,2.15.37,1.93,1.78.02.4.26.61.67.66Z"/>
    <path class="cls-61" d="m137.94,4.75c-.34-.2.39-.91-.53-.89-.51.01-1.03-.21-1.55-.32-.43.75.65.58.65,1.18-1.21.06-2-.9-3.06-1.12,0-.15-.04-.27-.14-.36-.11-.09-.17-.12-.19-.1-1.19.43-2.39.86-1.52,2.41.42.21.95.4,1.24.02.56-.73,1.37-.38,2.04-.57-.08.11.31.41-.17.36.35,1.14,1.06,1.66,1.93,1.38.24-.08.47-.31.35-.46-.98-1.22.35-1.16.94-1.52Z"/>
    <path class="cls-80" d="m39.52,70.83c0-.26,0-.53.01-.79-1-.87-1.93.18-2.95.11-2.49-.17-4.97.45-7.51.25.08.66.45.76.7.77,1.67.02,3.36.08,5.02-.08,1.22-.12,2.3-.53,3.41.47.6.55,1.05-.19,1.32-.73Z"/>
    <path class="cls-206" d="m14.77,77.44c.3-.3.49-.78,1.07-.65.49.11.52.45.42.84.22.1.53.15.6-.05.46-1.4.7-1.56,2.02-1.09.27.09.47.35.88.25.43-.52-.19-1.02-.13-1.57.08-.83-.08-1.73-1.41-.78-.36.26-1.36-.54-1.32.72.01.38-.76.29-1.21.15-.43.68-1.1,1.28-.92,2.19Z"/>
    <path class="cls-214" d="m2.35,66.14c-.18-.26-.08-.53-.05-.81.03-.22-.14-.44-.37-.42-.33.02-.52.27-.55.57-.01.13.04.31.13.38,1.04.81,1.14,2.08,1.73,3.11-.02.2,0,.39.06.58v-.02c-.08.21-.06.42-.06.64h0c-.02.2-.01.4-.03.61h0c.18.56.62.33.99.28h-.02c.58,0,.86-.34,1.05-.79-.09-.32-.18-.64-.27-.96-.34-.37.02-.31.24-.33.2-.52.57-1.01.26-1.59-.84-.84-1.94-1.12-3.12-1.23Z"/>
    <path class="cls-262" d="m180.3,16.73c.07.46,1.77-.45.82.86-.29.41.19.45.42.55,1.66.73,3.17.44,4.93-.6-1.49-.43-2.64-.75-3.78-1.09-.34-.1-.79-.14-.75-.65-.43-.12-.75.09-1.05.33-.37.05-.61.21-.6.6Z"/>
    <path class="cls-120" d="m178.76,30.28c-.06-.13-.14-.26-.24-.37-1.13.57-2.26,1.14-3.39,1.71-.5.52-.79,1.13-.89,1.82,0,.4.11.77.32,1.11.13.15.29.26.49.32.42,0,.75-.22,1.08-.44.15-.11.29-.24.41-.39.06-.07.12-.14.18-.21.05-.46-1.08-1.15.42-1.4.4-.07.89-.82,1.6-.91.33-.41.23-.82.02-1.24Z"/>
    <path class="cls-11" d="m183.44,27.21c-.23-.29-1.73-.14-.37-.97.78-.48,1.61-.9,2.09-1.75.09-.17.73-.15.5-.64-.14-.29-.47-.34-.8-.25-.44.12-.88.26-1.32.39-.31.09-.31.08-.27.86,0,.06.06.18.06.18-1.73.59-1.21,2.27-1.89,3.36.09.08.18.17.27.25l.06.17c.46.08.91.24,1.39.07.17-.09.3-.21.4-.37.13-.35.14-.71.03-1.06-.05-.08-.1-.15-.16-.23Z"/>
    <path class="cls-44" d="m37.04,77.7c.37.85,1.31.57,1.78.48,1.4-.28,2.51.04,3.55.86,1.04-.86,1.15-1.61-.31-2.15h0c-.15,0-.25-.05-.29-.14-.04-.09-.04-.15-.01-.18v-.02c-1.15-1.54-1.94.05-2.88.27-.27.09-.54.14-.82.14-.19,0-.37.04-.54.12-.22.17-.41.36-.48.63Z"/>
    <path class="cls-180" d="m46.96,77.31c-.1-.12-.2-.24-.29-.36-.55-.04-.74.59-1.26.6-.43.08-.79-.02-1.1-.31-1.02.22-1.13,1-1.27,1.77.6.22,1.19.45,1.6.94.54-.04,1.08-.08,1.62-.12.48-.21.86-.52,1.1-.98.08-.18.12-.36.14-.55-.03-.4-.44-.62-.52-1Z"/>
    <path class="cls-54" d="m49.51,65.31c-.26-.53-.04-1.5-1.36-.8-.65.35-.24-.72-.59-1,0,0,.04-.03.04-.03-.68.12-1.35.12-2.02-.04h.04c-.6-.08-.81.59-1.36.61h.03c-.23-.03-.32.06-.26.28h.03c-.11.55.24.8.76.92.98-.07.23,1.08,1.05,1.19.76-.16-.12-1.59,1.1-1.43.43.06.39.57.56.88h0c.66-.19,1.32-.38,1.98-.57Z"/>
    <path class="cls-225" d="m168.48,35.31c-.89-.21-.78.58-1.1.95-.82.19-.68.63-.34,1.12.89.28,1.6-.75,2.52-.28.97.01,1.52-.57,2.01-1.24.4-.46.89-.92.14-1.48-.97.05.29-.86-.45-.91-.71.42-1.42.85-2.13,1.27.05.46-.24.56-.65.56Z"/>
    <path class="cls-256" d="m38.74,77.4c.5-.13.92-.28,1.28-.73.42-.54,1.11-.68,1.74-.13.13-.69.56-1.47-.59-1.8-.45-.06-.65.17-.74.53-.91.58-1.37-.12-1.91-.59-.56.51-1.12,1.02-1.72,1.49.21.21.42.41.63.62-.08.29.03.39.34.31.12.09.24.18.36.28.2.05.41.06.61.04Z"/>
    <path class="cls-3" d="m132.82,13.6c-.97.68.1,1.05.27,1.56.43,1.3.77.16,1.19,0,.71-.28,1.48.58,2.36-.21-.87-.43-.66-1.85-2.15-1.68-.58.02-1.06.45-1.67.34Z"/>
    <path class="cls-175" d="m178.08,9.06c-1.02.98.31,1.34.67,1.88.41.61.14.71-.37.85v-.03c.04.21.02.42,0,.64.85.29,1.69.63,2.61.7.43-.62.45-1.25.03-1.88-.3-.23-.94-.34-.41-.9-.21-.8-.96-.26-1.4-.48-.36-.07-.77-.09-.88-.53-.12-.05-.2-.13-.26-.24Z"/>
    <path class="cls-53" d="m172.98,20.94c.22-.03.44-.06.66-.09-.06-.22.02-.29.25-.21.13-.11.26-.21.4-.32-.11-.36.13-.61.28-.9.15-.27-.07-.31-.3-.29-.35-.03-.59.3-.94.27-.81-.65-1.65-.61-2.68-.07.6.88,1.43,1.29,2.33,1.62Z"/>
    <path class="cls-160" d="m63.33,67.26c-1,.04-1.92.61-2.96.35-.29.59.25,1.04.3,1.57.97-.04,1.93-.18,2.87-.43.46-.12.59-.36.54-.76-.07-.4-.34-.62-.74-.73Z"/>
    <path class="cls-75" d="m52.36,70.6c-.21-.33-.08-.91-.68-.94-.96-.04-1.28-.68-1.62-1.34-.58-.09-.87.34-1.25.61-.08.34.23.81-.35,1,.35.31.65.71,1.22.69.35-.3.4-.09.4.2.76-.08,1.52-.15,2.28-.23Z"/>
    <path class="cls-250" d="m148.9,18.4c-.4-.19-.78-.51-1.19-.54-.4-.03-1.01.08-1.07.59-.04.39.37.57.79.61,1.18.1,2.2,1.02,3.48.58-.07-.35.51-.53.3-.92-.75-.11-1.5-.21-2.25-.32h-.04Z"/>
    <path class="cls-84" d="m148.78,48.25c.38-.3.55-.72.7-1.14-.3-.31-.57-.66-.92-.91-.28-.19-.68-.4-1.02-.1-.24.21-.17.46,0,.74.56.89-.17,1.39-.75,1.93-.05.17-.02.34.07.5.12.14.27.24.44.32.19.05.37.05.56.02.08-.04.16-.09.25-.13.11-.11.22-.22.33-.32-.02-.34-.29-.76.32-.9Z"/>
    <path class="cls-89" d="m128.78,15.4c-.29.39-.62.77-.87,1.19-.34.57-.7.3-1.08.08-.41-.02-.6.15-.58.53.08.12.17.22.29.31q1.11,1.54,1.83.66c.08-.34.15-.67.23-1.01.06-.28.14-.64.49-.56.18.04.28.43.41.67.25-.18.85-.08.61-.66-.07-.46-.35-.72-.83-.81-.16-.13-.32-.26-.49-.4Z"/>
    <path class="cls-177" d="m49.32,75.77c.44.61.07,1.1-.27,1.6.54.03,1.02.42,1.59.2-.05-.51.37-.91.35-1.41-.79-.32-1.45-.7-.96-1.66-.12-.47-.55-.72-.86-1.05-.16-.12-.35-.19-.55-.21-.74.07-1.01.61-1.3,1.13-.02.2.03.38.15.54.52.47,1.31.46,1.86.87Z"/>
    <path class="cls-67" d="m169.13,14.13c-1.55-1.16-3.56-.75-5.27-1.34-.18.25-.18.5,0,.75,1.03.15,2.15,0,2.84,1.03.24.36.65.28.94-.07.39-.47,1.06-.06,1.48-.41v.03Z"/>
    <path class="cls-33" d="m110.94,63.76c.46-.03.78-.5,1.37-.25.49.21.78-.2.95-.61-.37-.33-.7-.76-1.14-.97-.56-.26-1.21-.33-1.17.59,0,.18-.08.27-.28.26-.25.41.02.69.27.98Z"/>
    <path class="cls-79" d="m124.72.87c-.32.55-.71,1.14.53.85.29-.07.58-.11.87-.16.85-.38,1.54-.34,1.85.63.23.02.35-.08.37-.3h.01c.03-.2.02-.41,0-.62,0,0-.02,0-.03,0-.3-.31-.53-.76-1.1-.67-.55.09-.58-.34-.79-.61h-.03c-.36.03-.6.35-.98.32h0c-.2,0-.32.1-.34.29-.13.09-.25.18-.38.27Z"/>
    <path class="cls-233" d="m78.74,63.67c-1.51-.01-2.98.06-4.47,1.09,1.89.33,3.16-.48,4.47-1.09Z"/>
    <path class="cls-35" d="m36.42,75.25c.02.21.04.42.06.63.1.1.2.19.31.28.29-.03.6-.13.86-.07,1.23.3,1.24-.19.82-1.02-.05-.1.02-.26.04-.4-.12-.74-.46-.52-.87-.2-.37.3-.58.83-1.22.77Z"/>
    <path class="cls-116" d="m128.28,4.34c.55-.47,1.09-.91,1.89-1.06,1.01-.19,1.07-.81.53-1.54-.09.05-.16.12-.23.19-.11.33-.35.45-.71.38-1.19-.15-1.89.31-2.05,1.43.19.2.39.4.58.6Z"/>
    <path class="cls-177" d="m50.61,73.86c.55.22,1.09.44,1.69.68-.24-1.24-.67-1.46-3.57-1.84-.09.36.32.55.32.88v-.02c.37.77,1.04.18,1.56.29Z"/>
    <path class="cls-140" d="m160.81,17.97c.03.07.05.13.08.2q.59,1.57,1.91.44c.06-.1.05-.19-.05-.27,0,0,.11-.15.11-.15,0,0,.18-.02.19-.03.3-.15.45-.38.45-.7-.87-.08-1.76.12-2.62-.17-.21.2-.2.43-.06.66Z"/>
    <path class="cls-177" d="m46.96,77.31c-.07.39.15.67.4.93.05.21-.03.28-.25.2-.29.47-.58.93-.86,1.4,1.01-.14,2.02-.28,3.02-.43-.45-.42-.82-.89-.9-1.5-.65.17-1.01-.25-1.42-.6Z"/>
    <path class="cls-143" d="m18.82,65.77l-.61-.58c.37-.62,1.76.37,1.62-.93q-2.18-.23-3,1.45c.66.02,1.32.04,1.99.06Z"/>
    <path class="cls-64" d="m15.88,65.42c.18-1.13-.54-1.42-1.55-1.6-.99-.18-.87.53-1.08.99.8.52,1.82.16,2.64.6Z"/>
    <path class="cls-42" d="m133.27,9.63c.43-.22.86-.43,1.29-.65-.63-.68-1.49-.88-2.4-.99q0,1.19,1.1,1.64Z"/>
    <path class="cls-92" d="m154.95,12.98c1.15.26,2.21-.12,3.28-.42l.05-.21c-.78-.6-1.78-.31-2.65-.58-.37.33-.6.73-.68,1.21Z"/>
    <path class="cls-107" d="m26.45,64.98c-.02.18-.03.36-.05.55.13.12.26.25.39.37.75.14,1.2-.63,1.92-.57h.02c.22-.03.44-.03.66-.04,0,0-.01-.01-.01-.01.39-.43.6-.81-.23-1-.35-.08-.7-.16-1.05-.23h-.03c-.55.04-.77.66-1.33.66-.08.11-.18.2-.29.28Z"/>
    <path class="cls-137" d="m150,12.01c.55-.1,1.11-.19,1.66-.29v.02c-1.14-.93-2.48-.68-3.86-.4.74.22,1.48.44,2.22.66h-.02Z"/>
    <path class="cls-256" d="m43.04,79.01c.66-.44.8-1.21,1.27-1.77-.08-.12-.16-.24-.23-.36-.67.36-1.34-.18-2.01,0,1.08.59.53,1.39.31,2.15.22,0,.44,0,.67-.01Z"/>
    <path class="cls-134" d="m160.94,8.82c-.66-.19-1.21-.54-1.7-.98-.64-.58-.66.09-.88.36.07.03.18.05.2.1.43,1.1.43,1.11,2,.75.14-.03.25-.15.38-.23Z"/>
    <path class="cls-144" d="m95.26,64.11c.32-.41-.06-.78-.02-1.18.04-.36-.14-.69-.57-.78-.13-.03-.4.04-.41.08-.05.6-.1,1.2-.05,1.8,0,.05.68.05,1.05.07Z"/>
    <path class="cls-221" d="m122.48,2.3c-.42-.24-.55-.64-.7-1.04l.04-.02c-.85.2-1.83.25-1.72,1.44-.01.12-.07.22-.18.29.05.13.12.24.2.35.34-.23.69-.42,1.13-.28.26-.08.46-.3.76-.28.16-.15.32-.31.48-.46Z"/>
    <path class="cls-213" d="m40.43,75.27c.25-.18.49-.35.74-.53-.34-.67-.42-1.48-1.21-1.9-.9.99.43,1.6.47,2.43Z"/>
    <path class="cls-186" d="m29.85,74.09c.47-.8,1.09-1.33.44-1.94-.4-.37-1.18.3-.93.8.15.3.27.62.5,1.14Z"/>
    <path class="cls-157" d="m116.8,55.1c1.04.11,1.83-.29,2.84-1.17-1.38.06-2.2.4-2.84,1.17Z"/>
    <path class="cls-223" d="m163.84,38.9c.11-.1.22-.21.33-.31.19-.13.36-.27.56-.38.3-.17.48-.37.2-.67-.15-.17-.4-.3-.61-.17-.51.3-.99.65-1.47.97.23.44.68.4,1,.57Z"/>
    <path class="cls-139" d="m166.1,38.65c.08.31.15.61.23.92.44.17.68-.26,1.04-.3.36-.36.86-.44,1.32-.6.05-.08.1-.16.15-.24.04-.29-.04-.53-.28-.72-.38-.13-.75.02-1.12.07-.29.02-.54.12-.76.29-.19.2-.38.39-.57.59Z"/>
    <path class="cls-133" d="m86.31,64.96c-.63.13-.59.56-.5.99.07.34-.28.98.5.89.66-.07.47-.59.38-.99-.07-.31.09-.71-.38-.88Z"/>
    <path class="cls-246" d="m68.15,66.91c.65.72,1.26.82,1.96.74q-.52-.93-1.96-.74Z"/>
    <path class="cls-101" d="m63.33,67.26c.25.24.49.49.74.73.46-.55,1.65.56,1.64-.4-.01-1.18-1.05-.52-1.71-.42-.22.03-.45.06-.67.09Z"/>
    <path class="cls-169" d="m183.92,11.57c-.12.06-.2.14-.27.25-.09.55-.67,1.02-.29,1.63.82.32,1.43.33,1.33-.76-.03-.35,0-.7,0-1.04,0,0-.03-.19-.03-.19-.07-.19-.21-.29-.43-.3-.2.08-.3.22-.31.42Z"/>
    <path class="cls-233" d="m159.9,12.83c-.1-.12-.2-.24-.3-.36-.42-.24-.87-.22-1.32-.12,0,0-.05.2-.05.21.12.31-.15.5-.24.75-.19.56.26.6.6.45.49-.22.57-.99,1.31-.93Z"/>
    <path class="cls-39" d="m146.05,50.65c.4-.36.95-.41,1.44-.57.1-.04.2-.08.31-.12.02-.1.03-.21.05-.31-.09-.06-.18-.12-.28-.17l-.54-.41c-.53,0-1.1-.06-1.2.64-.16.36-.02.66.22.94Z"/>
    <path class="cls-68" d="m69.66,71.76c1.15.17,1.8-.07,2.58-.38q-1.17-.41-2.58.38Z"/>
    <path class="cls-56" d="m84.13,62.11c-.79-.36-1.38-.14-1.89.29-.03.03.07.29.18.36.91.57,1.11-.51,1.71-.65Z"/>
    <path class="cls-231" d="m12.75,73.68c.14.59-.42.84-.68,1.24.04.17.14.27.33.28.82-.1.9-.85,1.29-1.31.14-.17.07-.43-.15-.51-.31-.1-.55.12-.79.28v.02Z"/>
    <path class="cls-176" d="m26.54,76.96c.07-.07.14-.11.18-.17.23-.38,1.07-.5.6-1.15-.09-.13-.49-.22-.62-.14-.64.41-.56.92-.16,1.46Z"/>
    <path class="cls-88" d="m183.36,13.45c.04-.55,1.13-.95.29-1.63l.04.02c-.24.03-.47.02-.7-.01l.04-.02c-.71.19-.65.74-.69,1.24,0,0,.02.08.02.08.28.27.62.34,1,.32Z"/>
    <path class="cls-141" d="m154.17,20.36c.38.15.72,0,1.07-.11.28-.09.59-.2.56-.54-.05-.53-.43-.66-.94-.59-.65.21-.66.73-.7,1.24Z"/>
    <path class="cls-264" d="m141.83,50.83c.68.27.97-.23,1.31-.6-.15-.3-.12-.79-.51-.84-.61-.07-.57.47-.65.84-.05.2-.1.39-.15.59Z"/>
    <path class="cls-187" d="m154.05,6.54c-.44-.03-.88-.07-1.32-.1.18.41.09.99.75,1.12.59.12.71-.32.88-.69.01-.14-.03-.24-.13-.29-.1-.05-.16-.06-.19-.04h0Z"/>
    <path class="cls-20" d="m144.8,19.27c.31.18.68.26.99-.05.18-.18.09-.41-.13-.52-.27-.14-.59-.17-.86,0-.23.15-.22.35,0,.57Z"/>
    <path class="cls-148" d="m88.96,67.52c.5.38.91.16,1.29-.07.06-.03.04-.31-.02-.35-.37-.21-.78-.48-1.2-.14-.12.09-.05.38-.07.56Z"/>
    <path class="cls-51" d="m129.28,8.36c-.66-.13-1,.28-1.34.69.12.07.23.16.36.22.4.18.86.32,1.2-.03.3-.32-.39-.53-.22-.88Z"/>
    <path class="cls-110" d="m25.02,75.22c-.58-.47-1.03-.69-1.52-.21-.07.07-.09.33-.05.34.48.22.97.4,1.57-.13Z"/>
    <path class="cls-225" d="m22.8,69.9c.61.46,1.21.55,1.96.03-.74-.39-1.36-.22-1.96-.03Z"/>
    <path class="cls-43" d="m11.63,70.99c.28-.33.23-.63-.12-.87-.18-.13-.41-.22-.57.01-.23.33-.1.66.14.93.18.19.38.11.54-.06Z"/>
    <path class="cls-240" d="m35.16,77.1c-.12-.11-.23-.23-.35-.34-.43.16-.91.3-.77.88.05.22.22.42.46.38.54-.08.77-.41.67-.92Z"/>
    <path class="cls-131" d="m73.42,71.36c.3.18.59.17.75-.13.08-.16.08-.51-.02-.57-.28-.16-.59-.02-.81.17-.2.18-.08.37.09.52Z"/>
    <path class="cls-115" d="m132.82,13.6c.73.65,1.2.15,1.67-.34-.69-.47-1.19-.11-1.67.34Z"/>
    <path class="cls-258" d="m136.88,17.47c-.18.17-.19.37-.06.56.26.36.6.39.96.14.17-.11.41-.32.11-.47-.3-.15-.67-.16-1.01-.23Z"/>
    <path class="cls-18" d="m58.09,65.43c-.14-.04-.28-.11-.42-.12-.37-.03-.77-.07-.87.39-.02.1.09.27.19.33.37.2.7.15.92-.23.07-.12.12-.25.18-.38v.02Z"/>
    <path class="cls-188" d="m55.61,76.15c-.49-.2-.98-.68-1.48-.04-.06.07-.01.31.07.37.66.52,1.02.03,1.4-.38v.04Z"/>
    <path class="cls-222" d="m151.2,18.71c-.22.28-.43.55-.3.92.43-.42,1.14.04,1.6-.42-.33-.45-.8-.52-1.31-.51Z"/>
    <path class="cls-113" d="m159.35,22.42c.15.05.47.29.71.06.26-.24.15-.55-.21-.67-.26-.09-.58-.33-.8.02-.12.18-.06.41.31.58Z"/>
    <path class="cls-85" d="m124.49,58.04c.13-.1.27-.2.4-.29-.05-.14-.1-.27-.14-.41-.13-.4-.3-1.01-.82-.72-.42.24-.06.76.27,1.09.11.1.19.22.29.33Z"/>
    <path class="cls-218" d="m97.84,57.95c.19-.16.36-.37.18-.54-.25-.24-.57-.1-.84.04-.2.11-.47.31-.32.49.28.33.67.16.98,0Z"/>
    <path class="cls-2" d="m6.52,71.43c-.21.2-.43.4-.64.6.1.33-.38.77-.04.94.46.23.66-.36,1-.56-.11-.33-.21-.66-.32-.98Z"/>
    <path class="cls-69" d="m89.73,61.76c-.12-.52-.44-.86-1.14-1.06.22.62.51.97,1.14,1.06Z"/>
    <path class="cls-159" d="m167.99,22.05c.14-.02.33,0,.4-.08.26-.27.35-.64.23-.96-.09-.24-.38-.09-.49.06-.23.29-.3.63-.14.98Z"/>
    <path class="cls-133" d="m88.26,64.64c.04-.12.13-.3.1-.32-.32-.21-.68-.18-1.03-.06-.06.02-.11.26-.07.29.3.26.65.22,1,.09Z"/>
    <path class="cls-152" d="m151.46,16.7c.16,0,.38.03.56-.04.21-.09.27-.31.11-.49-.16-.18-.39-.16-.57-.01-.16.13-.29.28-.09.54Z"/>
    <path class="cls-122" d="m60.24,76.26c-.58-.3-1.11-.2-1.63.13.62.77,1.12.28,1.63-.13Z"/>
    <path class="cls-181" d="m64.59,72.45c-.16.3-.01.56.15.79.16.24.45.21.47-.04.03-.26-.14-.54-.25-.8-.01-.03-.24.03-.37.05Z"/>
    <path class="cls-36" d="m106.58,65.76c.1-.11.21-.22.31-.34-.3-.21-.54-.59-.96-.51-.37.07-.36.39-.27.68.31.05.61.11.92.16Z"/>
    <path class="cls-74" d="m144.15,18.34c.16-.26.12-.49-.11-.53-.17-.03-.42.07-.56.19-.16.15-.16.39.12.44.18.03.39-.07.55-.1Z"/>
    <path class="cls-184" d="m101.19,56.12c.73.36,1.28.26,1.41-.1.31-.81-.36-.22-.56-.23-.19-.01-.4.14-.85.33Z"/>
    <path class="cls-172" d="m81.27,69.46c-.04.1-.16.23-.13.33.06.21.26.31.47.19.09-.05.17-.24.14-.34-.06-.21-.23-.3-.48-.18Z"/>
    <path class="cls-164" d="m160.81,17.97c.02-.22.04-.44.06-.66-.23-.12-.47-.41-.74-.14-.21.21-.11.51.01.76.22.06.45.03.67.04h0Z"/>
    <path class="cls-33" d="m113.25,62.9c.43.11.7-.14.98-.37-.25-.22-.46-.62-.82-.54-.12.03-.11.59-.16.9Z"/>
    <path class="cls-245" d="m97.01,62.49c.12,0,.3.06.36,0,.3-.27.07-.48-.14-.65-.08-.07-.33-.11-.36-.07-.19.27-.02.5.14.72Z"/>
    <path class="cls-105" d="m187.29,14.08c-.22-.22-.45-.44-.67-.66-.32.1-.64.19-.96.29-.03.15,0,.25.11.31.1.06.17.08.2.06.45.18.89.15,1.33,0Z"/>
    <path class="cls-182" d="m151.43,20.93c-.04-.15-.03-.33-.1-.35-.28-.11-.56-.1-.72.19-.08.14.03.27.21.27.2,0,.4-.07.6-.1Z"/>
    <path class="cls-156" d="m23.44,71.96c.02.16,0,.35.05.37.29.12.58.1.76-.17.1-.15,0-.29-.21-.28-.21,0-.41.05-.61.08Z"/>
    <path class="cls-18" d="m59.41,65.45c-.43-.4-.87-.41-1.32-.02v-.02c.43.42.87.41,1.32.02v.02Z"/>
    <path class="cls-96" d="m13.83,67.06c-.03-.11-.03-.28-.11-.33-.2-.12-.4-.05-.45.17-.02.08.1.26.19.28.1.03.24-.07.36-.12Z"/>
    <path class="cls-206" d="m16,74.56c-.17-.07-.33-.18-.41-.15-.22.1-.26.32-.13.49.06.08.04.54.36.18.12-.13.13-.35.18-.53Z"/>
    <path class="cls-95" d="m140.36,10.74c.21,0,.48.06.63-.04.24-.16.07-.39-.14-.44-.2-.05-.44.04-.66.06.05.12.1.25.16.41Z"/>
    <path class="cls-240" d="m63.06,73.12c.22.07.43.02.5-.19.03-.09-.06-.27-.15-.32-.2-.1-.42-.02-.49.18-.03.08.09.22.15.33Z"/>
    <path class="cls-149" d="m64.14,69.61c-.13,0-.31-.03-.38.03-.19.17-.12.37.11.46.09.03.3-.06.35-.14.05-.08-.05-.23-.08-.35Z"/>
    <path class="cls-78" d="m59.41,65.43c.22.18.43.41.77.29.06-.02.11-.26.08-.29-.28-.18-.56-.1-.84.02v-.02Z"/>
    <path class="cls-42" d="m133.49,10.69c-.08-.35-.15-.69-.23-1.04-.56.47-.8.87.23,1.04Z"/>
    <path class="cls-188" d="m34.6,73.63c.01.11-.02.27.04.32.2.15.41.09.55-.1.04-.05.06-.18.03-.2-.19-.14-.41-.14-.62-.03Z"/>
    <path class="cls-176" d="m25.97,77.46c.14.02.32.1.42.05.11-.05.22-.24.2-.35-.08-.47-.31-.03-.46-.03-.19,0-.24.16-.16.33Z"/>
    <path class="cls-9" d="m90.86,60.95c.13-.06.33-.09.36-.17.04-.1-.04-.29-.13-.36-.15-.12-.32-.05-.34.14-.01.13.07.26.11.39Z"/>
    <path class="cls-251" d="m9.07,69.39c.13-.04.3-.04.37-.12.17-.2.07-.36-.19-.37-.12,0-.24.1-.37.15.06.11.12.22.18.34Z"/>
    <path class="cls-129" d="m112.31,56.94c-.01-.11.01-.27-.05-.31-.18-.11-.4-.09-.49.12-.03.07.08.27.17.3.09.03.24-.06.36-.1Z"/>
    <path class="cls-137" d="m151.66,11.72c.32.15.64.27.95,0,.03-.02,0-.15-.05-.18-.38-.25-.64-.01-.9.21v-.02Z"/>
    <path class="cls-189" d="m163.36,20.41c-.02-.11,0-.27-.06-.31-.19-.1-.42-.1-.53.1-.03.06.1.26.2.3.1.04.26-.06.39-.09Z"/>
    <path class="cls-108" d="m164.82,16.11c.13.05.29.15.39.12.09-.03.14-.21.2-.32-.14-.04-.28-.11-.42-.1-.21,0-.26.13-.17.31Z"/>
    <path class="cls-146" d="m150.02,12.01c-.13.26-.22.53-.03.79.02.03.29,0,.31-.07.14-.31-.11-.51-.3-.72h.02Z"/>
    <path class="cls-103" d="m12.75,73.67c-.19-.14-.38-.16-.55,0-.05.05.02.19.03.28.17-.09.34-.18.51-.27v-.02Z"/>
    <path class="cls-67" d="m12.78,69.63c-.01-.06,0-.14-.04-.18-.14-.12-.25-.1-.25.06,0,.05.06.12.12.15.04.02.12-.02.18-.03Z"/>
    <path class="cls-54" d="m47.53,65.88c-.1.17-.21.34-.31.51.53.05.36-.26.31-.51h0Z"/>
    <path class="cls-35" d="m37.77,77.08c-.11-.1-.23-.2-.34-.31-.26.26-.46.54-.39.92.24-.2.48-.41.73-.61Z"/>
    <path class="cls-72" d="m31.59,72.74c.11-.05.24-.08.34-.15.03-.02,0-.12-.01-.18-.11.05-.24.09-.34.15-.03.02,0,.12.01.18Z"/>
    <path class="cls-58" d="m156.15,42.19c.2.21.4.42.6.63.19-.53,0-.75-.6-.63Z"/>
    <path class="cls-58" d="m157.78,41.96c-.2-.23-.39-.45-.59-.68-.24.55-.02.76.59.68Z"/>
    <path class="cls-58" d="m155.16,42.49c.18.1.36.2.55.31.01-.12.03-.25.04-.37-.2.02-.39.04-.59.06Z"/>
    <path class="cls-171" d="m144.07,12.24c.13-.04.26-.07.38-.13.03-.01.02-.17-.01-.19-.16-.09-.3-.04-.37.12-.03.06,0,.14,0,.21Z"/>
    <path class="cls-56" d="m81.8,62.35c-.18.06-.24.17-.12.32.02.03.15,0,.21-.03.12-.07.23-.17.35-.25-.14-.01-.29-.03-.43-.04Z"/>
    <path class="cls-56" d="m86.11,61.54c-.06.02-.14.03-.16.07-.09.15-.04.23.14.19.04,0,.09-.09.1-.14,0-.04-.05-.08-.08-.12Z"/>
    <path class="cls-42" d="m134.9,8.86c.17.16.35.32.52.49.27-.58.03-.67-.52-.49Z"/>
    <path class="cls-91" d="m173.33,19.39c.4.17.67-.04.94-.27-.4-.17-.68.02-.94.27Z"/>
    <path class="cls-41" d="m115.31,60.69c.12-.04.25-.07.36-.13.03-.01,0-.12,0-.19-.12.04-.24.07-.35.13-.03.02,0,.12,0,.18Z"/>
    <path class="cls-191" d="m156.18,17.65c.12-.05.25-.09.36-.15.03-.02,0-.13-.01-.19-.12.05-.25.09-.37.15-.03.02,0,.13.01.2Z"/>
    <polygon class="cls-183" points="148.29 20.64 148.24 20.54 148.17 20.62 148.29 20.64"/>
    <path class="cls-58" d="m157.12,43.18c.24.09.46.1.63-.11-.21.04-.42.08-.63.11Z"/>
    <path class="cls-58" d="m158.17,42.22c.09-.34-.03-.43-.36-.25.11.1.23.19.36.25Z"/>
    <path class="cls-169" d="m185.96,14.09c-.1-.12-.2-.25-.3-.37-.01.19-.03.38-.04.57.12-.07.23-.13.35-.2Z"/>
    <path class="cls-134" d="m158.29,8.2c-.19-.16-.4-.16-.61-.03.2,0,.41.02.61.03Z"/>
    <path class="cls-140" d="m160.81,17.98c-.22-.01-.45-.03-.67-.04.22.01.45.03.67.04Z"/>
    <path class="cls-256" d="m41.76,76.56c-.14.3-.06.43.3.33-.09-.11-.19-.22-.3-.33Z"/>
    <path class="cls-116" d="m127.7,3.74c-.22-.02-.44-.04-.67-.06.21.17.43.18.67.06Z"/>
    <path class="cls-116" d="m128.64,4.74c-.11-.12-.23-.24-.34-.36.04.12.06.24.13.35.02.03.14.01.22.02Z"/>
    <path class="cls-197" d="m172.75,10.2c.7.24.99-.21,1.29-.66-.4-.36-.8-.33-1.2,0,0,.2-.03.4-.07.6l-.02.06Z"/>
    <path class="cls-224" d="m157.41,67.76c-.34.49-.68.98-1.03,1.47-.06.05-.13.11-.19.16-.18.17-.33.36-.46.56-.09.13-.16.26-.24.39-.12.19-.28.35-.48.47-.15.07-.28.15-.41.24-.13.1-.23.22-.33.34-.08.13-.15.27-.2.42-.09.21-.19.41-.31.61-.09.12-.17.26-.24.39-.1.2-.2.41-.31.61-.11.21-.19.42-.06.64-.07,1.13-.42,2.34.95,3.09.6.98.93,2.1,1.71,2.98.8.21,1.55.8,2.33.43-.21.34-.85.74-.79,1.46.03.2.11.38.24.55q1.62,1.05,2.31-1.49c-.03-.17-.05-.35-.06-.53,0-.25.04-.5.15-.74.06-.16.1-.32.13-.49.04-.17.02-.34.11-.46,0,.04-.06.02-.05.06,0,.04.05.1.05.13,0,.14-.01.25-.02.38-.03.23-.15.41-.25.6-.09.23-.13.47-.09.72.09.53.54.68,1,.82.19.06.38.12.56.17.69.19,1.41.49,1.77-.44h0c0-.16-.06-.27-.18-.32-.12-.05-.19-.06-.22-.03h0c-.24.06-.47.03-.69-.07-.07-.08-.14-.15-.24-.2-.24-.77.99-.8.87-1.5.14-.71.61-.51,1.07-.33.43,0,.87.01,1.3.02-.05-.27-.22-.73-.14-.77.98-.51,1.29-1.37,1.54-2.29.02-.07.4-.06.61-.09.49.08.71-.07.54-.55-.29-.78-.2-1.48.55-2.02.46-.21.67-.79,1.3-.75,1.22-1.71,2.24-3.59,3.73-5.06.93-.91,1.29-2.3,2.61-2.83,1.04-.42-.32-1.23.5-1.76.77-.5.78-1.94,1.32-2.18.95-.42,1.2-1.24,1.89-1.75.38-.29.26-.62.04-.95-.23-.9,1.09-2.4-1.13-2.54-.21-.01-.42,0-.63,0-.21,0-.42.03-.63.07-.3.08-.6.17-.81.42.28,1.16.8,2.35-.54,3.28-.48.53-1.06.86-1.83.76-.19-.22-.22.19-.23-.06-.01-.2-.12-.18.14-.15.37.05.74-.06,1.11-.12.3-.08.58-.18.75-.44,1.62-.91.16-2.48.89-3.58.17-.09.33-.21.45-.36.26-.38.46-.78.65-1.19.06-.16.07-.32.05-.49-.07-.13-.17-.25-.29-.34-.18-.18-.13-.34.07-.48.29-.17.61-.18.94-.16.19.02.37.02.56,0,.19-.05.36-.13.51-.25.13-.14.21-.31.24-.49-.05-.18-.16-.33-.31-.46-.34-.2-.72-.31-1.11-.38-.29-.05-.59-.04-.88,0-.67.24-1.31-.35-1.98-.06-.53.26-.95.63-1.07,1.2-.16.77-.39.12-.6.03-.15-.11-.31-.18-.49-.21-.24-.01-.5,0-.65-.24-.09-.61.53-1.4-.27-1.79-.89-.43-1.81-.23-2.54.49-.16.13-.32.26-.49.38-.36.23-.66.52-.97.79-.43.44-.96.8-1.32,1.3.18.77.26,1.44-.61,2.01-.83.55-1.17,1.43-1.6,2.32-.74,1.54-1.88,2.95-3.17,4.19-.2-.02-.36.05-.5.19-.27.36-.53.72-.85,1.04-.13.13-.24.28-.35.43-.32.56-.69,1.08-1.09,1.59-.11.16-.21.32-.3.49-.31.79-1.21,1.36-1,2.34v.03c.02.21-.09.31-.31.33h0Z"/>
    <path class="cls-163" d="m177.69,53.55c-.31.35-.77.61-.72,1.16.48.2.89.47,1.08.97.59-.02.98.18,1.33.68.5.71-.43.67-.53,1.05-.24.89.58.22.77.47.19-.66.63-1.05,1.37-1.2.69-.14.96-.59.87-1.24-.11-.13-.25-.17-.42-.13-.17-.11-.16-.18.04-.24.28-.39.4-.78.1-1.2-.3-.27-.65-.45-1.04-.58-.3-.08-.59-.07-.87.08-.27.41-.51.88-1.12.34-.27-.14-.55-.22-.85-.14Z"/>
    <path class="cls-8" d="m181.03,55.43c.27,0,.55,0,.82,0,.32-.31.33-.78.73-1.07,1.29-.95,1.38-2.18.83-3.52-.03-.1-.05-.2-.08-.3-1.4-.88-1.61.31-2.09,1.04-.18.44-.38.87-.58,1.31-.06.18-.07.36-.01.55.17.23.35.45.69.46.19.56-.16,1.04-.31,1.54h0Z"/>
    <path class="cls-123" d="m173.15,72.22c-.23-1.53,1.19-2.11,2-3.05h.02c.05-.39.36-.6.65-.83.15-.12.27-.26.37-.42.23-.41.55-.77.69-1.22,0-.09-.02-.19-.02-.28-.02-.21.05-.49-.07-.62-.41-.44-.69.06-.83.24-1.31,1.66-2.67,3.29-3.59,5.17-.23.46-.47.89-.82,1.27-.03.2.03.37.16.53.09.05.17.11.26.16.21.05.41.03.61-.04.38-.21.63-.49.58-.94h0Z"/>
    <path class="cls-59" d="m183.41,50.83c.42.55.86.68,1.32.04.05-.56.48-.81.98-.97l.15-.12.14-.13c.34-1.3.31-2.34-1.64-2.1q-2.84.92-.96,3.32v-.04Z"/>
    <path class="cls-62" d="m186.01,52.73c.11-.1.23-.2.34-.3-.09-.57.31-.88.71-1.19.1-.11.2-.22.31-.33.21,0,.35-.08.42-.27-.02-.18-.13-.32-.29-.42-.43-.09-.62.35-1,.38-.12.72-1.47,1.2-.48,2.14Z"/>
    <path class="cls-147" d="m184,55.79l.1-.17.16-.13c.03-.35.42-.58.35-.96l-.04.04c-.98-.14-1.26.41-1.31,1.17,0,.15.05.27.16.35.11.08.17.12.19.1.24-.03.37-.17.39-.39Z"/>
    <path class="cls-55" d="m169.52,72.4c-1.07-.71-1.06.22-1.3.75.68.12.99-.32,1.3-.75Z"/>
    <path class="cls-106" d="m186.49,50.6c.39.11.64-.12.91-.31.26.03.35-.07.29-.3h0c-.94-.72-.88.26-1.2.61Z"/>
    <path class="cls-208" d="m185.62,53.05c-.22,0-.46-.03-.65.04-.22.08-.32.3-.17.51.03.04.3-.02.39-.09.17-.14.29-.32.43-.49v.03Z"/>
    <path class="cls-73" d="m180.35,59.72c.19.17.39.35.58.52.08.03.17.07.25.1.06-.06.12-.13.18-.19.05-.16.06-.33.04-.5-.03-.08-.07-.16-.1-.24-.43-.21-.7.02-.95.3Z"/>
    <path class="cls-82" d="m182.64,57.59c.22-.2.45-.39.67-.59h0c-.01-.1-.03-.19-.04-.28-.09-.01-.19-.03-.29-.04-.34.23-.59.49-.35.91Z"/>
    <path class="cls-196" d="m183.6,56.03c-.11-.1-.22-.2-.33-.29-.27.27-.52.54-.27.94h-.02c.44-.03.67-.22.62-.65Z"/>
    <path class="cls-65" d="m82.65,76.45c.3-.22.61-.36,1-.24h0c.29,0,.53-.16.81-.2.18-.01.35-.04.53-.07.17-.02.34-.05.51-.07.17-.02.33-.06.5-.1.25-.07.49-.14.73-.22.17-.06.32-.13.47-.23.22-.16.37-.36.46-.6,0-.08,0-.17,0-.25-.39-.29-.74-.84-1.34-.5-1.58.89-3.51.79-5.1,1.63.25.62.72.92,1.44.85Z"/>
    <path class="cls-174" d="m92.63,72.23c-1.1.32-2.22.59-3.31.96-.69.24-1.44.5-1.68,1.28,0,0,0-.05,0-.05,0,.4.22.61.66.6h-.03c.3.05.57-.12.87-.11.2.01.39-.03.57-.11.49-.33,1.04-.48,1.62-.57.2-.05.38-.12.55-.22.2-.21.39-.42.72-.45h-.02c.27.03.47-.06.62-.27.27-.57-.11-.83-.57-1.06Z"/>
    <path class="cls-32" d="m103.91,68.74c-.56.11-1.51-.28-1.64.22-.27,1.13-2.46.41-2.04,1.99.07.03.14.06.21.1.15-.04.3-.08.45-.12h-.02c.56-.08,1.06-.52,1.68-.28h-.02c.78,0,1.06-.59,1.46-1.05.12-.3.11-.59-.09-.86Z"/>
    <path class="cls-15" d="m95.58,72.7c.61-.51,1.56-.61,2.07-1.47-1.19-.32-2.14-.07-3.01.56-.03.2.02.38.12.56.14.15.31.27.5.34.11,0,.21,0,.32,0Z"/>
    <path class="cls-226" d="m94.96,72.25c-.11-.15-.21-.3-.32-.45-.67.14-1.34.29-2.01.43.2.32.47.62.32,1.04,0,.17.06.26.18.27.1,0,.17,0,.21-.05.08-.09.17-.14.29-.17.22,0,.43-.02.65-.03h-.02c.76-.04.83-.49.72-1.04Z"/>
    <path class="cls-173" d="m103.91,68.74c-.02.22-.05.44-.07.66.72.12,1.1-.26,1.36-.81,0-.11,0-.22.01-.33-.61-.26-1.16-.37-1.3.48Z"/>
    <path class="cls-49" d="m105.89,68.92c.35-.3.8-.55.62-1.11-.43.15-.87.3-1.3.45,0,0,.02-.03.02-.03,0,.4.25.61.66.68Z"/>
    <path class="cls-202" d="m116.52,65.36c.48-.49.7-1.07.72-1.74-.87-.43-1.64.35-2.48.09-1.21-.37-.59.65-.83,1.02-.06.32.12.51.39.65.3.06.58-.05.86-.1h0c.36.07.71.23,1.09.19.08-.04.17-.08.25-.12Z"/>
    <path class="cls-93" d="m114.48,65.26c-.18-.18-.36-.35-.54-.53-.37.11-.76.19-1.14.05-.83-.32-1.12.14-1.3.77v.04c.09.44-.43.49-.58.77-.07.17-.1.34-.1.51.05.08.09.15.14.23.08.05.16.1.24.14.19,0,.38,0,.57,0,.09-.02.18-.05.27-.07.07-.05.15-.1.22-.15.06-.06.12-.12.19-.18.18-.16.35-.34.61-.4.08-.01.16-.03.25-.05.08-.02.17-.04.25-.05.08-.04.15-.07.23-.11.05-.06.1-.13.15-.19.16-.07-.24-.41.2-.35.08-.02.16-.04.25-.06.15-.11.18-.24.09-.4Z"/>
    <path class="cls-102" d="m125.71,59.87l-.12-.15c-.26-.12-.53-.13-.8-.02-.03.1-.1.15-.21.18-.08.38-.31.62-.73.67,0,0,0,.03,0,.03-.22.18-.45.37-.67.55v-.05c1.2.65,2.03.25,2.52-1.21Z"/>
    <path class="cls-198" d="m123.19,61.13c-1.1-.42-1.68-.11-1.77,1.28.87-.33,1.42-.7,1.77-1.33v.05Z"/>
    <path class="cls-252" d="m120.81,63.23c-.41-.64-.93-.85-1.61-.31v-.04c.32.3.65.59.98.89l-.02.03c.44.02.65-.18.66-.58h0Z"/>
    <path class="cls-234" d="m119.2,62.92c-.07-.03-.13-.09-.2-.1-.4-.03-.8-.53-1.19-.02-.06.08-.01.31.07.38.58.48.94.04,1.32-.3v.04Z"/>
    <path class="cls-19" d="m170.13,50.69c.61-.68,1.42-.66,2.27-.55.19.82-.71,1.56-.25,2.41.56.02.76-.65,1.34-.6h-.03c.97.16,1.34-1.01,2.3-.88.66.18,1.31,1.16,2,.04.03-.18-.01-.34-.11-.5-.28-.33-.71-.49-.98-.82-.22-.3-.09-.6.02-.91.33-.71.84-1.36.64-2.19-.1-.35-.28-.67-.43-1-.07-.16-.15-.32-.24-.47-.15-.22-.33-.42-.55-.58-.15-.1-.32-.18-.5-.23-.28-.05-.55-.03-.8.13-1.31.87-1.86,2.3-2.88,3.39-.34,1.07-2.58,1.05-1.82,2.75Z"/>
    <path class="cls-207" d="m170.13,50.69c0-1.26,1.73-1.53,1.82-2.75-.91.55-2.56.29-2.5,1.98,0,.2-.78.38-1.12.64-.74.56-1.2,1.28-1.16,2.21.64-.16,1.26-.35,1.67-.88.1-.56.54-.83,1.06-1.01l.11-.11.12-.09Z"/>
    <path class="cls-192" d="m174.83,44.56c.26.01.52.02.77.03.59-.79.03-1.03-.66-1.22-.11-.02-.19-.07-.24-.16-.51-.18-.69.04-.71.48,0,0,.02-.02.02-.02.27.3.54.6.82.89Z"/>
    <path class="cls-162" d="m72.05,78.74c.12-.08.24-.14.38-.18.17-.21.51-.49.22-.69-.38-.27-.92-.17-1.32.04-.49.26-.2.58.07.85.21,0,.43-.01.64-.02Z"/>
    <path class="cls-114" d="m64.84,79.81c.1-.07.21-.11.32-.13.21-.02.42-.04.62-.07,0,0-.01-.04-.01-.04.13-.16.26-.32.38-.48-.63-.35-1.3-.42-1.79.14-.25.28.23.43.47.58Z"/>
    <path class="cls-158" d="m76.01,76.99c-.59.15-1.28.28-.31.9,0,0-.03.03-.03.03.71-.08.92-.36.41-.91h-.07Z"/>
    <path class="cls-224" d="m61.11,79.3c.06.12.08.27.17.34.06.05.21,0,.33-.01-.05-.11-.07-.25-.16-.32-.07-.05-.22,0-.33,0Z"/>
    <path class="cls-224" d="m59.84,79.53c.1.16.21.19.32.08-.04-.03-.07-.08-.11-.08-.07,0-.15.03-.22.04,0,0,0-.04,0-.04Z"/>
    <path class="cls-248" d="m191.91,12.23c-.23-.15-.46-.31-.69-.46-.06.08-.13.15-.21.21-.25.18-.51-.04-.76,0h.03c-.26-.01-.38.09-.32.33.36.39.34.77,0,1.15.25.94.92.74,1.55.45.82-.38,1.01-.97.41-1.68Z"/>
    <path class="cls-201" d="m121.78,9.13c.32.13.58.05.76-.23.12-.19.17-.42-.08-.54-.31-.15-.58-.02-.75.24-.11.17-.22.38.07.53Z"/>
    <path class="cls-45" d="m122.97,11.04c.22-.27.55-.52.1-.85-.05-.03-.17-.03-.22,0-.45.34-.1.59.12.85h0Z"/>
    <path class="cls-228" d="m118.38,8.53c.27.18.43.67.88.27.08-.07.1-.29.04-.37-.34-.43-.63-.13-.92.09h0Z"/>
    <path class="cls-224" d="m125.25,13.29c-.07.08-.13.16-.19.25-.12.15-.13.25-.04.31.11.06.18.08.22.04.24.1.47.16.69-.04-.22-.19-.45-.37-.67-.55Z"/>
    <path class="cls-236" d="m35.05,64.44c-.21,0-.41,0-.62,0,.15.17.24.46.57.33.06-.02.03-.22.05-.34Z"/>
    <path class="cls-224" d="m35.61,66.33c.16-.13.17-.23.03-.29,0,0-.1.09-.1.12.01.06.07.12.11.17h-.05Z"/>
    <path class="cls-237" d="m138.12,55.44c.26-.33.49-.71.8-.99.32-.29.5-.6.11-.84-.39-.25-.66.07-.87.4-.19.3-.45.56-.67.84h0c.02.37.2.6.64.59h0Z"/>
    <path class="cls-119" d="m133.52,57.33c.04-.13.11-.25.21-.35,0-.86-.66-.69-1.23-.66h0c0,.41-.02.83-.02,1.24.02.08.04.16.06.25.09,0,.18.01.27.02h-.02c.39.03.6-.17.73-.49Z"/>
    <path class="cls-145" d="m132.48,57.56c-.36-.21-.79-.62-1.13-.12-.33.48.02.92.46,1.25h-.02c.65-.17.57-.71.68-1.16v.03Z"/>
    <path class="cls-224" d="m51.14,65.01c.02-.06.08-.16.06-.17-.11-.07-.12,0-.02.16h-.04Z"/>
    <polygon class="cls-209" points="52.1 64.34 52.16 64.48 52.26 64.37 52.1 64.34"/>
    <path class="cls-224" d="m51.19,65.01c-.18.2-.16.41,0,.62h-.05c.12-.11.24-.22.37-.33v.05c-.12-.11-.23-.22-.35-.34h.04Z"/>
    <path class="cls-224" d="m51.49,65.3c.07.17.33.22.34.13.04-.47-.2-.13-.34-.08v-.05Z"/>
    <path class="cls-224" d="m73.96,60.74c.22-.24.43-.48.73-.82-.63.13-.67.47-.69.82,0,0-.04,0-.04,0Z"/>
    <path class="cls-169" d="m182.33,13.05c.23-.41.46-.83.69-1.24-.33-.3-.66-.6-.99-.91-.74.82-.44,1.51.3,2.15Z"/>
    <path class="cls-118" d="m183.92,11.57c.12-.1.25-.2.37-.29.25,0,.38-.12.39-.35l-.02.04c-.2-.46-.41-1.09-1.07-.69-.89.55.19.86.33,1.3Z"/>
    <path class="cls-169" d="m182.99,11.82c.23,0,.47,0,.7.01-.23-.16-.47-.17-.7-.01Z"/>
    <path class="cls-94" d="m152.39,48.6c-.48-.87-1.14-1.32-2.22-.83-.59.27-.78.76-.51,1.23.32.55.74.15,1.13-.07.16-.09.42-.03.64-.04h0c.22-.01.45,0,.67-.01h-.01c.23.03.34-.07.32-.28h-.02Z"/>
    <path class="cls-58" d="m155.81,44.37c.03-.14.09-.26.19-.37.09-.14.1-.23,0-.26-.1-.03-.16-.04-.2,0-.28-.24-.58-.43-.99-.3.02.41-.13.81-.03,1.22.4.07.72-.06,1.03-.28Z"/>
    <path class="cls-13" d="m154.79,44.65c.42-.4.49-.8.03-1.22-.46.28-.39.81-.63,1.2.19.18.39.13.59.02Z"/>
    <path class="cls-217" d="m148.78,48.25c-1,.02-.72.45-.32.9.33-.23.28-.58.32-.9Z"/>
    <path class="cls-138" d="m155.78,46.18c-.68-.26-.92-.08-.68.59h-.02c.42,0,.63-.2.69-.57v-.02Z"/>
    <path class="cls-224" d="m133.67,2.63c-.2.22-.83-.03-.71.55.16.14.33.27.49.41.12-.08.23-.15.34-.24.24-.18.86.23.79-.34-.05-.39-.62-.22-.92-.38Z"/>
    <path class="cls-99" d="m163.2,81.3c-.7.74-1.35-.22-2.04-.06-.02.45,0-.04-.02,0-.45-.17-.96-.24-1.31-.61h.02c0,.77-1.42,1.07-.75,2.14.15.24-.35.13-.51-.1-.19-.26-.44-.35-.76-.23-2.05.04-.59,1.07-.56,1.7.21.27.49.44.86.45,1.33-1.07,1.04.63,1.64.82.22-.22.44-.44.38-.78-.06-.22-.12-.44.28-.35.37.25.73.52,1.31.38.19-.76-.92-.51-.99-1.04.75-.84,2.21-1.05,2.46-2.34Z"/>
    <path class="cls-99" d="m162.76,79.18c-.27.21-.52.45-.83.61-.58.3-.42.58-.05.89.21-.54,1.1-.74.87-1.5Z"/>
    <path class="cls-99" d="m162.81,80.95c.13.12.27.24.4.35.16-.15.33-.29.46-.46.14-.17.26-.42.05-.56-.38-.25-.46.16-.64.33-.1.1-.18.22-.27.34Z"/>
    <path class="cls-212" d="m165.38,81.65c-.33-.14-.75-.29-.91.1-.15.38.33.51.6.69v.03c.22.08.31,0,.26-.23l.03.04c.07-.21.06-.43.04-.65l-.02.03Z"/>
    <path class="cls-97" d="m160.43,84.31c-.18-.11-.33-.3-.59-.18.11.18.21.35.32.53.09-.12.18-.23.28-.35Z"/>
    <path class="cls-99" d="m162.12,80.89c.21.18.44.2.69.07-.23-.02-.46-.05-.69-.07Z"/>
    <path class="cls-50" d="m79.68,76.16c-.14.39.03.69.32.95h.02c.39-.05.63-.24.65-.62-.22-.18-.45-.37-.67-.55-.1.08-.2.16-.32.22Z"/>
    <path class="cls-219" d="m204.49,25.65c-.22-.17-.44-.44-.73-.12-.3.33-.56.68-.84,1.02.28.94.93.91,1.7.55.21-.17.25-.38.12-.61-.09-.08-.14-.18-.15-.29-.03-.19-.05-.38-.07-.58l-.04.02Z"/>
    <path class="cls-168" d="m1.29,68.83c.22.01.45.02.67.03.35-.8-.13-1.37-.64-1.93-.1-.26-.22-.5-.6-.36l-.63.41c-.1.22-.1.44-.08.67v-.02c.43.39.85.79,1.28,1.18Z"/>
    <path class="cls-230" d="m137.96,22.93c.22,0,.45,0,.67,0l.16-.13.14-.14c.29-.03.42-.18.39-.45-.47.21-1.52-.51-1.37.72Z"/>
    <path class="cls-40" d="m139.33,22.21c-.13.15-.26.3-.39.45.23.14.45.28.68.43.24-.15.58-.29.45-.61-.11-.28-.41-.37-.74-.26Z"/>
    <path class="cls-232" d="m119.25,12.51c-.09.11-.18.21-.27.32.14.55-.15.68-.67.6.46,1.14,1.76,1.82,1.94,3.11.56-.07,1.11-.13,1.67-.2,0-.39-.19-.63-.62-.68-.58-1.13-1.62-2.07-1.64-3.43-.13.09-.27.19-.4.28Z"/>
    <polygon class="cls-86" points="117.58 15.04 117.71 14.99 117.6 14.91 117.58 15.04"/>
    <path class="cls-247" d="m117,13.42c.1,0,.2,0,.31,0-.04-.02-.08-.07-.12-.07-.06,0-.12.04-.19.06h0Z"/>
    <path class="cls-214" d="m5.99,64.04c-.03-.14-.11-.25-.23-.33-.28-.11-.62.02-.88-.17-.45-.62-1.02-.02-1.52-.12-.27.24-.55.47-.82.71.15.04.31.08.46.12.21.04.43.08.64.12.14.05.28.13.39.23.27.31.32,1.07,1.03.41.33-.31.86-.44.93-.96Z"/>
    <path class="cls-224" d="m158.39,25.01c.12-.1.24-.19.36-.29l-.41-.11c.02.13.03.26.05.39Z"/>
    <path class="cls-224" d="m158.7,24.73c.24.17.48.19.72,0-.24-.08-.48-.15-.72,0Z"/>
    <path class="cls-224" d="m159.35,24.72c.11.1.22.19.34.28-.05-.09-.08-.19-.15-.26-.03-.03-.12-.02-.19-.02Z"/>
    <path class="cls-109" d="m158.14,84.61c-.24-.25-.48-.5-.72-.75-.7-.5-.98-1.63-2.14-1.42-.84.15-.94.85-.91,1.54.05.09.1.18.14.27.11.08.22.16.31.25.42.08.65.33.76.7.08.1.14.2.19.32.35.08.69.16,1.04.24.44-.39.89-.77,1.33-1.16Z"/>
    <path class="cls-257" d="m157.1,87.36c.33-.1.65-.2.98-.29,0,0,.06-.2.06-.2-.03-.14-.12-.26-.24-.35-.13-.08-.28-.11-.44-.08-.62.15-1,.37-.35.93Z"/>
    <path class="cls-99" d="m157.53,82.14c.52-.45.63-1.11.96-1.69-.92-.09-1.61-.86-2.59-.54,0,0-.22,0-.22,0-.12.06-.21.05-.26,0-.06-.07-.08-.12-.06-.14-.16-.11-.32-.14-.51-.12-.53.53-.7,1.2-.8,1.89.34.2.75.2,1.13.29.78.13,1.57.18,2.35.32Z"/>
    <path class="cls-142" d="m155.57,80.27c.11-.12.22-.25.34-.37-.42-1.02-.21-2.39-1.79-2.76-.36.42-.72.84-1.07,1.26.14.22.14.65.52.57.69-.15.96.29,1.3.66.23.21.47.42.7.64h0Z"/>
    <path class="cls-142" d="m155.24,81.23c-.47-.16-.82.08-1.18.29-.22.28-.44.57-.66.85,0,0-.04,0-.04,0-.01.1-.03.2-.04.31.1.05.19.1.29.16,1.18.02,1.43-.77,1.64-1.61Z"/>
    <path class="cls-220" d="m121.29,15.65c.21.23.41.45.62.68-.09.66-.13,1.3.61,1.7.21-.38.43-.76.64-1.15-.11-.4.15-.67.4-.93-.22-.19-.45-.38-.67-.57-.4.06-.69-.14-.98-.35-.21.21-.42.41-.63.62Z"/>
    <path class="cls-220" d="m125.87,15.16c-.11-.11-.22-.22-.33-.32-.33.28-.66.55-.99.83-.22.21-.43,0-.65,0-.12.1-.23.2-.35.3.51.57,1.12.93,1.96.78.06-.07.12-.14.19-.22.26-.43.16-.9.18-1.35Z"/>
    <path class="cls-10" d="m125.23,13.89c-.02-.13-.08-.25-.18-.35-.06.03-.13.06-.19.1-.35.23-.82.41-.57.94.04.08.26.15.36.13.43-.11.42-.52.58-.82Z"/>
    <path class="cls-17" d="m128.37,18.18c-.4.36-.77.44-1.04-.11-.16-.33-.29-.65-.79-.55-.12.08-.25.15-.39.21.23.27.46.54.69.8.06,1.07.88.9,1.63.86.45-.44.36-.84-.1-1.21Z"/>
    <path class="cls-17" d="m126.25,17.21c.19-.18.38-.35.58-.53-.09-.12-.19-.24-.28-.36-.42-.19-.77-.18-1.01.25,0,0-.04.16-.04.16.25.16.5.32.75.48Z"/>
    <path class="cls-216" d="m199.5,13.9c0,.72-.47,1.5.27,2.14.42-.02.63-.22.64-.61,0,0,0,.01,0,.01-.41-.46.5-1.59-.9-1.54Z"/>
    <path class="cls-205" d="m198.52,13.67c-.21.48.08.58.51.58-.17-.19-.34-.39-.51-.58Z"/>
    <path class="cls-6" d="m164.71,41.74c.13.05.24.11.35.19.44-.4.89-.8,1.33-1.21.1-.31.13-.61-.22-.83-.3.2-.62.3-1.01.36-1.14.18-1.27.73-.46,1.49Z"/>
    <path class="cls-34" d="m166.17,39.9c.07.27.14.55.22.83.77-.23.93-.81.98-1.46-.42-.12-.73.1-1.04.3-.06.1-.11.21-.16.33Z"/>
    <path class="cls-203" d="m7.24,62.23c-.08-.09-.16-.19-.24-.29-.51.04-.75-.15-.65-.65-.42-.16-.72.01-.98.3.09.13.18.26.27.38.08.31.39.52.41.85,0,0,.05-.02.05-.02.57.14.85-.23,1.14-.58Z"/>
    <path class="cls-205" d="m200.4,16.84c-.44.08-.71-.2-1.01-.43-.47.51-1.05.09-1.58.16-1.24-.3-.41-1.2-.6-1.81-.62-.5-1.48-.86-1.36-1.84-.94,0-1.75-.43-2.63-.64-.37,0-.62.17-.81.44.13,1.18-2.03.99-1.62,2.34,2.13,1.19.25,2.04-.28,3.01-.17,1.09.89.79,1.42,1.09.19.05.39.09.59.11.38.04.75.09,1.03.34-1.15.3-2.44.11-3.42.9-.33.17-.67.33-1,.5-.52.26-1.03.63-.31,1.09.77.48-.1,1.42.76,1.85.32.16.06.54-.24.64-.92.28-.86,1.32-1.61,1.73-.02.09-.05.18-.07.27.09.76-.25,1.45-.44,2.16-.02.19.01.37.1.54.07.07.14.14.2.2.16.1.33.19.52.25.18.05.36.08.55.09.17-.03.32-.12.42-.25.04-.04-.21-.26.1-.15-.11.08-.09.18.05.29.37.18.73.2,1.1,0,1.24-.89.92-2.63,2.4-3.52,1.1-.67,1.56-.55,2.12.36.15.14.31.25.49.34.68.14,1.12.76,1.84.83.84-.29,1.35-1.04,2.15-1.39.1-.17.15-.35.14-.54-.04-.48-.13-.94-.3-1.39-.4-1.3.56-.82,1.18-.78.34.04.67.01.99-.11.53-.29.85-.68.72-1.29-1.22-.96.27-1.65.29-2.49,0,0,0,0,0,0,.21-.61.42-1.22.63-1.83-.64-.76-1.83-.41-2.5-1.1Z"/>
    <path class="cls-214" d="m4.88,63.54c.26.21.55.26.88.17-.04-.16-.07-.31-.11-.47-.26.1-.52.2-.77.3Z"/>
    <path class="cls-229" d="m190.05,43.54c.27-.93.92-1.58,1.76-2.09-.23-.58.29-1.01.34-1.54-.05-.52.32-.85.61-1.22.08-.06.16-.11.24-.17.74-.62.87-1.43.78-2.3-.06-.42-.18-.84-.01-1.26.1-.24.19-.49.24-.74,0-.28-.13-.51-.35-.69-.16-.09-.34-.13-.53-.13-.08.04-.16.08-.24.12-.06.06-.12.13-.18.19-.1.13-.2.27-.3.4-.13.13-.25.25-.39.37-.2.18-.43.34-.66.46-.02-.2.21-.26.23-.43.12-.51-.37-.71-.58-1.01.1.05.13.13.21.18,1.03.13,1.06-.58,1.18-1.21-.32-.79-.47-1.64-1.02-2.34-.16-.1-.35-.15-.54-.13-.42.2-.68.58-1.03.85-.19.2-.26.43-.25.69,0,.25.02.49,0,.74-.06.25-.16.49-.28.72-.28.57-.8,1.06-.7,1.75.4.35.12.44-.23.5-.28.3-.34.64-.24,1.02,2.08.92,1.74,2.86,2.19,4.47.02,1.06-1.45,1.53-1.23,2.66.1.07.21.12.32.16.23.14.44-.02.66-.04Z"/>
    <path class="cls-22" d="m191.78,41.44c.11.11.22.21.34.32.22-.2.44-.41.67-.61-.42-.16-.73,0-1,.29Z"/>
    <path class="cls-128" d="m202.19,34.51c.09.09.18.19.27.27.53-.49,1.06-.98,1.59-1.48-.2-.18-.41-.36-.61-.54-.32-.07-.58.04-.82.23-.07.07-.13.14-.2.21-.05.08-.1.16-.15.24-.12.26-.18.52-.18.8.03.09.05.18.08.26Z"/>
    <path class="cls-23" d="m128.81,60.25c.12-.09.23-.19.35-.28h0c-.22-.4-.44-.42-.66,0h0c0,.12.05.21.15.26.09.05.15.06.18.04h0Z"/>
    <path class="cls-38" d="m190.5,18.39c.99-.44,1.73-.95,1.84-2.16.13-1.43.24-1.45-1.45-1.2-.43-.3-.86-.69-1.33-.04-.4.81.23,1.33.58,1.96.41.76.02,1.23-.92,1.24-.3,0-.61-.06-.91-.11-.42-.08-.91-.4-1.18.18-.26.55.75.48.62,1-.7.44-1.7-.23-2.5.67,1.33.48,2.4,1.51,3.78.19.21-.2.74-.13,1.12-.18.05-.08.09-.16.14-.23.15-.43.27-.86.22-1.31Z"/>
    <path class="cls-46" d="m180.22,22.12c2.08.87,3.9.9,5.54-.54-1.81.07-3.73-1.31-5.54.54Z"/>
    <path class="cls-81" d="m187.74,26.34c-.47-.56-1.05-.8-1.78-.47-.87.39-1.86.6-2.52,1.34h0c0,.31.15.59.5.61.65.03,1.2.31,1.23.73.18.14.38.23.61.25.36-.05.64-.23.88-.48.47-.61,1.05-1.17,1.08-1.99h0Z"/>
    <path class="cls-215" d="m190.14,20.54c1.21.03,2.37-.41,3.61-.19.65.12,1.06-.33,1.33-.84-.58-.52-1.1.06-1.6-.11-.31-.2-.65-.33-1.03-.36h.02c-.93-.11-1.97-.49-2.34.82,0,0,0,.09,0,.09,0,.2,0,.4,0,.6Z"/>
    <path class="cls-169" d="m189.57,14.99c.44.01.88.03,1.33.04.17-.37.34-.7.8-.9.53-.23.99-.59.87-1.25-.01-.39-.25-.59-.65-.65h0c-.22,1.36-.65,1.63-1.95,1.23l-.1.02c-.46.29-.73.67-.63,1.22.12.1.23.19.35.29Z"/>
    <path class="cls-38" d="m189.22,14.7c.4-.32.49-.78.64-1.22-.93-.11-1.39.85-2.26.88.46.44.92.91,1.63.34Z"/>
    <path class="cls-14" d="m173.89,20.63c-.15-.16-.37-.44-.54-.29-.18.16.12.36.28.51,0,0,.14-.09.14-.09l.11-.12Z"/>
    <path class="cls-224" d="m171.96,22.44c.07.02.19.08.2.06.09-.12.01-.14-.2-.05h0Z"/>
    <path class="cls-224" d="m171.96,22.45c-.07-.02-.19-.08-.2-.06-.09.13,0,.15.2.05h0Z"/>
    <path class="cls-8" d="m182.05,30.95c-.57.83-.93,1.69-.41,2.66-.02.6-.78.54-.99.96-1.81,1.54.5,1.96.9,2.91.33.3.73.39,1.18.32.43-.12.74-.38,1-.71.31-.49.63-.98,1.04-1.4.13-.15.25-.31.35-.48.1-.17.18-.36.25-.54.21-1.09.86-1.99,1.47-2.91.23-.69.26-1.38.03-2.07-.11-.17-.26-.3-.45-.39-.64-.02-1.16.32-1.71.55-.35.17-.71.32-1.09.42-.2.06-.38.14-.56.24-.63.34-.19.83-.12,1.27-.23-.4-.2-.92-.89-.84Z"/>
    <path class="cls-26" d="m181.62,37.3c.51-.48.51-.98-.27-1.03-1.8-.13-.87-.83-.42-1.46.02-.39-.22-.56-.61-.59-.09.11-.19.21-.29.32h0c-.02.4-.26.59-.68.62-.21.19-.41.38-.62.57,0,.6.34,1.12.52,1.68.21.47.42.95,1.13.8.53-.16.92-.47,1.24-.89Z"/>
    <path class="cls-167" d="m180.32,34.21c.2.2.4.4.61.6.4-.31.92-.57.71-1.2-.39.3-1.43-.64-1.32.6Z"/>
    <path class="cls-161" d="m178.76,30.28c-.16.41-.22.82-.02,1.24.87.07,1.02-.55.95-1.07-.06-.42-.62-.02-.93-.17Z"/>
    <path class="cls-204" d="m47.36,74.46c-.09-.07-.19-.14-.3-.2-.21.1-.42.2-.62.29-.33.15-.82.17-.72.68.06.29.3.51.62.58.45.1.91.16,1.36.24.85-.42-.02-.84,0-1.26-.11-.11-.23-.22-.34-.33Z"/>
    <path class="cls-177" d="m45.4,77.55c.6.12.9-.3,1.26-.6-.65-.22-.86.37-1.26.6Z"/>
    <path class="cls-28" d="m162.11,42.83c.09-.08.17-.17.23-.27-.16-.42.44-.79.1-1.22-.14.09-.28.18-.43.27-.7.45-1.06.89.09,1.22Z"/>
    <path class="cls-224" d="m131.43,3.73c.06-.03.12-.05.16-.1.01-.01-.03-.08-.05-.12-.06.03-.12.05-.16.1-.01.01.03.08.05.11Z"/>
    <path class="cls-30" d="m174.44,33.45c-.79-.14-1.38.31-2.04.57-.62,1.26.57,1.63,1.28,2.23.18.1.38.13.59.08.24-.21.27-.49.29-.77-.01-.36.14-.7.19-1.06.13-.41-.03-.75-.3-1.06Z"/>
    <path class="cls-1" d="m183.42,28.47c.27.26.58.4.97.32.36-.04.83.22.98-.34-.04-.49-.08-.97-.12-1.48-.6.18-1.11.96-1.81.23-.21.42-.19.85-.02,1.28Z"/>
    <path class="cls-35" d="m38.74,77.4c-.21-.01-.41-.03-.61-.04.19.16.4.16.61.04Z"/>
    <path class="cls-224" d="m144.45,52.16c.46-.38.72-.76,0-1.13-.32.38-.42.76,0,1.13Z"/>
    <path class="cls-126" d="m143.12,52.76c.12-.09.24-.17.37-.24-.05-.8-.57-.47-1-.37.21.2.42.41.64.61Z"/>
    <path class="cls-80" d="m171.11,35.43c.21.17.42.35.63.52.42.25.44.87,1.04.95.26-.21.52-.46.92-.26,0,0,.08,0,.08,0,.22-.03.31-.15.29-.36-.52-.77-1.54-1.23-1.65-2.26-.42-.09-.7.12-.97.37.67.56.08.78-.33,1.04Z"/>
    <path class="cls-241" d="m168.5,37.76c.28-.32.57-.64.85-.96-.92-.69-1.55-.56-1.84.56,0,.23,0,.45,0,.68.4.11.69-.11.99-.29Z"/>
    <path class="cls-224" d="m30.52,75.76c-.29.44.09.63.37.87.53-.53.15-.72-.37-.87Z"/>
    <path class="cls-90" d="m108.54,67.68l.17-.13.13-.16c-.19,0-.39,0-.58,0,.09.11.18.2.28.3Z"/>
    <path class="cls-193" d="m172.06,15.07c.4.34.5.81.66,1.25.49-.45.66-.95.36-1.56-.34.1-.68.2-1.02.31Z"/>
    <path class="cls-70" d="m125.54,16.56c.34-.08.67-.17,1.01-.25.13-.57-.19-.9-.68-1.16-.53.38-.66.85-.33,1.41Z"/>
    <path class="cls-127" d="m148.01,50.64c-.09-.06-.2-.11-.3-.15-.27.21-.5.44-.28.8l.03.04c.38-.09.64-.27.55-.69Z"/>
    <path class="cls-117" d="m162.48,18.33c-.19.01-.38.03-.58.04.02.08.04.16.06.25.17-.1.34-.21.51-.31v.02Z"/>
    <path class="cls-132" d="m176.77,55.06c-.41.34-.99.74-.78,1.24.41.96.25,1.7-.53,2.38-.02.02.14.23.22.36-.05.17-.02.27.09.31.11.04.18.04.22.01,1.94-.93,1.14-2.35.77-3.7.44-.19.34-.39.02-.6Z"/>
    <path class="cls-260" d="m175.77,51.07c-1.26-.82-1.58.49-2.3.88.22.36.19.86.74,1.04.59.19.76.04.7-.74-.05-.62.58-.78.86-1.18Z"/>
    <path class="cls-135" d="m177.69,53.55c.26.2.52.4.79.61.57-.07.85-.4.93-.9h0c.01-.17.05-.33.12-.49,0-.08,0-.17,0-.25-.09-.16-.23-.24-.43-.25-.11-.07-.22-.14-.34-.22-.98.12-1.21.69-1.07,1.5h0Z"/>
    <path class="cls-244" d="m168.85,57.48c.66-.16,1.33-.38,1.13-1.2-.23.05-.44.04-.49.12-.24.34-.43.71-.64,1.07Z"/>
    <path class="cls-132" d="m173.7,60.25c.44-.41.88-.83,1.31-1.24-.41-.15-.68.17-1.01.24-.93.21-.94.17-.3,1Z"/>
    <path class="cls-163" d="m177.7,53.54c.25-.56.49-1.13,1.07-1.5-.64-.31-1.18-.16-1.65.32-.04.35-.29.77.34.91.08.09.16.18.25.27Z"/>
    <path class="cls-199" d="m172.68,63.62c-1.46-.07-1.26.77-1.69,1.11.74-.01.96-.55,1.69-1.11Z"/>
    <path class="cls-150" d="m171.04,59.85c.26.05.52-.06.66-.33.1-.19.1-.44-.13-.53-.31-.12-.57.03-.71.31-.09.19-.13.4.18.55Z"/>
    <path class="cls-154" d="m177.45,53.27c-.11-.3-.23-.61-.34-.91-.31.27-.82.51-.56.97.25.46.61.09.9-.06Z"/>
    <path class="cls-7" d="m164.25,63.18c.23-.07.46-.08.63-.19.25-.17.13-.4-.1-.43-.17-.02-.39.15-.55.27-.05.04,0,.2.02.35Z"/>
    <path class="cls-111" d="m173.5,51.95c-.65-.19-.97.24-1.34.6.64.18.97-.25,1.34-.6Z"/>
    <path class="cls-66" d="m163.68,70.77c.12,0,.26.04.35,0,.17-.1.3-.26.15-.45-.03-.04-.28.03-.36.1-.08.08-.09.23-.13.35Z"/>
    <path class="cls-151" d="m160.19,78.49c.11-.09.23-.17.32-.28.13-.15.24-.32.36-.48-.11-.04-.27-.13-.31-.1-.14.13-.28.29-.36.46-.05.11.01.26.02.4h-.04Z"/>
    <path class="cls-19" d="m169.9,50.89c-.72,0-1.11.3-1.06,1.01.35-.34.71-.67,1.06-1.01Z"/>
    <path class="cls-211" d="m171.16,54.32c.12-.05.3-.08.33-.16.03-.09-.03-.27-.12-.34-.14-.11-.3-.04-.31.14,0,.12.06.24.1.37Z"/>
    <path class="cls-135" d="m179.74,52.91c.45-.4.46-.8-.03-1.18-.09.1-.18.21-.27.31-.03.17-.04.35-.04.53v.1c.01.14.06.22.16.25.09.03.15.03.18,0Z"/>
    <path class="cls-163" d="m179.41,51.45c-.19-.24-.37-.49-.56-.73-.18,0-.31.08-.41.21,0,.08,0,.16.01.23.29.2.58.36.96.29Z"/>
    <path class="cls-99" d="m160.51,79.43c0-.21,0-.42,0-.63-.42.02-.62.25-.68.61v-.02c.01.1.03.19.04.29.09.04.19.09.28.13.23-.05.35-.17.35-.39Z"/>
    <path class="cls-31" d="m159.84,79.42l.68-.61c-.11-.11-.22-.21-.33-.32,0,0,.04,0,.04,0-.33.24-.52.52-.38.93Z"/>
    <path class="cls-163" d="m177.47,50.7c.1.14.21.27.31.41.22.02.45.03.67.05,0,0,0-.13,0-.13-.17-.52-.47-.69-.98-.32Z"/>
    <path class="cls-31" d="m160.2,79.72c-.12-.11-.24-.21-.35-.32-.26.26-.51.51-.32.9.43.01.62-.21.67-.58Z"/>
    <path class="cls-99" d="m160.2,79.72c-.22.19-.45.39-.67.58.11.11.22.22.33.34h-.02c.23-.21.45-.42.68-.63,0-.13-.05-.22-.15-.26-.1-.04-.15-.05-.18-.03h.01Z"/>
    <path class="cls-31" d="m160.18,79.72c.11.1.22.2.33.29.13-.19.13-.39,0-.58-.11.1-.22.2-.33.29Z"/>
    <path class="cls-163" d="m178.05,55.68c-.22-.12-.44-.15-.65.04.22.11.44.11.65-.04Z"/>
    <path class="cls-163" d="m179.41,52.56c.01-.18.02-.35.04-.53-.11.07-.23.15-.34.22.08.12.18.22.31.3Z"/>
    <path class="cls-60" d="m185.12,46.27c.43.48.95.89,1.21,1.52.24.59.71.31,1.1.04.1,0,.19-.01.29-.01.11-.15.18-.32.21-.5,0-.45.11-.92-.15-1.35-.35-.43-.84-.55-1.39-.51-.52.12-1.06.23-1.24.81h-.03Z"/>
    <path class="cls-192" d="m176.64,45.56q2.14-.32,2.59-2.43c-.01-.54-.37-.66-.86-.64-.54.25-.67,1.04-1.46.95-.51.35-.42,1.09-1.04,1.37.26.25.52.5.77.76Z"/>
    <path class="cls-48" d="m176.25,50.13c.31-.38.78-.44,1.23-.53.01-.16-.04-.28-.15-.35-.12-.07-.19-.1-.21-.07-.32-.09-.64-.17-.96-.26-.43.43-.41.84.09,1.21Z"/>
    <path class="cls-179" d="m173.45,48.01c-.61.06-.68.45-.67.89,0,.19.14.3.3.2.4-.26.46-.65.37-1.09Z"/>
    <path class="cls-87" d="m174.69,48.94c.22.08.44.07.55-.14.1-.19.1-.41-.14-.51-.09-.04-.29.05-.39.14-.16.14-.27.33-.03.51Z"/>
    <path class="cls-192" d="m177.01,46.49c.03-.38-.11-.7-.39-.97-.22.45.03.73.39.97Z"/>
    <path class="cls-248" d="m191.91,12.24c.22.22.43.43.65.65.22-.2.45-.4.67-.59-.43-.23-.87-.24-1.32-.06Z"/>
    <path class="cls-261" d="m178.22,42.82c.42-.13.73.06,1.01.32.22,0,.44-.01.65-.02,1.31-.31.81-1.53,1.3-2.25.05-.17.09-.34.14-.51.14-.49.63-.62,1.01-.87.57-.59.74-1.22.21-1.91-.31-.09-.61-.18-.92-.27-.66-.2-.92.26-1.25.63-.17.45-.88.6-.79,1.21-.27,1.06-1.09,1.83-1.67,2.73v.02c.02.19,0,.38-.06.56l.07.04c-.05.16-.02.27.09.31.11.04.18.05.21.02Z"/>
    <path class="cls-153" d="m179.59,39.14c.39-.33.82-.64.79-1.21-.6.15-.53-.37-.72-.63-.06-.4-.29-.65-.75-.61-.35.03-.49.27-.52.58l-.02-.02c-.08.34.32.57.24.91-.06.13-.15.25-.26.35.27.45.81.44,1.24.63Z"/>
    <path class="cls-170" d="m177.06,40.37c.33.41.68.37,1,.08.25-.22.78-.43.45-.83-.36-.44-.85-.11-1.25.07-.32.15-.41.4-.2.67Z"/>
    <path class="cls-185" d="m202.92,24.7c-.06-.11-.12-.22-.19-.32-.39-.17-.78-.08-1.18-.02-.2.03-.4.09-.59.16-.08.06-.16.12-.24.18-.28.62-.18,1.13.5,1.46.03.07.08.12.15.17.51-.54,1.03-1.08,1.54-1.62Z"/>
    <path class="cls-200" d="m170.77,37.47c-.91-.24-.74.55-1.01.92.43.6.86.56,1.3.01.02-.34-.38-.56-.29-.92h0Z"/>
    <path class="cls-16" d="m171.76,37.07c.2.06.4.13.6.19.14-.12.27-.24.41-.36-.1-.55.15-1.43-1.04-.95-.18.38-.18.75.03,1.12Z"/>
    <path class="cls-4" d="m197.22,14.77c-.2.54-.77.83-1.15,1.24.56.56,1.1.73,1.75.57-.2-.6-.4-1.21-.6-1.81Z"/>
    <path class="cls-29" d="m191.28,44.24c0-.57.45-.88.8-1.26-.4-.37-.78-.39-1.1.09-.35.53-.82,1.02-.82,1.7-.03.16,0,.27.11.35.11.08.18.1.21.08.32-.12.57-.31.62-.66.03-.11.09-.21.18-.29Z"/>
    <path class="cls-121" d="m188.69,47.2c-.11.12-.23.25-.34.37.44.21.71-.05.98-.31-.22-.02-.43-.04-.64-.05Z"/>
    <path class="cls-24" d="m196.17,36.88c-.64-.2-.99.22-1.39.55-.5.53-.31.81.37.93,0,0,0-.03,0-.03.23-.16.46-.33.7-.49.18-.3.4-.59.33-.96Z"/>
    <path class="cls-249" d="m189.07,43.42c.56-.98,2.23-1.37,1.76-2.89-.21-.03-.41-.02-.61.05-.56.26-1.1.54-1.63.84-.18.11-.34.24-.48.39-.21.24-.35.51-.39.83.03.53.12,1.04.76,1.24.2-.15.4-.3.6-.45Z"/>
    <path class="cls-19" d="m186.37,45.65c.48.19,1.03.27,1.4.66.41-.04.64-.23.63-.63h0c-.13-.37.14-.64.32-.93-.45-.66-.82-1.47-1.95-1.06-.7.55-1.16,1.15-.39,1.95Z"/>
    <path class="cls-83" d="m187.1,43.83c.67.1,1.07.63,1.61.93.37-.4.03-.63-.23-.88-.19-.42-.37-.83-.56-1.25-.1-.02-.19-.04-.29-.06-.3.06-.53.22-.73.44-.11.15-.18.32-.2.51.05.19.18.3.4.32Z"/>
    <path class="cls-249" d="m190.05,43.54c-.22.01-.44.03-.66.04.27.67.46.17.66-.04Z"/>
    <path class="cls-100" d="m190.63,30.34c.11-.09.23-.17.36-.24.61.04,1.05.72,1.76.39.37-.18.59-.43.53-.82-.12-.04-.19-.13-.22-.24.1.09.23.12.38.09,1.17-.35,2.53,1.72,3.57-.25.17-.37.14-.75.1-1.14-.03-.19-.12-.36-.24-.52-.1-.91-.62-1.18-1.53-.87h-.02c-.26-.86-1.15-1.42-1.27-2.47-.69,1.04-1.91,1.43-2.66,2.16-.81.79-.95,2.18-1.37,3.31.02.36.23.56.61.59Z"/>
    <path class="cls-71" d="m187.74,26.33c-.49.6-1.45.91-1.36,1.87,0,.23-.13.43-.15.65.06.24.28.36.46.51.13.1.28.14.46.13.17-.07.25-.18.25-.35.39-.91,1.65-1.73.34-2.81Z"/>
    <path class="cls-185" d="m203.38,23.18c-.41-1.39-.49-1.44-1.72-1.01.11.63-.39.97-.78,1.35-.49.04-.83.25-.97.71.12.56.53.57,1.01.45l.18-.04c.5-.36.91-.83,1.5-1.08.28-.09.52-.24.77-.39Z"/>
    <path class="cls-57" d="m200.32,23.36c-.6-.54-1.16-.78-1.89-.1-.95.87-.23,1.11.51,1.39.67-.23,1.03-.75,1.38-1.29Z"/>
    <path class="cls-25" d="m188.72,29.68c.15.4-.05.69-.34.95-.06.19,0,.33.19.43.48.14.94-.05,1.41-.08.59.11.77-.13.64-.64-.21-.2-.41-.39-.62-.59-.33-.11-.67-.21-1-.32h0c-.1.08-.19.17-.29.25Z"/>
    <path class="cls-130" d="m190.14,19.85c.63-.65,1.52-.63,2.34-.81-.5-.63-1.34-.38-1.98-.64-.42.42-1.08.79-.36,1.46Z"/>
    <path class="cls-246" d="m199.73,19.82c.09.08.18.16.28.23.34-.29.69-.56,1.01-.86.3-.27.5-.57-.03-.81-.36-.16-.78-.27-.89.24-.09.42-.09.84-.37,1.2Z"/>
    <path class="cls-136" d="m199.96,24.96c-.32.27-.65.53-.97.8.12.15.24.31.37.46.31.09.62.19.93.28.66-.66.64-1.19-.33-1.54Z"/>
    <path class="cls-227" d="m192.45,19.04c.29.25.6.46,1.03.36-.05-.83-.6-.45-1.03-.36Z"/>
    <path class="cls-254" d="m191.43,23.31c.13.04.26.1.39.1.19,0,.28-.14.17-.28-.07-.08-.26-.15-.36-.12-.09.03-.14.19-.2.3Z"/>
    <path class="cls-246" d="m200.01,20.05c-.21.23-.42.45-.63.68.47-.01.84-.11.63-.68Z"/>
    <path class="cls-25" d="m189.01,29.43c.1-.17.21-.34.31-.51-.54-.06-.33.28-.32.51h0Z"/>
    <path class="cls-8" d="m187.06,29.51c.21-.02.42-.03.63-.05-.08-.12-.18-.22-.29-.32-.11.12-.23.24-.34.37Z"/>
    <path class="cls-8" d="m187.68,29.45c.23.01.47.03.7.04-.22-.15-.46-.16-.7-.04Z"/>
    <path class="cls-239" d="m188.86,34.91c.04-.84,1-1.27,1.08-2.1,0-.2.04-.4.02-.61.01-.2.03-.39.04-.59-.55-.21-1.06-.17-1.52.21-2.05.21-2.11,1.82-2.55,3.16-.48.61-.87,1.28-1.41,1.86-1.29.49-1.69,1.31-1.06,2.51.89.34,1.05,3.14,2.76.72.16-.2-.37-.25-.13-.48.23-.07.39-.21.51-.4.08-.13.1-.27.08-.42.06-.35.4,0,.52-.18.72-.63,1.6-1.2,1.04-2.32.12-.34.23-.67.35-1.01.24-.02.33-.13.27-.35Z"/>
    <path class="cls-12" d="m193.88,34.12c1.68-.08,1.59-1.48,2.11-2.43-.04-.34-.5-.58-.26-.98l.03.06c-.41-.76-.94-1.31-1.97-.99-.52.43-.21.97-.22,1.47.11.76-.81,1.4-.31,2.2.21.22.42.44.63.66Z"/>
    <path class="cls-25" d="m193.25,33.46c0-.84,1.17-1.22.98-2.13-.29-.03-.51-.16-.68-.37-.11-.12-.24-.21-.39-.29-.16.02-.3-.03-.41-.14-.04-.06-.09-.12-.13-.18-.55-.08-1.05-.43-1.64-.26.43.85.32,1.94,1.3,2.54.01.19.06.36.16.52.2.22.46.33.77.33l.03-.03Z"/>
    <path class="cls-190" d="m193.54,36.26c.09-.55.6-1.16-.23-1.59-.38.59-.25,1.11.23,1.59Z"/>
    <path class="cls-190" d="m191.56,34.35c.02.22.04.44.05.66.48.08.76-.18,1.02-.49-.35-.1-.68-.3-1.07-.17Z"/>
    <path class="cls-190" d="m192.56,32.84c-.06.37.18.64.38.92.09-.09.19-.19.29-.28-.22-.21-.44-.43-.67-.64Z"/>
    <path class="cls-190" d="m192.93,33.8c-.06.22-.12.44-.18.66.19-.19.25-.41.18-.66Z"/>
    <path class="cls-25" d="m189.95,32.2c0,.2-.01.41-.02.61,0-.2.01-.41.02-.61Z"/>
    <path class="cls-8" d="m185.38,28.45c-.33.11-.65.23-.98.34.1.1.2.21.31.31.37.47.69.26.99-.08.01-.1.02-.19.03-.29-.12-.09-.23-.19-.34-.28Z"/>
    <path class="cls-8" d="m186.4,28.78c0-.19-.02-.38-.03-.58-.22.18-.44.35-.66.53,0,0,0,.21,0,.21.11.15.25.23.45.23.2-.07.27-.2.24-.39Z"/>
    <path class="cls-81" d="m186.05,29.08c.07.11.16.21.26.3.12.1.24.2.36.3.15-.01.27-.08.36-.19-.21-.23-.42-.47-.63-.71-.12.1-.24.2-.36.3Z"/>
    <path class="cls-8" d="m183.7,30.59c0-.08,0-.17.01-.25-.02.03-.07.07-.06.1,0,.05.04.1.07.15h-.02Z"/>
    <path class="cls-80" d="m174.28,35.95l.18-.12.15-.15c-.07-.11-.16-.21-.25-.3-.03.19-.05.38-.08.56Z"/>
    <path class="cls-60" d="m183.59,39.84c-.56.29-1.12.58-1.68.87-1.58.37-.57,2.1-1.66,2.73h0c-.03.2-.03.4-.06.6.02.61-1.63,1.16-.09,1.83q.64.31,1.33-.76c.4-.33.9-.34,1.39-.35.52-.25,1.15-.76,1.06.39-.05.64.27.9.93.87.39-.15.66-.48.55-.79-.28-.82.22-.96.87-1.05.01-.2-.03-.39-.12-.58-1.12-1.09-2.33-2.12-2.52-3.76Z"/>
    <path class="cls-99" d="m180.93,44.65c-.46.3.15,1.23-.83,1.23-1.67.57-2.38,1.89-2.98,3.3.12.14.24.28.36.43.39.24.67.69,1.25.56.14-.79.01-1.64,1.43-1.61.91.02.84-1.23,1.53-1.67.32-.91,2.01-2.23-.76-2.24Z"/>
    <path class="cls-194" d="m186.1,44.17c-.5.03-1.25-.37-1.12.66.05.39-.11.8-.18,1.2.11.09.22.17.34.25.41-.19.93-.22,1.22-.62-.3-.79.24-1.3.73-1.82-.07-.09-.15-.18-.23-.27-.44,0-.71.19-.76.61Z"/>
    <path class="cls-178" d="m182.55,46.83c-.31.34-.56.63-.17.93.07.06.41-.08.56-.21.3-.25.41-.59.11-.89-.05-.05-.37.13-.49.17Z"/>
    <path class="cls-235" d="m180.51,49.6c.07.12.11.31.2.33.11.03.31-.05.39-.14.13-.15.05-.3-.17-.3-.14,0-.29.07-.43.11Z"/>
    <path class="cls-37" d="m180.25,43.44c.66-.14,1.13-.41,1.11-1.14-.02-.58.08-1.15.56-1.59-.34-.11-.68-.22-1.01-.33-.34.91-.67,1.82-1.01,2.73.12.11.24.22.36.33Z"/>
    <path class="cls-37" d="m180.18,44.05c.14-.19.19-.39.06-.61-.02.2-.04.4-.06.61Z"/>
    <path class="cls-37" d="m180.9,40.37c.34-.32.68-.64,1.03-.95-.88-.18-1.37,0-1.03.95Z"/>
    <path class="cls-253" d="m203.38,23.18c-.22-.02-.45-.04-.67-.05-.45.47-1.21.78-.98,1.61.41.06.7-.18,1.01-.36.29-.3.57-.6.86-.89-.07-.1-.14-.2-.21-.3Z"/>
    <path class="cls-5" d="m203.25,21.3c.18-.08.23-.21.12-.36-.02-.03-.2-.03-.21,0-.07.11-.1.25-.14.37.08,0,.15,0,.23-.01Z"/>
    <path class="cls-125" d="m199.91,27.47c-1.41-.44-1.84.53-2.32,1.42.03.37.54.49.51.88-.09.13-.18.25-.29.37-.17.18-.28.39-.24.64.61.14,1.18.1,1.69-.27.42-.3.85-.13,1.28,0,.26.05.38-.03.33-.29.11-.93-.84-.97-1.33-1.4-.71-.62.08-.57.39-.72.18-.21.02-.41-.03-.61Z"/>
    <path class="cls-238" d="m202.61,29.34c.17-.21.34-.42.52-.63-.18-.12-.34-.31-.53-.35-.61-.13-1.4-.11-1.36.58.04.71.81.55,1.38.4Z"/>
    <path class="cls-104" d="m199.96,24.96c.52.44.53.97.33,1.54.15.07.29.14.44.21.22.06.3,0,.24-.21.12-.1.2-.22.26-.35-.1-.49-.45-.94-.3-1.47-.31-.09-.62-.19-.93-.28-.01.19-.02.37-.03.56Z"/>
    <path class="cls-21" d="m200.97,26.51c-.09.06-.17.13-.24.21-.04.08-.11.15-.2.19.06.14.07.28.05.43-.19.19-.42.21-.67.13,0,.2.02.41.03.61,1.32.13,1.53-.18,1.04-1.57Z"/>
    <path class="cls-255" d="m200.88,30.2c-.11.09-.22.19-.33.29.22.21.43.41.65.62h0c.37.01.81.28,1-.27-.33-.41-.86-.46-1.31-.63Z"/>
    <path class="cls-76" d="m200.82,35.64c.05-.08.1-.15.16-.22-.18-.18-.36-.36-.54-.54-.18-.1-.36-.17-.55-.23-.21.02-.4.08-.58.18-.36.4-1.27.32-1.18,1.13.15.29.41.44.75.46.83.14,1.11-.93,1.95-.77Z"/>
    <path class="cls-242" d="m196.76,35.02c-.27.43-1.21.88.07,1.24.24,0,.47,0,.71,0,.51-.27.42-.7.33-1.12-.33-.31-.66-.66-1.11-.13Z"/>
    <path class="cls-210" d="m197.81,35.45c-.09.27-.19.54-.28.82.38.6.86.36,1.34.15-.23-.26-.47-.53-.71-.79-.05-.18-.17-.25-.36-.17Z"/>
    <path class="cls-25" d="m198.24,30.16c.6.09.81-.21.77-.7-.02-.3-.19-.51-.55-.53-.29-.02-.58-.03-.87-.05h.02c-.22.07-.45-.13-.66.03-.64.44-1.09,1.54-2.07.17-.55-.78-1.35-.11-1.91.4h0c.12.36-.06.64-.35.87,0,0,.02.16.02.16.05.14.16.21.33.19h-.03c.41,0,.62-.19.65-.56.94-.44,1.53.17,2.17.63.61,0,1.21,0,1.82-.01.22-.2.44-.4.66-.6h0Z"/>
    <path class="cls-63" d="m199.81,34.79c.09-.1.17-.21.25-.32.14-.3.28-.6.42-.9-.22-.28-.45-.55-.28-.93h0c-.03-.2-.02-.41,0-.61-1.28-.83-1.33.55-1.98.9-1.39.74.24.83.24,1.24.17.76.74.74,1.37.62h-.02Z"/>
    <path class="cls-195" d="m197.32,31.98c.07-.03.16-.03.19-.08.12-.17.05-.26-.15-.22-.05.01-.11.1-.12.16,0,.04.05.09.09.14Z"/>
    <path class="cls-243" d="m196.44,32.9c.2-.1.25-.23.15-.38-.02-.03-.2-.04-.21,0-.06.12-.09.25-.13.37.08,0,.15.01.2.01Z"/>
    <path class="cls-25" d="m195.73,30.71c-.3.42-.05.7.26.98.19-.39-.02-.69-.26-.98Z"/>
    <path class="cls-83" d="m190.5,40.69c-.71.09-1.41.22-1.97.7-.06.15-.05.24.04.29.1.05.16.06.2.04.7-.15,1.32-.44,1.73-1.02Z"/>
    <path class="cls-83" d="m187.92,42.62c.19-.23.39-.46.58-.69-.04-.17-.15-.25-.33-.24h0c-.6.15-.88.4-.35.92h.1Z"/>
    <path class="cls-25" d="m192.97,29.48c-.08-.19-.15-.39-.23-.58-.14-.32-.41-.41-.7-.25-.16.09-.33.32-.33.48,0,.32.29.45.61.44.22,0,.44-.06.65-.1,0,0,0,0,0,0Z"/>
    <path class="cls-205" d="m195.31,26.75c-.12.25-.21.52-.03.77.02.03.28,0,.3-.05.14-.3-.08-.5-.26-.72h-.02Z"/>
    <path class="cls-125" d="m196.95,28.92c.22-.01.44-.02.66-.03-.3-.3-.6-.6-.89-.9-.25.38-.02.66.23.93Z"/>
    <path class="cls-194" d="m185.85,43.82c0-.67-.25-1.42.72-1.74l-.09-.18c.16-.33.5-.56.51-.96.04-.78.73-1.31.88-2.04-.45,0-.91.02-1.36.03-.21.21-.42.41-.63.62v-.03c.16.59-.21,1.01-.72,1.07-.44.06-.02-.57-.35-.76-.37-.22-.73-.44-1.1-.67-.19.21-.21.44-.12.69.15.44-.05.75-.26,1.16-.42.78-.23.69.84,1.4.58.38,1.12.94,1.68,1.42Z"/>
    <path class="cls-8" d="m184.71,36.45c.04.31.08.63.12.94.68-.67.96-1.62,1.79-2.18-1.04-.12-1.36.71-1.91,1.24Z"/>
    <path class="cls-194" d="m186.52,38.92c.12-.14.25-.28.37-.42-.29-.14-.66-.45-.88-.05-.17.3.33.31.51.46Z"/>
    <path class="cls-194" d="m185.89,39.54c-.19-.1-.37-.21-.56-.31-.06.51.27.36.56.28v.03Z"/>
    <path class="cls-166" d="m187.88,38.89c-.53.64-1.38,1.15-1.05,2.15,0,.28.15.39.44.34.06-.11.11-.22.14-.34,0-.9.69-1.51,1.08-2.25.09-.18.06-.61-.39-.27-.11.08-.14.24-.21.36Z"/>
    <path class="cls-98" d="m193.59,30.15c-.22.19-.43.37-.65.56.28.49.23,1.56,1.29.62-.15-.42-.23-.88-.65-1.18Z"/>
    <path class="cls-98" d="m192.97,30.71c-.11-.07-.21-.14-.33-.2-.07.15-.02.24.14.24.06,0,.12-.03.19-.05Z"/>
    <path class="cls-8" d="m184.96,34.88c.1.01.19.03.29.04-.04-.03-.08-.08-.12-.07-.06,0-.12.05-.17.08v-.04Z"/>
    <path class="cls-125" d="m198.24,30.16c.02-.07.08-.18.06-.19-.14-.08-.16-.01-.06.19h0Z"/>
    <path class="cls-112" d="m187.27,41.39c-.15-.11-.29-.23-.44-.34-.23.24-.46.49-.34.85.32-.09.87.13.78-.51Z"/>
  </g>
</svg>