<?xml version="1.0" encoding="UTF-8"?>
<svg id="OBJECTS" xmlns="http://www.w3.org/2000/svg" >
  <defs>
    <style>
      .cls-1 {
        stroke-width: 4px;
      }

      .cls-1, .cls-2 {
        fill: none;
        stroke: #f9ad33;
        stroke-linecap: round;
        stroke-linejoin: round;
      }

      .cls-2 {
        stroke-width: 2px;
      }

      .cls-3 {
        fill: #1e3c7a;
      }
    </style>
  </defs>
  <g>
    <path class="cls-3" d="m129.55,130.43c-33.78,5.11-71.92-8.31-77.03-42.09C47.41,54.56,84.15,5.54,117.93.43c33.78-5.11,67.36,36.23,72.47,70.01,5.11,33.78-27.07,54.88-60.86,59.99Z"/>
    <path class="cls-2" d="m68.19,103.55c-2.81-3.17-5.37-6.51-7.61-9.98s-4.18-7.06-5.74-10.74c-1.56-3.68-2.76-7.43-3.53-11.23-.77-3.79-1.11-7.62-.97-11.44.14-3.82.76-7.63,1.93-11.38,1.16-3.75,2.87-7.45,5.17-11.05s5.25-6.94,8.71-10.01c3.46-3.06,7.42-5.85,11.75-8.32,4.33-2.47,9.02-4.64,13.94-6.46,4.92-1.82,10.06-3.31,15.28-4.43,5.22-1.12,10.52-1.86,15.76-2.21,5.24-.35,10.42-.3,15.4.17,4.98.48,9.75,1.38,14.18,2.74,4.43,1.36,8.51,3.18,12.11,5.48s6.71,5.15,9.38,8.42c2.66,3.27,4.88,6.98,6.66,10.99,1.79,4.01,3.15,8.34,4.12,12.86.97,4.52,1.54,9.24,1.74,14.04.2,4.8.03,9.68-.48,14.53-.51,4.85-1.36,9.66-2.52,14.32-1.16,4.66-2.64,9.17-4.4,13.42"/>
    <path class="cls-2" d="m165.18,124.34c-2.86,2.57-5.97,4.65-9.28,6.28-3.31,1.63-6.81,2.81-10.44,3.58-3.64.77-7.41,1.13-11.27,1.12-3.86,0-7.79-.39-11.76-1.09-3.96-.71-7.95-1.74-11.9-3.06s-7.88-2.93-11.71-4.78c-3.83-1.85-7.58-3.95-11.17-6.25"/>
  </g>
  <g>
    <g>
      <path class="cls-2" d="m92.06,66.07v-15.32c0-6.15,4.99-11.14,11.14-11.14h34.84c6.15,0,11.14,4.99,11.14,11.14v34.84c0,6.15-4.99,11.14-11.14,11.14h-34.84c-6.15,0-11.14-4.99-11.14-11.14v-1.59"/>
      <line class="cls-2" x1="103.08" y1="59.83" x2="117.65" y2="59.83"/>
      <path class="cls-2" d="m117.65,76.5h-19.2c-3.53,0-6.38-2.86-6.38-6.38v-10.29"/>
      <polyline class="cls-1" points="122.48 82.32 135.55 68.16 122.48 54"/>
    </g>
    <line class="cls-2" x1="124.08" y1="68.16" x2="103.08" y2="68.16"/>
  </g>
</svg>