<?xml version="1.0" encoding="UTF-8"?>
<svg xmlns="http://www.w3.org/2000/svg" viewBox="0 0 110.03 127.58">
  <defs>
    <style>
      .cls-1, .cls-2, .cls-3, .cls-4, .cls-5 {
        fill: none;
      }

      .cls-1, .cls-6, .cls-3, .cls-7, .cls-8, .cls-9, .cls-5 {
        stroke: #1d4277;
      }

      .cls-1, .cls-6, .cls-3, .cls-7, .cls-9, .cls-5 {
        stroke-linecap: round;
        stroke-linejoin: round;
      }

      .cls-1, .cls-7 {
        stroke-width: .89px;
      }

      .cls-10, .cls-7 {
        fill: #61cae5;
      }

      .cls-2, .cls-8 {
        mix-blend-mode: multiply;
      }

      .cls-6, .cls-11, .cls-8, .cls-9 {
        fill: #fbc4ab;
      }

      .cls-6, .cls-8 {
        stroke-width: 1.72px;
      }

      .cls-12 {
        fill: #1d4277;
      }

      .cls-13 {
        fill: #f1f0ef;
      }

      .cls-3 {
        stroke-width: .53px;
      }

      .cls-4 {
        isolation: isolate;
      }

      .cls-8 {
        opacity: .4;
        stroke-miterlimit: 10;
      }

      .cls-14 {
        fill: #82cfcd;
      }

      .cls-9 {
        stroke-width: 2.83px;
      }

      .cls-15 {
        fill: #f8be2c;
      }

      .cls-5 {
        stroke-dasharray: 0 0 0 7.36 5.89 7.36;
        stroke-width: 1.7px;
      }

      .cls-16 {
        fill: #e6e7e8;
      }
    </style>
  </defs>
  <g class="cls-4">
    <g id="Capa_1" data-name="Capa 1">
      <g>
        <g>
          <g>
            <path class="cls-12" d="m5.89,126.7c-2.76,0-5.01-1.99-5.01-4.43V5.31C.88,2.87,3.13.88,5.89.88l23.66,2.45c5.64.61,6.82,2.59,6.82,4.13v112.64c0,2.19-2.44,3.66-6.87,4.14l-23.52,2.45s-.06,0-.09,0Z"/>
            <path class="cls-12" d="m5.89,1.77l23.57,2.45c3.34.36,6.03,1.37,6.03,3.25v112.64c0,1.89-2.78,2.9-6.08,3.26l-23.51,2.45c-2.28,0-4.13-1.59-4.13-3.55V5.31c0-1.96,1.85-3.55,4.13-3.55m0-1.77C2.64,0,0,2.38,0,5.31v116.96c0,2.93,2.64,5.31,5.89,5.31.06,0,.12,0,.18,0l23.51-2.45c6.67-.72,7.66-3.45,7.66-5.02V7.47c0-1.91-1.32-4.33-7.6-5.01L6.07,0c-.06,0-.12,0-.18,0h0Z"/>
          </g>
          <g>
            <g>
              <g>
                <path class="cls-10" d="m14.05,125.93c-2.41,0-4.31-2.52-4.31-5.73V7.38c0-3.21,1.89-5.73,4.31-5.73,0,0,38.61,4.2,38.61,4.2,2.16,0,3.92,2.37,3.92,5.39v105.1c0,3.03-1.77,5.4-4.03,5.4l-38.46,4.19h-.05Z"/>
                <path class="cls-12" d="m14.05,2.54l38.51,4.19c1.74,0,3.14,2.02,3.14,4.51v105.1c0,2.49-1.41,4.51-3.14,4.51l-38.51,4.19c-1.89,0-3.42-2.17-3.42-4.84V7.38c0-2.68,1.53-4.84,3.42-4.84m.1-1.77h-.1c-2.91,0-5.19,2.9-5.19,6.61v112.82c0,3.71,2.28,6.61,5.19,6.61h.19s38.43-4.19,38.43-4.19c2.7-.07,4.8-2.8,4.8-6.28V11.24c0-3.47-2.1-6.21-4.8-6.28L14.25.78h-.1Z"/>
              </g>
              <path class="cls-13" d="m52.03,103.07c0,2.04-1.18,3.7-2.63,3.7l-31.9,3.16c-1.58,0-2.86-1.78-2.86-3.96V13.62c0-2.19,1.28-3.97,2.86-3.97l31.9,3.71c1.45,0,2.63,1.65,2.63,3.69v86.02Z"/>
              <g>
                <path class="cls-15" d="m28.44,120.21c-1.54,0-2.79-1.4-2.79-3.11s1.22-3.08,2.73-3.11l15.41-1.91h.05c1.54,0,2.79,1.4,2.79,3.11s-1.22,3.07-2.73,3.11l-15.41,1.91h-.05Z"/>
                <path class="cls-12" d="m43.84,112.93c1.07,0,1.94,1.01,1.94,2.26s-.87,2.26-1.94,2.26l-15.4,1.91c-1.07,0-1.94-1.01-1.94-2.26s.87-2.26,1.94-2.26l15.4-1.91m0-1.71h-.21s-15.31,1.91-15.31,1.91c-1.95.07-3.52,1.82-3.52,3.96s1.63,3.96,3.64,3.96h.21s15.31-1.91,15.31-1.91c1.95-.07,3.52-1.82,3.52-3.96s-1.63-3.96-3.64-3.96h0Z"/>
              </g>
              <g class="cls-2">
                <path class="cls-16" d="m52.56,6.73l-17.69-1.92v117.97l17.69-1.93c1.74,0,3.14-2.02,3.14-4.51V11.24c0-2.49-1.41-4.51-3.14-4.51Z"/>
              </g>
            </g>
            <line class="cls-5" x1="17.11" y1="22.59" x2="17.11" y2="99.98"/>
          </g>
        </g>
        <line class="cls-9" x1="34.17" y1="43.58" x2="34.17" y2="92.33"/>
        <g>
          <g>
            <g>
              <polygon class="cls-11" points="34.11 56.73 66.9 55.91 68.55 80.26 33.97 81.72 34.11 56.73"/>
              <path class="cls-12" d="m66.1,56.79l1.53,22.64-32.8,1.39.13-23.26,31.13-.77m1.6-1.76l-1.65.04-31.13.77-1.67.04v1.67s-.14,23.26-.14,23.26v1.8s1.79-.08,1.79-.08l32.8-1.39,1.76-.07-.12-1.76-1.53-22.64-.11-1.64h0Z"/>
            </g>
            <path class="cls-6" d="m62.09,59.75c1.55-3.16,4.96-6.51,8.05-8.63,3.36-2.3,8.72-2.6,13.48-2.84,3.55-.18,6.95.28,10.03,1.24,8.34,2.62,9.6,29.31,1.71,32.6-2.9,1.21-15.16,1.02-19.28.66-9.1-.8-10.12-2.52-13.1-7.41"/>
            <path class="cls-8" d="m91.42,63.72s-4.71-3.29-6.2-6.93c-.79-1.94-3.09-2.49-3.09-2.49l.25.76s.51,4.17,3.2,6.87c1.84,1.85,4.07,1.98,5.85,1.78Z"/>
          </g>
          <g>
            <g>
              <g>
                <path class="cls-14" d="m97.93,58.49c-.15.28-.48.54-.72.58-6.83,1.18-13.66,2.36-20.49,3.54-.24.04-.3-.15-.15-.42,10.3-18.52-20.21-29.99-9.91-48.51.15-.27.48-.53.72-.58,6.83-1.18,13.66-2.36,20.49-3.54.24-.04.3.15.15.42-10.3,18.52,20.21,29.99,9.9,48.51Z"/>
                <path class="cls-12" d="m67.1,13.59c6.83-1.18,13.66-2.36,20.49-3.54-10.3,18.52,20.21,29.99,9.91,48.51-6.83,1.18-13.66,2.36-20.49,3.54,10.3-18.52-20.21-29.99-9.91-48.51m-.87.15c-10.3,18.52,20.21,29.99,9.91,48.51-.3.55-.2.94.28.85,6.83-1.18,13.66-2.36,20.49-3.54.48-.08,1.16-.6,1.47-1.15,10.3-18.52-20.21-29.99-9.91-48.51.31-.55.21-.93-.28-.85-6.83,1.18-13.66,2.36-20.49,3.54-.48.08-1.16.6-1.47,1.15h0Z"/>
              </g>
              <g>
                <path class="cls-13" d="m97.27,53.51c-.04.25-.28.5-.52.54-1.11.19-2.17,1.3-2.6,2.51-.09.26-.38.51-.62.56-3.46.6-6.91,1.19-10.37,1.79-.24.04-.35-.14-.26-.41.43-1.21-.3-2.01-1.4-1.82-.24.04-.39-.13-.35-.39,2.28-13.74-16.11-23.9-13.83-37.64.04-.26.28-.5.52-.54,1.11-.19,2.17-1.3,2.6-2.51.09-.26.37-.51.62-.56,3.46-.59,6.91-1.19,10.37-1.79.24-.04.35.14.26.4-.43,1.21.3,2.01,1.41,1.82.24-.04.39.14.35.39-2.28,13.74,16.11,23.9,13.83,37.64Z"/>
                <path class="cls-12" d="m67.75,18.58c1.35-.23,2.6-1.58,3.13-3.05,3.46-.6,6.91-1.19,10.37-1.79-.53,1.48.41,2.44,1.76,2.21-2.28,13.74,16.11,23.9,13.83,37.64-1.35.23-2.6,1.57-3.12,3.05-3.46.59-6.91,1.19-10.37,1.79.53-1.48-.42-2.44-1.76-2.21,2.28-13.74-16.11-23.9-13.83-37.64m-.87.15c-2.28,13.74,16.11,23.9,13.83,37.64-.09.51.2.86.69.78.86-.14,1.41.48,1.07,1.43-.19.53.02.9.5.81,3.46-.6,6.91-1.19,10.37-1.79.48-.08,1.06-.58,1.25-1.11.34-.95,1.2-1.82,2.07-1.97.48-.08.97-.57,1.06-1.08,2.28-13.74-16.11-23.9-13.83-37.64.09-.51-.21-.86-.69-.78-.86.15-1.41-.48-1.07-1.43.19-.53-.02-.9-.5-.81-3.46.6-6.91,1.2-10.37,1.79-.48.08-1.06.58-1.25,1.12-.34.95-1.2,1.82-2.07,1.97-.48.08-.97.57-1.06,1.08h0Z"/>
              </g>
              <path class="cls-14" d="m79.2,31.33c2.82-.49,6.44,1.25,8.22,3.86,1.78,2.61.81,5.14-2.04,5.63-2.82.49-6.44-1.25-8.22-3.86-1.78-2.61-.81-5.14,2.03-5.63Z"/>
              <g>
                <path class="cls-3" d="m84.23,37.25c.66-.11.79-.81.29-1.55-.5-.74-1.51-1.24-2.1-1.14-.58.1-.72.54-.18,1.43.54.89.54,1.51-.06,1.62-.78.13-1.6-.4-2.1-1.14-.5-.75-.37-1.44.29-1.55"/>
                <path class="cls-3" d="m84.64,35.68c.27-.05.54-.09.82-.14"/>
                <path class="cls-3" d="m79.14,36.63c.3-.05.6-.1.89-.16"/>
              </g>
              <g>
                <path class="cls-7" d="m88.55,47.39c-.36-1.11-.82-2.21-1.35-3.29"/>
                <path class="cls-7" d="m89.36,53.69c.09-1.16.04-2.3-.12-3.42"/>
              </g>
              <g>
                <path class="cls-7" d="m75.29,21.43c-.14-1.15-.15-2.32,0-3.52"/>
                <path class="cls-7" d="m77.15,27.56c-.5-1.06-.92-2.14-1.25-3.23"/>
              </g>
              <path class="cls-1" d="m79.2,31.33c2.82-.49,6.44,1.25,8.22,3.86,1.78,2.61.81,5.14-2.04,5.63-2.82.49-6.44-1.25-8.22-3.86"/>
              <path class="cls-1" d="m76.27,34.43c0-.34.04-.66.14-.96"/>
            </g>
            <g>
              <g>
                <path class="cls-14" d="m97.93,58.49c-.15.28-.48.54-.72.58-6.83,1.18-13.66,2.36-20.49,3.54-.24.04-.3-.15-.15-.42,10.3-18.52-20.21-29.99-9.91-48.51.15-.27.48-.53.72-.58,6.83-1.18,13.66-2.36,20.49-3.54.24-.04.3.15.15.42-10.3,18.52,20.21,29.99,9.9,48.51Z"/>
                <path class="cls-12" d="m67.1,13.59c6.83-1.18,13.66-2.36,20.49-3.54-10.3,18.52,20.21,29.99,9.91,48.51-6.83,1.18-13.66,2.36-20.49,3.54,10.3-18.52-20.21-29.99-9.91-48.51m-.87.15c-10.3,18.52,20.21,29.99,9.91,48.51-.3.55-.2.94.28.85,6.83-1.18,13.66-2.36,20.49-3.54.48-.08,1.16-.6,1.47-1.15,10.3-18.52-20.21-29.99-9.91-48.51.31-.55.21-.93-.28-.85-6.83,1.18-13.66,2.36-20.49,3.54-.48.08-1.16.6-1.47,1.15h0Z"/>
              </g>
              <g>
                <path class="cls-13" d="m97.27,53.51c-.04.25-.28.5-.52.54-1.11.19-2.17,1.3-2.6,2.51-.09.26-.38.51-.62.56-3.46.6-6.91,1.19-10.37,1.79-.24.04-.35-.14-.26-.41.43-1.21-.3-2.01-1.4-1.82-.24.04-.39-.13-.35-.39,2.28-13.74-16.11-23.9-13.83-37.64.04-.26.28-.5.52-.54,1.11-.19,2.17-1.3,2.6-2.51.09-.26.37-.51.62-.56,3.46-.59,6.91-1.19,10.37-1.79.24-.04.35.14.26.4-.43,1.21.3,2.01,1.41,1.82.24-.04.39.14.35.39-2.28,13.74,16.11,23.9,13.83,37.64Z"/>
                <path class="cls-12" d="m67.75,18.58c1.35-.23,2.6-1.58,3.13-3.05,3.46-.6,6.91-1.19,10.37-1.79-.53,1.48.41,2.44,1.76,2.21-2.28,13.74,16.11,23.9,13.83,37.64-1.35.23-2.6,1.57-3.12,3.05-3.46.59-6.91,1.19-10.37,1.79.53-1.48-.42-2.44-1.76-2.21,2.28-13.74-16.11-23.9-13.83-37.64m-.87.15c-2.28,13.74,16.11,23.9,13.83,37.64-.09.51.2.86.69.78.86-.14,1.41.48,1.07,1.43-.19.53.02.9.5.81,3.46-.6,6.91-1.19,10.37-1.79.48-.08,1.06-.58,1.25-1.11.34-.95,1.2-1.82,2.07-1.97.48-.08.97-.57,1.06-1.08,2.28-13.74-16.11-23.9-13.83-37.64.09-.51-.21-.86-.69-.78-.86.15-1.41-.48-1.07-1.43.19-.53-.02-.9-.5-.81-3.46.6-6.91,1.2-10.37,1.79-.48.08-1.06.58-1.25,1.12-.34.95-1.2,1.82-2.07,1.97-.48.08-.97.57-1.06,1.08h0Z"/>
              </g>
              <path class="cls-14" d="m79.2,31.33c2.82-.49,6.44,1.25,8.22,3.86,1.78,2.61.81,5.14-2.04,5.63-2.82.49-6.44-1.25-8.22-3.86-1.78-2.61-.81-5.14,2.03-5.63Z"/>
              <g>
                <path class="cls-3" d="m84.23,37.25c.66-.11.79-.81.29-1.55-.5-.74-1.51-1.24-2.1-1.14-.58.1-.72.54-.18,1.43.54.89.54,1.51-.06,1.62-.78.13-1.6-.4-2.1-1.14-.5-.75-.37-1.44.29-1.55"/>
                <path class="cls-3" d="m84.64,35.68c.27-.05.54-.09.82-.14"/>
                <path class="cls-3" d="m79.14,36.63c.3-.05.6-.1.89-.16"/>
              </g>
              <g>
                <path class="cls-7" d="m88.55,47.39c-.36-1.11-.82-2.21-1.35-3.29"/>
                <path class="cls-7" d="m89.36,53.69c.09-1.16.04-2.3-.12-3.42"/>
              </g>
              <g>
                <path class="cls-7" d="m75.29,21.43c-.14-1.15-.15-2.32,0-3.52"/>
                <path class="cls-7" d="m77.15,27.56c-.5-1.06-.92-2.14-1.25-3.23"/>
              </g>
              <path class="cls-1" d="m79.2,31.33c2.82-.49,6.44,1.25,8.22,3.86,1.78,2.61.81,5.14-2.04,5.63-2.82.49-6.44-1.25-8.22-3.86"/>
              <path class="cls-1" d="m76.27,34.43c0-.34.04-.66.14-.96"/>
            </g>
          </g>
          <g>
            <g>
              <g>
                <path class="cls-14" d="m96.47,70.96c-.26.18-.67.27-.9.2-6.67-1.89-13.33-3.79-20-5.68-.24-.06-.21-.26.05-.45,17.31-12.23-5.23-35.78,12.07-48.01.26-.18.67-.27.9-.21,6.67,1.89,13.33,3.79,20,5.68.23.07.21.27-.05.45-17.31,12.23,5.23,35.78-12.07,48.01Z"/>
                <path class="cls-12" d="m88.12,17.14c6.67,1.89,13.33,3.79,20,5.68-17.31,12.23,5.23,35.78-12.07,48.01-6.67-1.89-13.33-3.79-20-5.68,17.31-12.23-5.23-35.78,12.07-48.01m-.85-.24c-17.31,12.23,5.23,35.78-12.07,48.01-.51.36-.59.76-.12.89,6.67,1.89,13.33,3.79,20,5.68.47.13,1.31-.04,1.82-.4,17.3-12.23-5.23-35.78,12.07-48.01.51-.36.59-.75.12-.89-6.67-1.89-13.33-3.79-20-5.68-.47-.13-1.31.04-1.82.4h0Z"/>
              </g>
              <g>
                <path class="cls-13" d="m98.04,66.19c-.15.21-.47.33-.7.26-1.08-.31-2.52.23-3.44,1.14-.2.2-.56.3-.79.23-3.37-.96-6.75-1.92-10.12-2.88-.24-.07-.26-.28-.06-.48.92-.91.6-1.94-.48-2.25-.23-.07-.3-.29-.15-.5,8-11.4-4.17-28.52,3.83-39.91.15-.21.47-.33.7-.26,1.08.31,2.52-.23,3.44-1.14.2-.2.56-.3.79-.24,3.37.96,6.75,1.92,10.12,2.88.24.07.26.28.06.48-.91.91-.6,1.94.48,2.25.24.07.3.29.15.5-8,11.39,4.17,28.52-3.83,39.91Z"/>
                <path class="cls-12" d="m86.55,21.92c1.32.38,3.02-.29,4.14-1.4,3.37.96,6.75,1.92,10.12,2.88-1.11,1.1-.68,2.38.63,2.75-8,11.39,4.17,28.52-3.83,39.92-1.32-.38-3.02.29-4.14,1.4-3.37-.96-6.75-1.92-10.12-2.88,1.11-1.11.68-2.38-.63-2.75,8-11.4-4.17-28.52,3.83-39.92m-.85-.24c-8,11.39,4.17,28.52-3.83,39.92-.3.42-.19.87.28,1,.84.24,1.06,1.04.34,1.75-.4.39-.37.81.1.95,3.38.96,6.75,1.92,10.12,2.88.47.13,1.21-.07,1.61-.46.71-.71,1.87-1.12,2.71-.88.47.13,1.13-.09,1.42-.52,8-11.4-4.17-28.52,3.83-39.91.3-.43.19-.87-.28-1-.84-.24-1.06-1.04-.34-1.75.4-.4.37-.82-.1-.95-3.37-.96-6.75-1.92-10.12-2.88-.47-.13-1.21.07-1.61.46-.71.71-1.87,1.12-2.71.88-.47-.13-1.13.09-1.42.52h0Z"/>
              </g>
              <path class="cls-14" d="m91.35,38.37c2.75.78,5.26,3.92,5.74,7.04.48,3.12-1.5,4.98-4.27,4.2-2.75-.78-5.26-3.91-5.74-7.04-.48-3.12,1.5-4.99,4.27-4.2Z"/>
              <g>
                <path class="cls-3" d="m93.32,45.88c.64.18,1.06-.39.93-1.27-.13-.89-.83-1.78-1.4-1.94-.57-.16-.88.17-.78,1.21.1,1.04-.17,1.6-.75,1.43-.76-.22-1.27-1.05-1.4-1.94-.13-.89.29-1.46.93-1.28"/>
                <path class="cls-3" d="m94.37,44.64c.27.07.53.15.79.22"/>
                <path class="cls-3" d="m89,43.12c.29.08.58.17.87.25"/>
              </g>
              <g>
                <path class="cls-7" d="m92.82,56.89c.16-1.16.21-2.35.21-3.55"/>
                <path class="cls-7" d="m90.83,62.93c.59-1.01,1.04-2.06,1.37-3.14"/>
              </g>
              <g>
                <path class="cls-7" d="m92.11,27.76c.37-1.1.87-2.16,1.52-3.17"/>
                <path class="cls-7" d="m91.14,34.08c.01-1.17.09-2.33.27-3.45"/>
              </g>
              <path class="cls-1" d="m91.35,38.37c2.75.78,5.26,3.92,5.74,7.04.48,3.12-1.5,4.98-4.27,4.2-2.75-.78-5.26-3.91-5.74-7.04"/>
              <path class="cls-1" d="m87.37,39.89c.14-.3.32-.57.54-.8"/>
            </g>
            <g>
              <g>
                <path class="cls-14" d="m96.47,70.96c-.26.18-.67.27-.9.2-6.67-1.89-13.33-3.79-20-5.68-.24-.06-.21-.26.05-.45,17.31-12.23-5.23-35.78,12.07-48.01.26-.18.67-.27.9-.21,6.67,1.89,13.33,3.79,20,5.68.23.07.21.27-.05.45-17.31,12.23,5.23,35.78-12.07,48.01Z"/>
                <path class="cls-12" d="m88.12,17.14c6.67,1.89,13.33,3.79,20,5.68-17.31,12.23,5.23,35.78-12.07,48.01-6.67-1.89-13.33-3.79-20-5.68,17.31-12.23-5.23-35.78,12.07-48.01m-.85-.24c-17.31,12.23,5.23,35.78-12.07,48.01-.51.36-.59.76-.12.89,6.67,1.89,13.33,3.79,20,5.68.47.13,1.31-.04,1.82-.4,17.3-12.23-5.23-35.78,12.07-48.01.51-.36.59-.75.12-.89-6.67-1.89-13.33-3.79-20-5.68-.47-.13-1.31.04-1.82.4h0Z"/>
              </g>
              <g>
                <path class="cls-13" d="m98.04,66.19c-.15.21-.47.33-.7.26-1.08-.31-2.52.23-3.44,1.14-.2.2-.56.3-.79.23-3.37-.96-6.75-1.92-10.12-2.88-.24-.07-.26-.28-.06-.48.92-.91.6-1.94-.48-2.25-.23-.07-.3-.29-.15-.5,8-11.4-4.17-28.52,3.83-39.91.15-.21.47-.33.7-.26,1.08.31,2.52-.23,3.44-1.14.2-.2.56-.3.79-.24,3.37.96,6.75,1.92,10.12,2.88.24.07.26.28.06.48-.91.91-.6,1.94.48,2.25.24.07.3.29.15.5-8,11.39,4.17,28.52-3.83,39.91Z"/>
                <path class="cls-12" d="m86.55,21.92c1.32.38,3.02-.29,4.14-1.4,3.37.96,6.75,1.92,10.12,2.88-1.11,1.1-.68,2.38.63,2.75-8,11.39,4.17,28.52-3.83,39.92-1.32-.38-3.02.29-4.14,1.4-3.37-.96-6.75-1.92-10.12-2.88,1.11-1.11.68-2.38-.63-2.75,8-11.4-4.17-28.52,3.83-39.92m-.85-.24c-8,11.39,4.17,28.52-3.83,39.92-.3.42-.19.87.28,1,.84.24,1.06,1.04.34,1.75-.4.39-.37.81.1.95,3.38.96,6.75,1.92,10.12,2.88.47.13,1.21-.07,1.61-.46.71-.71,1.87-1.12,2.71-.88.47.13,1.13-.09,1.42-.52,8-11.4-4.17-28.52,3.83-39.91.3-.43.19-.87-.28-1-.84-.24-1.06-1.04-.34-1.75.4-.4.37-.82-.1-.95-3.37-.96-6.75-1.92-10.12-2.88-.47-.13-1.21.07-1.61.46-.71.71-1.87,1.12-2.71.88-.47-.13-1.13.09-1.42.52h0Z"/>
              </g>
              <path class="cls-14" d="m91.35,38.37c2.75.78,5.26,3.92,5.74,7.04.48,3.12-1.5,4.98-4.27,4.2-2.75-.78-5.26-3.91-5.74-7.04-.48-3.12,1.5-4.99,4.27-4.2Z"/>
              <g>
                <path class="cls-3" d="m93.32,45.88c.64.18,1.06-.39.93-1.27-.13-.89-.83-1.78-1.4-1.94-.57-.16-.88.17-.78,1.21.1,1.04-.17,1.6-.75,1.43-.76-.22-1.27-1.05-1.4-1.94-.13-.89.29-1.46.93-1.28"/>
                <path class="cls-3" d="m94.37,44.64c.27.07.53.15.79.22"/>
                <path class="cls-3" d="m89,43.12c.29.08.58.17.87.25"/>
              </g>
              <g>
                <path class="cls-7" d="m92.82,56.89c.16-1.16.21-2.35.21-3.55"/>
                <path class="cls-7" d="m90.83,62.93c.59-1.01,1.04-2.06,1.37-3.14"/>
              </g>
              <g>
                <path class="cls-7" d="m92.11,27.76c.37-1.1.87-2.16,1.52-3.17"/>
                <path class="cls-7" d="m91.14,34.08c.01-1.17.09-2.33.27-3.45"/>
              </g>
              <path class="cls-1" d="m91.35,38.37c2.75.78,5.26,3.92,5.74,7.04.48,3.12-1.5,4.98-4.27,4.2-2.75-.78-5.26-3.91-5.74-7.04"/>
              <path class="cls-1" d="m87.37,39.89c.14-.3.32-.57.54-.8"/>
            </g>
          </g>
          <g>
            <g>
              <path class="cls-11" d="m87.61,59.61c-1.32,0-2.58-.54-3.54-1.52-.94-.96-1.52-2.25-1.5-3.37.04-1.86,1.94-3.03,5-4.31,6.03-2.53,8.39-3.38,11.42-3.78.38-.05.97-.11,1.64-.11,2.88,0,4.79,1.07,5.4,3.02.72,2.32.68,4.25-.13,5.75-.85,1.58-2.28,2.19-3.05,2.41-3.2.92-5.66,1.11-9.38,1.4-1.51.12-3.25.25-5.36.46-.17.02-.34.02-.5.02h0Z"/>
              <path class="cls-12" d="m100.64,47.39c1.74,0,3.96.42,4.58,2.42,1.52,4.88-.98,6.62-2.6,7.09-4.37,1.26-7.24,1.11-14.58,1.83-.14.01-.28.02-.42.02-2.62,0-4.21-2.46-4.18-4.01.03-1.32,1.54-2.31,4.48-3.53,6.03-2.53,8.31-3.34,11.2-3.72.4-.05.94-.1,1.52-.1m0-1.72c-.72,0-1.35.06-1.75.12-3.13.41-5.54,1.28-11.64,3.84-2.77,1.16-5.48,2.51-5.53,5.09-.02,1.34.64,2.87,1.74,3.99,1.12,1.14,2.6,1.78,4.16,1.78.19,0,.39,0,.59-.03,2.1-.21,3.82-.34,5.34-.46,3.78-.29,6.27-.49,9.55-1.43.91-.26,2.57-.98,3.57-2.84.92-1.71.99-3.87.19-6.42-.42-1.35-1.79-3.63-6.22-3.63h0Z"/>
            </g>
            <g>
              <path class="cls-11" d="m101.78,67.98c-2,0-3.88-.2-6.48-.47-1.5-.16-3.24-.34-5.34-.52-3.46-.29-5.01-2.73-5.01-5.01,0-2.84,2.69-3.44,5.8-4.14,5.33-1.19,7.98-1.69,10.6-1.69.4,0,.79.01,1.19.03,1.8.09,6.05.68,6.52,4.14.4,2.88-.47,4.68-1.26,5.68-.81,1.03-1.95,1.7-3.04,1.81-1.02.1-2,.16-2.99.16h0Z"/>
              <path class="cls-12" d="m101.36,57.02c.38,0,.76.01,1.15.03,1.61.08,5.33.6,5.72,3.39.59,4.31-1.88,6.36-3.54,6.53-1.03.11-1.98.15-2.91.15-3.11,0-6.08-.51-11.74-.99-2.87-.24-4.22-2.16-4.22-4.15,0-2.12,2.06-2.61,5.13-3.3,5.46-1.22,7.96-1.66,10.42-1.66m0-1.72c-2.7,0-5.4.5-10.79,1.71-3.03.68-6.47,1.44-6.47,4.97,0,2.68,1.79,5.53,5.8,5.86,2.09.18,3.81.36,5.32.52,2.53.27,4.52.48,6.57.48,1.02,0,2.03-.05,3.08-.16,1.32-.13,2.68-.93,3.63-2.14.9-1.14,1.87-3.16,1.44-6.33-.39-2.84-3.13-4.66-7.33-4.88-.42-.02-.83-.03-1.24-.03h0Z"/>
            </g>
            <g>
              <path class="cls-11" d="m102.67,77.7c-3.29-.12-5.71-.71-9.36-1.61-1.48-.36-3.18-.78-5.26-1.25-3.2-.72-4.01-1.31-4.01-5.08,0-3.41,3.48-3.69,5.78-3.89,3.2-.27,5.56-.43,7.48-.43,1.62,0,2.94.12,4.41.4,1.81.34,6.01,1.51,6.02,4.99,0,2.95-1.03,4.61-1.91,5.5-.87.87-1.98,1.37-3.04,1.37h-.12Z"/>
              <path class="cls-12" d="m97.3,66.31c1.63,0,2.88.12,4.25.38,1.59.3,5.32,1.32,5.33,4.15.01,4.31-2.43,6-4.09,6-.03,0-.06,0-.09,0-4.5-.16-7.23-1.21-14.46-2.83-2.82-.63-3.34-.88-3.34-4.24,0-2.29,1.89-2.77,5-3.03,3.36-.28,5.61-.43,7.4-.43m0-1.72c-1.94,0-4.33.17-7.55.44-2.3.19-6.57.54-6.57,4.74s1.11,5.12,4.68,5.92c2.07.46,3.75.88,5.24,1.24,3.7.91,6.15,1.51,9.53,1.63.05,0,.1,0,.15,0,1.29,0,2.62-.59,3.65-1.62.99-1,2.17-2.86,2.16-6.1-.01-2.9-2.46-5.03-6.73-5.83-1.52-.29-2.89-.41-4.57-.41h0Z"/>
            </g>
            <g>
              <path class="cls-11" d="m98.51,85.16c-2.7-.1-4.67-.58-7.65-1.31-1.2-.29-2.57-.63-4.25-1.01-2.72-.61-2.61-2.85-2.55-4.06,0-.15.02-.3.02-.43.02-1.27.73-2.84,3.99-3.11.62-.05,1.29-.08,2.01-.08,4.05,0,10.53.9,12.24,2.91.49.58.52,1.13.47,1.5-.43,2.7-2.23,5.6-4.2,5.6h-.07Z"/>
              <path class="cls-12" d="m90.08,76.02c5.21,0,12.18,1.41,11.86,3.41-.41,2.53-2.01,4.87-3.35,4.87-.01,0-.03,0-.04,0-3.65-.13-5.86-.98-11.74-2.3-2.29-.51-1.88-2.43-1.86-3.64.02-1.08.68-2.06,3.21-2.27.6-.05,1.25-.07,1.94-.07m0-1.72c-.74,0-1.44.03-2.08.08-4.11.34-4.76,2.62-4.78,3.95,0,.13,0,.26-.02.4-.06,1.14-.21,4.17,3.22,4.94,1.67.37,3.03.71,4.23,1,3.03.74,5.04,1.24,7.82,1.33h.03s.07,0,.07,0c2.53,0,4.55-3.21,5.05-6.32.12-.77-.11-1.55-.66-2.19-.33-.39-1.33-1.57-5.57-2.45-2.28-.48-4.95-.75-7.33-.75h0Z"/>
            </g>
          </g>
          <path class="cls-6" d="m66.27,54.31s3.24-3.23,5.39-4.51c8.08-4.8,15.47-6.57,18.49-3.23,2.76,3.06,1.79,10.11,3.91,13.67.8,1.35.38,3.64-2.22,4.09-7.74,1.32-9.5-6.81-9.76-9.14,0,0,.38,13.06-7.34,12.37"/>
        </g>
      </g>
    </g>
  </g>
</svg>