<?xml version="1.0" encoding="utf-8"?>
<!-- Generator: Adobe Illustrator 27.7.0, SVG Export Plug-In . SVG Version: 6.00 Build 0)  -->
<svg version="1.1" id="Layer_1" xmlns="http://www.w3.org/2000/svg" xmlns:xlink="http://www.w3.org/1999/xlink" x="0px" y="0px"
	 viewBox="0 0 512 512" style="enable-background:new 0 0 512 512;" xml:space="preserve">
<style type="text/css">
	.st0{fill:#0FB9ED;}
	.st1{fill:#FFFFFF;}
</style>
<circle class="st0" cx="253.5" cy="273.5" r="228.5"/>
<path class="st1" d="M371,166.7v-60.4c0-0.2-0.1-0.3-0.3-0.4c-19.7-3.2-39.5-4.8-59.5-4.8c-38.5,0-74.4,18.4-87.7,56.3
	c-4.2,12.1-6.4,25.2-6.4,39.5c-0.1,17.9-0.1,35.8-0.1,53.7c0,0.3-0.2,0.5-0.5,0.5h-55.1c-0.2,0-0.4,0.2-0.4,0.4v69.1
	c0,0.3,0.2,0.5,0.5,0.5l0,0h55c0.4,0,0.5,0.2,0.5,0.5V499c0,0.1-0.1,0.2-0.2,0.2l0,0c-47.7-7.9-91.7-27.3-127.8-59.7
	C46.2,401,19.7,353.6,9.6,297.4c-10.1-56.3-1.1-113.5,25.8-163.5C69.9,69.7,133.2,22.4,205.3,8.5C281.1-6.1,360.7,14.6,418.1,67
	c51.6,47.2,79.2,106.1,82.6,176.8c0.3,6.6,0.3,13.3-0.1,20c-4.6,78.5-37.8,141.7-99.5,189.6c-29.1,22.6-62.3,37.8-99.6,45.8
	c-0.3,0.1-0.5-0.1-0.5-0.4v-177c0-0.3,0.2-0.5,0.5-0.5H349c0.4,0,0.6-0.2,0.6-0.5l10.8-68.9c0.1-0.4-0.1-0.6-0.5-0.6h-72.5
	c-0.3,0-0.5-0.2-0.5-0.5c-0.1-14.3-0.1-28.6,0-42.8c0-6.6,0.5-11.6,1.3-14.8c5-19.1,20.3-25.8,38.6-25.9c14.5,0,29-0.1,43.5-0.1
	C370.9,167.2,371,167,371,166.7z"/>
</svg>
