<?xml version="1.0" encoding="utf-8"?>
<!-- Generator: Adobe Illustrator 27.7.0, SVG Export Plug-In . SVG Version: 6.00 Build 0)  -->
<svg version="1.1" id="Layer_1" xmlns="http://www.w3.org/2000/svg" xmlns:xlink="http://www.w3.org/1999/xlink" x="0px" y="0px"
	 viewBox="0 0 512 512" style="enable-background:new 0 0 512 512;" xml:space="preserve">
<style type="text/css">
	.st0{fill:none;stroke:#80BBDA;stroke-width:2;}
	.st1{fill:#FFFFFF;}
	.st2{fill:#0FB9ED;}
</style>
<g>
	<path vector-effect="non-scaling-stroke" class="st0" d="M184.4,139.6c0-24.1-19.5-43.6-43.6-43.6l0,0c-24.1,0-43.6,19.5-43.6,43.6
		c0,24.1,19.5,43.6,43.6,43.6S184.4,163.7,184.4,139.6"/>
	<path vector-effect="non-scaling-stroke" class="st0" d="M272.6,227.4c0.1-4.4,0.1-8.9,0-13.3c0-3.6-0.6-6.2-1.6-7.9
		c-1.8-3.1-4.9-4.6-9.1-4.6c-15.7,0-31.3,0-47,0c-4,0-6.8,1.6-8.5,4.7c-1,1.7-1.4,4.6-1.4,8.5c0,62.6,0,125.2,0,187.9
		c0,10.5,3.4,13.4,14.1,13.4c14.1,0,28.3,0,42.4,0c4.9,0,8.2-1.8,9.9-5.4c0.8-1.7,1.2-5,1.2-9.9c0-30.2,0-60.5,0-90.7
		c0-7,0.3-12.3,1-16c4.1-22.9,16.5-39.6,42-37.3c8.7,0.8,15.7,4.6,20.9,11.4c9.2,12.1,9.3,28.9,9.3,43.4c0,31.3-0.1,62.7,0,94
		c0,4.3,1.6,7.3,4.8,9c1.7,1,4.6,1.4,8.6,1.4c13.4,0,26.8,0,40.2,0c5.1,0,8.4-0.3,10-1c3.8-1.5,5.7-4.8,5.8-9.8
		c0.2-22.4,0.2-56.4-0.1-101.9c-0.1-26.7-2.2-57.8-19.2-79.9c-20.1-26.1-57.7-29.3-87.7-21.6c-14.9,3.8-25.8,13.2-34.8,25.7
		C272.8,228.1,272.6,228,272.6,227.4"/>
	<path vector-effect="non-scaling-stroke" class="st0" d="M174.5,212.4c0-6-4.9-10.9-10.9-10.9h-45.8c-6,0-10.9,4.9-10.9,10.9v192.7
		c0,6,4.9,10.9,10.9,10.9c0,0,0,0,0,0h45.8c6,0,10.9-4.9,10.9-10.9l0,0V212.4"/>
</g>
<path class="st1" d="M248.4,0h15.1C400,4.8,506.9,112.6,512,248.6v14.8c-2.6,74.8-37,144.5-94.5,191.1
	c-44.5,36-95.9,55.2-154.2,57.4h-14.8c-74.3-2.6-143.5-36.4-190.1-93.2C21.8,374.1,2.3,322.4,0,263.6v-15.3
	C5,112.5,112.2,4.8,248.4,0z M184.4,139.6c0-24.1-19.5-43.6-43.6-43.6l0,0c-24.1,0-43.6,19.5-43.6,43.6c0,24.1,19.5,43.6,43.6,43.6
	S184.4,163.7,184.4,139.6z M272.6,227.4c0.1-4.4,0.1-8.9,0-13.3c0-3.6-0.6-6.2-1.6-7.9c-1.8-3.1-4.9-4.6-9.1-4.6
	c-15.7,0-31.3,0-47,0c-4,0-6.8,1.6-8.5,4.7c-1,1.7-1.4,4.6-1.4,8.5c0,62.6,0,125.2,0,187.9c0,10.5,3.4,13.4,14.1,13.4
	c14.1,0,28.3,0,42.4,0c4.9,0,8.2-1.8,9.9-5.4c0.8-1.7,1.2-5,1.2-9.9c0-30.2,0-60.5,0-90.7c0-7,0.3-12.3,1-16
	c4.1-22.9,16.5-39.6,42-37.3c8.7,0.8,15.7,4.6,20.9,11.4c9.2,12.1,9.3,28.9,9.3,43.4c0,31.3-0.1,62.7,0,94c0,4.3,1.6,7.3,4.8,9
	c1.7,1,4.6,1.4,8.6,1.4c13.4,0,26.8,0,40.2,0c5.1,0,8.4-0.3,10-1c3.8-1.5,5.7-4.8,5.8-9.8c0.2-22.4,0.2-56.4-0.1-101.9
	c-0.1-26.7-2.2-57.8-19.2-79.9c-20.1-26.1-57.7-29.3-87.7-21.6c-14.9,3.8-25.8,13.2-34.8,25.7C272.8,228.1,272.6,228,272.6,227.4z
	 M174.5,212.4c0-6-4.9-10.9-10.9-10.9h-45.8c-6,0-10.9,4.9-10.9,10.9v192.7c0,6,4.9,10.9,10.9,10.9c0,0,0,0,0,0h45.8
	c6,0,10.9-4.9,10.9-10.9l0,0V212.4z"/>
<circle class="st2" cx="140.8" cy="139.6" r="43.6"/>
<path class="st2" d="M273.1,227.6c9.1-12.5,19.9-21.9,34.8-25.7c30-7.7,67.6-4.5,87.7,21.6c17,22.1,19,53.3,19.2,79.9
	c0.2,45.5,0.3,79.5,0.1,101.9c0,5-2,8.3-5.8,9.8c-1.6,0.6-4.9,1-10,1c-13.4,0-26.8,0-40.2,0c-4,0-6.9-0.5-8.6-1.4
	c-3.2-1.8-4.8-4.8-4.8-9c0-31.3,0-62.7,0-94c0-14.5,0-31.3-9.3-43.4c-5.2-6.8-12.2-10.6-20.9-11.4c-25.5-2.2-37.8,14.4-42,37.3
	c-0.7,3.6-1,8.9-1,16c0,30.2,0,60.5,0,90.7c0,4.9-0.4,8.2-1.2,9.9c-1.6,3.6-4.9,5.4-9.9,5.4c-14.1,0-28.3,0-42.4,0
	c-10.7,0-14.1-2.9-14.1-13.4c0-62.6,0-125.2,0-187.9c0-3.9,0.5-6.8,1.4-8.5c1.7-3.1,4.6-4.7,8.5-4.7c15.7,0,31.3,0,47,0
	c4.2,0,7.2,1.5,9.1,4.6c1,1.7,1.5,4.3,1.6,7.9c0,4.4,0,8.9,0,13.3C272.6,228,272.8,228.1,273.1,227.6z"/>
<path class="st2" d="M117.8,201.5h45.8c6,0,10.9,4.9,10.9,10.9v192.7c0,6-4.9,10.9-10.9,10.9h-45.8c-6,0-10.9-4.9-10.9-10.9V212.4
	C107,206.4,111.8,201.5,117.8,201.5z"/>
</svg>
