<?xml version="1.0" encoding="utf-8"?>
<!-- Generator: Adobe Illustrator 27.7.0, SVG Export Plug-In . SVG Version: 6.00 Build 0)  -->
<svg version="1.1" id="Layer_1" xmlns="http://www.w3.org/2000/svg" xmlns:xlink="http://www.w3.org/1999/xlink" x="0px" y="0px"
	 viewBox="0 0 512 512" style="enable-background:new 0 0 512 512;" xml:space="preserve">
<style type="text/css">
	.st0{fill:none;stroke:#808080;stroke-width:2;}
	.st1{fill:#FFFFFF;}
	.st2{fill:#0FB9ED;}
</style>
<g>
	<path vector-effect="non-scaling-stroke" class="st0" d="M272.7,215.8c-0.1,0.1-0.3,0.1-0.4,0c0,0,0,0,0-0.1l-75.7-110.1
		c-0.1-0.1-0.2-0.1-0.2-0.1h-86.9c-0.2,0-0.3,0.1-0.3,0.3c0,0.1,0,0.1,0.1,0.2l114.4,166.6c0.1,0.1,0.1,0.3,0,0.4L109.3,405.8
		c-0.1,0.1-0.1,0.3,0,0.4c0.1,0,0.1,0.1,0.2,0.1h25.2c0.1,0,0.2,0,0.2-0.1L235,289.8c0.1-0.1,0.3-0.1,0.4,0c0,0,0,0,0,0.1
		l79.9,116.3c0.1,0.1,0.2,0.1,0.2,0.1h86.9c0.2,0,0.3-0.1,0.3-0.3c0-0.1,0-0.1-0.1-0.2L284.1,233c-0.1-0.1-0.1-0.3,0-0.4l109-126.7
		c0.1-0.1,0.1-0.3,0-0.4c-0.1,0-0.1-0.1-0.2-0.1h-25.2c-0.1,0-0.2,0-0.2,0.1L272.7,215.8"/>
	<path vector-effect="non-scaling-stroke" class="st0" d="M184.1,125.1c-0.1-0.1-0.2-0.1-0.3-0.1h-39.1c-0.2,0-0.3,0.1-0.3,0.3
		c0,0.1,0,0.1,0.1,0.2l183.1,261.9c0.1,0.1,0.2,0.1,0.3,0.1H367c0.2,0,0.3-0.1,0.3-0.3c0-0.1,0-0.1-0.1-0.2L184.1,125.1"/>
</g>
<path class="st1" d="M248.6,0h15c69.1,3.2,127.5,28.8,175.2,76.9c45.6,46,70.6,106.7,73.2,171.7v15C507,399.8,399.5,507.3,263.2,512
	h-14.6c-74.4-2.5-143.8-36.5-190.4-93.5C21.7,373.9,2.3,322.3,0,263.7v-15.5C5.2,112.5,112.1,4.7,248.6,0z M272.7,215.8
	c-0.1,0.1-0.3,0.1-0.4,0c0,0,0,0,0-0.1l-75.7-110.1c-0.1-0.1-0.2-0.1-0.2-0.1h-86.9c-0.2,0-0.3,0.1-0.3,0.3c0,0.1,0,0.1,0.1,0.2
	l114.4,166.6c0.1,0.1,0.1,0.3,0,0.4L109.3,405.8c-0.1,0.1-0.1,0.3,0,0.4c0.1,0,0.1,0.1,0.2,0.1h25.2c0.1,0,0.2,0,0.2-0.1L235,289.8
	c0.1-0.1,0.3-0.1,0.4,0c0,0,0,0,0,0.1l79.9,116.3c0.1,0.1,0.2,0.1,0.2,0.1h86.9c0.2,0,0.3-0.1,0.3-0.3c0-0.1,0-0.1-0.1-0.2
	L284.1,233c-0.1-0.1-0.1-0.3,0-0.4l109-126.7c0.1-0.1,0.1-0.3,0-0.4c-0.1,0-0.1-0.1-0.2-0.1h-25.2c-0.1,0-0.2,0-0.2,0.1L272.7,215.8
	z"/>
<path class="st2" d="M272.7,215.8l94.8-110.2c0.1-0.1,0.1-0.1,0.2-0.1h25.2c0.2,0,0.3,0.1,0.3,0.3c0,0.1,0,0.1-0.1,0.2l-109,126.7
	c-0.1,0.1-0.1,0.3,0,0.4l118.7,172.8c0.1,0.1,0.1,0.3-0.1,0.4c-0.1,0-0.1,0.1-0.2,0.1h-86.9c-0.1,0-0.2,0-0.2-0.1l-79.9-116.3
	c-0.1-0.1-0.3-0.2-0.4-0.1c0,0,0,0-0.1,0L134.9,406.2c-0.1,0.1-0.1,0.1-0.2,0.1h-25.2c-0.2,0-0.3-0.1-0.3-0.3c0-0.1,0-0.1,0.1-0.2
	l114.3-132.9c0.1-0.1,0.1-0.3,0-0.4L109.2,106c-0.1-0.1-0.1-0.3,0.1-0.4c0.1,0,0.1-0.1,0.2-0.1h86.9c0.1,0,0.2,0,0.2,0.1l75.7,110.1
	C272.4,215.9,272.5,215.9,272.7,215.8C272.7,215.8,272.7,215.8,272.7,215.8z M184.1,125.1c-0.1-0.1-0.2-0.1-0.3-0.1h-39.1
	c-0.2,0-0.3,0.1-0.3,0.3c0,0.1,0,0.1,0.1,0.2l183.1,261.9c0.1,0.1,0.2,0.1,0.3,0.1H367c0.2,0,0.3-0.1,0.3-0.3c0-0.1,0-0.1-0.1-0.2
	L184.1,125.1z"/>
<path class="st1" d="M184.1,125.1l183.1,261.9c0.1,0.1,0.1,0.4-0.1,0.5c-0.1,0-0.1,0.1-0.2,0.1h-39.1c-0.1,0-0.2-0.1-0.3-0.1
	L144.5,125.5c-0.1-0.1-0.1-0.4,0.1-0.5c0.1,0,0.1-0.1,0.2-0.1h39.1C184,125,184.1,125.1,184.1,125.1z"/>
</svg>
