<?xml version="1.0" encoding="UTF-8"?>
<svg id="Layer_1" data-name="Layer 1" xmlns="http://www.w3.org/2000/svg" xmlns:xlink="http://www.w3.org/1999/xlink" viewBox="0 0 58.91 51.51">
  <defs>
    <style>
      .cls-1 {
        stroke: url(#linear-gradient-2);
      }

      .cls-1, .cls-2, .cls-3 {
        fill: none;
      }

      .cls-2 {
        stroke: url(#linear-gradient);
      }

      .cls-3 {
        stroke: url(#linear-gradient-3);
      }
    </style>
    <linearGradient id="linear-gradient" x1="0" y1="25.76" x2="58.91" y2="25.76" gradientUnits="userSpaceOnUse">
      <stop offset="0" stop-color="#2d35ef"/>
      <stop offset=".09" stop-color="#3c31ed"/>
      <stop offset=".37" stop-color="#6627e8"/>
      <stop offset=".63" stop-color="#841fe4"/>
      <stop offset=".85" stop-color="#961be2"/>
      <stop offset="1" stop-color="#9d1ae2"/>
    </linearGradient>
    <linearGradient id="linear-gradient-2" x1="3.28" y1="7.52" x2="51.78" y2="7.52" xlink:href="#linear-gradient"/>
    <linearGradient id="linear-gradient-3" x1="3.19" y1="30.88" x2="55.55" y2="30.88" xlink:href="#linear-gradient"/>
  </defs>
  <path class="cls-2" d="m57.98,32.26c.05-5.61.06-11.24.04-16.87,0-2.34-.8-3.65-3.15-3.89-.43-.05-.64-.29-.63-.72l.13-6.02c.01-.36.19-.58.54-.65,1.55-.35,3.99.01,2.99-2.83-.16-.46-.59-.76-1.07-.76-16.07-.03-32.17-.02-48.31.01C3.02.54.54,3.5.52,9.04c-.02,8.66-.01,17.32.04,25.97-.22,9.77-.42,15.99,11.36,16,13.46.01,26.92,0,40.38,0,8.35-.01,5.73-13.38,5.68-18.74ZM3.78,7.51c0-2.07,1.79-3.75,3.99-3.75h42.97c.3,0,.54.24.54.54v6.44c0,.3-.24.54-.54.54H7.77c-2.2,0-3.99-1.68-3.99-3.75v-.02Zm51.25,36.99c.08,2.15-.86,3.23-2.82,3.23-13.53.03-27.06.04-40.59.02-4.16,0-7.88-1.04-7.86-5.74.03-8.41.02-16.83-.03-25.25l-.04-2.36c-.01-.33.15-.46.47-.37.91.25,1.69.73,2.64.71,16.08-.37,32.16-.1,48.24.81-.34,10.24-.34,19.89-.01,28.95Z"/>
  <path class="cls-1" d="m51.28,4.3v6.44c0,.3-.24.54-.54.54H7.77c-2.2,0-3.99-1.68-3.99-3.75v-.02c0-2.07,1.79-3.75,3.99-3.75h42.97c.3,0,.54.24.54.54Z"/>
  <path class="cls-3" d="m55.03,44.5c.08,2.15-.86,3.23-2.82,3.23-13.53.03-27.06.04-40.59.02-4.16,0-7.88-1.04-7.86-5.74.03-8.41.02-16.83-.03-25.25l-.04-2.36c-.01-.33.15-.46.47-.37.91.25,1.69.73,2.64.71,16.08-.37,32.16-.1,48.24.81-.34,10.24-.34,19.89-.01,28.95Z"/>
</svg>