<?xml version="1.0" standalone="no"?>
<!DOCTYPE svg PUBLIC "-//W3C//DTD SVG 20010904//EN"
 "http://www.w3.org/TR/2001/REC-SVG-20010904/DTD/svg10.dtd">
<svg version="1.0" xmlns="http://www.w3.org/2000/svg"
 width="4268.000000pt" height="4268.000000pt" viewBox="0 0 4268.000000 4268.000000"
 preserveAspectRatio="xMidYMid meet">
<metadata>
Created by potrace 1.16, written by Peter Selinger 2001-2019
</metadata>
<g transform="translate(0.000000,4268.000000) scale(0.100000,-0.100000)"
fill="#000000" stroke="none">
<path d="M26600 36577 c-3 -2 -61 -7 -130 -10 -182 -9 -261 -41 -168 -69 62
-18 1174 -19 1236 0 75 23 48 45 -74 62 -78 11 -854 27 -864 17z"/>
<path d="M25912 36425 c-68 -16 -82 -29 -59 -53 16 -15 47 -17 292 -20 230 -3
276 -6 287 -19 19 -23 -17 -47 -114 -74 -90 -25 -292 -35 -316 -16 -7 5 -15 7
-19 4 -3 -4 -18 2 -33 13 -15 10 -38 21 -51 24 -142 29 -177 30 -256 11 -13
-3 -33 -7 -45 -10 -51 -11 -49 -48 2 -59 18 -3 86 -6 151 -6 108 0 199 -14
199 -31 0 -17 -75 -60 -126 -74 -77 -20 -120 -19 -152 4 -15 10 -30 19 -34 20
-4 1 -13 3 -20 6 -95 31 -183 33 -238 5 -72 -36 -42 -59 88 -66 184 -10 197
-16 144 -67 -28 -27 -50 -34 -132 -41 -38 -3 -51 1 -79 24 -32 27 -39 28 -133
28 -96 0 -100 0 -110 -24 -17 -37 -1 -45 102 -53 90 -8 109 -16 110 -48 0 -6
-12 -21 -26 -32 -40 -32 -126 -29 -171 5 -43 33 -89 40 -136 20 -44 -18 -56
-41 -34 -63 12 -12 37 -16 94 -17 43 -1 83 -5 89 -11 19 -16 -10 -60 -48 -75
-18 -6 -43 -17 -55 -23 -19 -9 -29 -4 -68 32 -45 42 -58 45 -110 25 -28 -10
-55 -35 -55 -50 0 -7 15 -17 33 -23 76 -23 112 -41 109 -53 -6 -23 -34 -47
-63 -53 -23 -5 -33 -1 -53 21 -20 24 -31 28 -71 27 -53 -2 -75 -16 -75 -48 0
-23 17 -35 49 -35 10 0 28 -9 41 -20 21 -18 22 -23 10 -45 -20 -37 -56 -43
-86 -14 -21 20 -24 31 -24 91 0 61 -2 68 -20 68 -18 0 -20 -7 -20 -71 0 -64
-2 -70 -19 -64 -24 7 -53 -21 -49 -49 2 -15 12 -22 37 -26 63 -9 73 -76 16
-102 -24 -11 -29 -9 -50 18 -20 23 -24 41 -25 89 0 60 0 60 -30 61 l-30 2 0
-59 c0 -48 -4 -60 -20 -69 -12 -6 -20 -21 -20 -35 0 -19 10 -28 45 -44 35 -15
45 -25 45 -43 0 -31 -32 -81 -68 -107 l-30 -21 -6 57 c-18 179 -16 174 -37
163 -13 -7 -19 -7 -19 0 0 5 -4 10 -10 10 -6 0 -10 -40 -10 -101 0 -100 9
-129 40 -129 8 0 10 -8 6 -22 -3 -13 -9 -40 -12 -61 -5 -27 -17 -46 -43 -67
-19 -17 -39 -30 -43 -30 -5 0 -8 24 -8 54 0 48 2 54 19 49 27 -7 36 14 11 27
-11 6 -20 7 -20 3 0 -4 -7 5 -15 21 -8 15 -15 46 -15 67 0 32 -4 39 -19 39
-11 0 -21 6 -24 13 -2 6 -7 -44 -11 -113 -4 -69 -12 -135 -18 -147 -16 -32 -3
-53 32 -53 26 0 30 -3 30 -29 0 -55 -55 -150 -95 -164 -3 -1 -8 50 -10 113 -3
66 -9 116 -15 118 -5 2 -10 12 -10 23 0 10 -7 19 -15 19 -8 0 -15 -7 -15 -15
0 -18 -16 -20 -24 -2 -3 6 -4 -54 0 -136 4 -117 3 -147 -8 -145 -7 2 -14 -7
-16 -19 -2 -14 2 -23 10 -24 7 0 21 -2 31 -4 11 -2 19 4 22 18 2 12 6 31 8 42
3 11 5 -7 6 -39 1 -50 -3 -65 -26 -95 -15 -20 -31 -39 -37 -43 -16 -11 -46 49
-46 91 0 21 -3 72 -6 114 -6 71 -9 77 -30 77 -12 0 -25 6 -27 13 -3 6 -6 -16
-6 -50 -1 -35 -5 -63 -11 -63 -6 0 -10 -33 -10 -79 0 -75 2 -81 30 -109 16
-16 36 -32 46 -36 10 -4 14 -12 9 -24 -3 -9 -9 -38 -12 -63 -4 -34 -14 -55
-39 -82 -19 -20 -34 -42 -34 -49 0 -9 -3 -9 -10 2 -5 8 -10 11 -10 5 0 -5 -5
-3 -10 5 -5 8 -10 38 -10 66 0 28 -3 85 -6 127 l-7 76 -28 -6 c-18 -3 -29 -1
-29 6 0 6 -4 11 -10 11 -6 0 -10 -54 -10 -143 0 -127 2 -146 18 -160 10 -10
22 -17 26 -17 4 0 14 -7 23 -15 13 -14 13 -24 2 -81 -11 -53 -19 -71 -47 -95
-60 -53 -66 -43 -72 116 -3 77 -7 134 -8 126 -1 -10 -12 -12 -37 -8 l-36 6 3
-151 c3 -138 5 -152 23 -162 44 -25 47 -32 30 -81 -8 -25 -15 -51 -15 -57 0
-13 -69 -77 -82 -78 -10 0 -10 -2 -9 150 0 69 -2 119 -5 113 -10 -22 -24 -14
-25 15 l-1 27 -8 -30 c-4 -16 -8 -25 -9 -19 0 7 -10 14 -21 17 -21 5 -21 3
-15 -147 3 -84 5 -158 5 -164 0 -7 14 -12 30 -12 27 0 30 -3 30 -33 0 -18 -4
-37 -9 -42 -5 -6 -14 -27 -21 -47 -6 -21 -15 -38 -19 -38 -4 0 -21 -11 -36
-24 -16 -14 -32 -23 -36 -20 -4 2 -12 -4 -18 -13 -9 -15 -10 -13 -11 15 0 20
5 32 14 32 17 0 26 52 26 158 0 53 -4 81 -10 77 -6 -4 -10 15 -10 49 0 49 -2
56 -20 56 -18 0 -20 -7 -20 -60 0 -49 -3 -58 -15 -54 -13 5 -15 -6 -15 -70 0
-44 4 -76 10 -76 6 0 10 -27 10 -60 0 -47 -3 -60 -15 -60 -9 0 -15 -9 -15 -24
0 -29 33 -44 55 -26 13 11 15 7 15 -24 0 -40 -37 -116 -75 -152 l-22 -22 -13
185 c-13 183 -14 184 -36 179 -13 -4 -24 -1 -27 7 -3 6 -6 -16 -6 -50 -1 -35
-5 -63 -11 -63 -6 0 -10 -33 -10 -80 0 -64 3 -80 15 -80 12 0 15 -13 15 -61 0
-56 -2 -61 -20 -56 -13 3 -21 -1 -25 -14 -10 -30 4 -41 46 -37 37 3 39 2 39
-25 0 -17 -17 -52 -42 -88 l-43 -61 -8 49 c-4 26 -13 103 -19 171 -11 124 -14
131 -52 116 -12 -4 -16 -20 -16 -55 0 -27 -4 -49 -10 -49 -6 0 -10 -35 -10
-85 0 -74 3 -86 20 -97 11 -7 20 -18 20 -25 0 -7 7 -13 15 -13 8 0 15 -8 16
-17 0 -15 2 -15 9 2 8 19 9 19 9 -2 1 -12 -3 -25 -9 -28 -5 -3 -10 -24 -10
-45 0 -33 -6 -46 -37 -75 -65 -59 -68 -54 -78 112 l-7 111 -33 4 -32 4 -7 -90
c-3 -49 -6 -115 -6 -147 0 -55 1 -58 35 -78 27 -15 35 -27 35 -48 0 -56 -19
-97 -55 -120 -63 -41 -65 -38 -66 105 0 70 -3 121 -6 115 -6 -15 -53 -18 -53
-3 0 6 -5 10 -10 10 -7 0 -10 -55 -8 -157 l3 -158 26 -3 c37 -4 42 -34 19
-100 -11 -30 -21 -56 -22 -57 -2 -1 -17 -10 -34 -18 l-32 -16 -7 114 c-4 63
-11 115 -16 115 -5 0 -9 6 -9 14 0 8 -7 16 -15 20 -11 4 -15 -2 -15 -20 0 -23
-1 -24 -16 -10 -8 9 -18 16 -21 16 -3 0 -2 -64 2 -141 5 -111 4 -143 -6 -150
-20 -12 8 -39 42 -39 25 0 29 -4 29 -27 0 -41 -41 -118 -72 -136 l-28 -16 0
49 c0 27 -4 52 -10 55 -5 3 -10 28 -10 54 0 79 -9 109 -31 104 -10 -3 -19 -12
-19 -19 0 -17 -17 -18 -23 -1 -8 18 -8 -64 0 -202 6 -112 8 -122 25 -118 29 8
24 -53 -7 -83 l-26 -24 -24 25 c-22 22 -24 35 -31 147 -4 68 -10 118 -14 111
-5 -6 -15 -9 -24 -6 -14 5 -16 -3 -16 -53 0 -33 -4 -60 -10 -60 -6 0 -10 -37
-10 -90 0 -53 4 -90 10 -90 6 0 10 -12 10 -26 0 -14 4 -23 9 -20 13 8 21 -43
14 -93 -6 -45 -37 -76 -70 -69 -20 4 -30 62 -32 188 -1 46 -4 61 -11 50 -8
-11 -12 -12 -18 -3 -21 33 -32 -9 -38 -155 -6 -135 -5 -152 9 -152 21 0 31
-50 22 -108 -7 -47 -26 -71 -57 -72 -15 0 -18 9 -18 46 0 27 -4 43 -10 39 -6
-4 -10 21 -10 69 l0 75 -29 -9 c-21 -6 -31 -5 -34 3 -7 20 -20 -241 -14 -291
3 -25 10 -48 16 -50 14 -5 14 -25 0 -56 -10 -21 -15 -23 -30 -15 -16 8 -19 22
-19 85 0 48 -4 73 -10 69 -5 -3 -10 0 -10 8 0 9 -10 15 -25 15 -20 0 -25 -6
-25 -24 0 -17 -4 -22 -15 -18 -12 5 -15 -4 -15 -50 0 -49 -3 -56 -19 -56 -11
0 -27 -7 -35 -16 -11 -11 -25 -14 -46 -9 l-30 7 0 -56 c0 -38 -4 -56 -12 -57
-7 -1 -60 -2 -117 -4 -123 -3 -131 1 -131 74 0 34 -4 51 -12 52 -15 2 -12 2
-66 -4 -32 -4 -42 -2 -42 9 0 15 -11 15 -104 -3 -16 -3 -31 -1 -35 5 -4 6 -25
7 -53 2 -28 -4 -48 -3 -48 2 0 5 -9 7 -20 3 -17 -5 -19 0 -22 57 l-3 63 -52
-3 c-34 -1 -53 2 -53 9 0 7 -14 8 -42 3 -60 -10 -138 -12 -138 -2 0 4 -11 3
-24 -2 -25 -9 -57 -7 -76 5 -6 3 -10 35 -10 70 l0 64 -47 0 c-27 -1 -66 0 -88
1 -22 1 -53 -1 -68 -4 -16 -3 -41 0 -55 6 -15 5 -42 11 -61 12 -55 2 -52 26 3
26 34 0 46 4 46 15 0 10 10 15 33 15 17 0 38 4 45 9 20 12 -14 36 -49 33 -16
-1 -29 2 -29 7 0 6 -29 10 -65 9 -36 0 -68 2 -71 5 -4 3 -23 -1 -42 -9 -40
-16 -87 -11 -96 12 -8 20 3 44 20 44 8 0 14 4 14 9 0 5 26 11 58 15 31 3 63 7
70 8 6 1 12 7 12 14 0 7 -10 11 -25 9 -14 -1 -25 1 -25 5 0 4 -6 7 -12 8 -44
5 -78 15 -78 23 0 10 -75 2 -99 -10 -10 -6 -24 -5 -35 1 -13 7 -30 7 -58 -3
-44 -14 -91 -4 -96 22 -4 20 25 29 96 29 39 0 52 4 52 15 0 9 9 15 25 15 18 0
25 5 25 20 0 13 -9 22 -25 26 -14 3 -25 10 -25 15 0 15 -162 10 -190 -6 -14
-8 -31 -17 -38 -21 -17 -8 -104 26 -110 44 -2 7 6 12 22 12 14 0 26 4 26 9 0
5 16 12 36 16 51 9 84 26 84 42 0 8 -4 11 -10 8 -5 -3 -10 -2 -10 3 0 12 -54
35 -90 38 -14 2 -45 -4 -69 -13 -34 -12 -45 -13 -51 -3 -4 7 -9 8 -11 2 -2 -5
-25 -12 -52 -14 -53 -6 -73 8 -62 42 6 19 13 21 66 18 40 -2 59 1 59 8 0 7 12
15 26 18 30 8 29 33 -1 50 -11 6 -23 15 -26 19 -10 14 -179 -1 -205 -18 -32
-21 -57 -19 -80 6 -18 20 -18 21 1 35 11 7 25 17 30 22 6 5 28 12 48 16 47 9
47 28 0 52 -21 10 -40 21 -43 24 -3 3 -20 6 -38 7 -28 1 -37 -4 -60 -37 -30
-43 -45 -46 -82 -12 -14 12 -29 22 -35 22 -15 0 -68 50 -94 88 -12 17 -28 32
-34 32 -23 0 -248 235 -333 347 -68 89 -68 110 -4 134 35 13 46 22 48 42 2 18
-3 29 -17 37 -18 9 -21 20 -21 70 0 47 -3 60 -15 60 -8 0 -15 5 -15 10 0 6 -7
10 -15 10 -8 0 -15 -5 -15 -11 0 -5 -4 -7 -10 -4 -6 3 -10 -4 -10 -17 -1 -20
-2 -21 -11 -5 -5 9 -16 17 -23 17 -10 0 -15 32 -20 122 -7 117 -13 149 -23
121 -7 -18 -30 -16 -41 3 -6 12 -11 -7 -14 -60 -4 -60 -9 -80 -24 -91 -17 -13
-18 -14 -1 -15 12 0 17 -8 17 -26 0 -14 4 -23 10 -19 6 3 10 -1 10 -9 0 -49
-111 0 -130 58 -5 17 -24 45 -40 63 -17 18 -30 36 -30 41 0 5 -16 29 -35 53
-25 32 -35 53 -34 79 0 19 3 29 6 23 5 -15 61 -17 81 -4 8 4 12 19 10 32 -2
18 -9 24 -25 23 -21 -1 -23 4 -23 53 0 38 4 55 15 59 11 5 15 24 15 80 0 59
-3 74 -15 74 -12 0 -15 13 -15 55 0 51 -2 55 -23 55 -23 0 -24 -2 -37 -178
l-13 -178 -27 25 c-43 40 -80 101 -80 132 0 26 3 29 34 29 18 0 39 6 45 14 15
18 3 46 -21 46 -17 0 -19 6 -16 63 2 43 7 61 16 59 14 -2 15 38 6 176 -7 91
-7 92 -32 85 -14 -3 -27 -1 -32 6 -4 7 -10 -36 -14 -96 -16 -254 -17 -263 -37
-250 -11 7 -24 27 -30 44 -6 18 -14 33 -17 33 -4 0 -13 12 -19 27 -15 31 -18
163 -4 163 5 0 12 16 15 35 4 19 12 34 19 32 8 -1 13 23 15 81 2 52 -1 82 -8
82 -6 0 -10 26 -11 63 0 34 -3 56 -6 50 -2 -7 -11 -13 -19 -13 -10 0 -14 -14
-14 -55 0 -30 -4 -55 -10 -55 -6 0 -10 -29 -10 -66 0 -46 -5 -72 -17 -88 l-17
-23 -33 40 c-26 31 -33 47 -32 80 0 23 3 36 6 30 2 -7 11 -13 19 -13 20 0 20
175 0 196 -35 34 -66 1 -66 -72 0 -30 -3 -54 -7 -54 -19 0 -61 48 -78 88 -15
36 -16 46 -5 66 7 14 23 27 36 30 15 4 24 14 24 25 0 22 -25 45 -39 37 -5 -3
-11 -1 -13 5 -2 6 -17 -2 -34 -17 -40 -38 -81 -37 -135 1 -58 41 -61 55 -10
55 23 0 41 5 41 10 0 6 13 10 28 10 16 0 36 6 46 13 27 20 10 45 -41 55 -38 8
-52 7 -91 -11 -50 -22 -59 -25 -109 -33 -65 -11 -333 50 -333 76 0 15 57 22
245 30 105 4 198 10 208 15 34 14 13 52 -35 60 -57 11 -138 12 -198 4 -81 -12
-177 -21 -210 -21 -14 0 -74 -6 -135 -14 -84 -10 -228 -13 -605 -10 -272 3
-506 7 -520 9 -36 7 -143 18 -230 23 -41 2 -109 8 -150 13 -83 10 -865 8 -947
-2 -28 -4 -83 -9 -121 -11 -38 -3 -82 -11 -98 -17 l-29 -12 44 -13 c46 -14
176 -18 931 -29 223 -3 366 -9 368 -15 2 -6 10 -10 18 -10 23 0 16 -14 -13
-27 -84 -34 -305 -55 -608 -57 -269 -1 -335 3 -390 24 -30 11 -60 16 -180 25
-38 4 -97 10 -130 14 -105 15 -382 12 -530 -5 -77 -9 -151 -17 -165 -18 -14
-2 -31 -4 -37 -4 -7 -1 -13 -9 -13 -17 0 -8 6 -16 13 -17 6 0 23 -3 37 -4 69
-10 478 -24 645 -23 223 2 285 -5 285 -31 0 -14 -18 -22 -87 -38 -146 -35
-224 -44 -400 -45 -158 -1 -172 1 -233 25 -36 14 -95 29 -130 33 -36 5 -76 9
-90 11 -44 5 -353 5 -410 -1 -137 -13 -170 -22 -170 -45 0 -26 32 -30 384 -40
255 -7 319 -11 331 -23 12 -13 12 -17 -3 -30 -37 -34 -169 -59 -304 -58 -127
1 -179 6 -206 20 -12 6 -27 9 -32 6 -5 -3 -18 -1 -29 5 -64 34 -319 51 -436
29 -27 -5 -61 -11 -73 -13 -13 -2 -31 -10 -39 -19 -32 -32 18 -40 282 -47 138
-4 258 -11 268 -15 41 -17 -46 -68 -156 -91 -98 -21 -181 -17 -242 11 -100 45
-131 51 -285 49 -86 -2 -126 -6 -155 -20 -22 -9 -43 -16 -47 -16 -5 1 -8 -4
-8 -12 0 -25 60 -35 248 -42 161 -6 184 -9 192 -25 11 -20 -5 -41 -48 -63 -55
-28 -201 -38 -227 -16 -8 7 -15 9 -15 5 0 -4 -7 -1 -17 6 -9 8 -18 13 -19 12
-2 -1 -21 5 -41 14 -58 26 -237 30 -288 7 -22 -9 -43 -16 -47 -16 -5 1 -8 -6
-8 -16 0 -10 6 -19 13 -20 6 -1 44 -7 82 -12 39 -6 119 -13 178 -16 129 -7
137 -20 42 -71 -45 -24 -77 -33 -128 -36 -37 -2 -70 0 -73 5 -3 5 -24 20 -47
35 -35 22 -52 26 -126 26 -64 1 -94 -3 -118 -16 -67 -36 -22 -66 101 -68 103
-1 161 -11 161 -29 0 -8 -19 -27 -42 -44 -54 -38 -147 -46 -185 -17 -49 39
-98 52 -155 42 -29 -6 -61 -15 -72 -20 -10 -6 -21 -8 -24 -4 -4 3 -9 -2 -13
-11 -4 -10 -2 -22 3 -27 5 -5 62 -16 127 -23 64 -8 120 -16 123 -19 2 -3 2
-14 -1 -25 -9 -26 -132 -80 -150 -66 -48 34 -66 45 -87 50 -61 14 -108 15
-147 4 -39 -10 -43 -14 -40 -38 4 -31 27 -39 125 -41 79 -1 100 -18 78 -61 -9
-17 -25 -32 -38 -34 -41 -9 -107 -12 -109 -5 -2 4 -9 9 -17 11 -7 2 -26 15
-41 31 -34 32 -72 35 -117 7 -34 -20 -43 -50 -20 -67 23 -19 98 -32 124 -22
33 12 40 11 47 -6 10 -28 -15 -62 -67 -90 -29 -15 -73 -51 -99 -79 -25 -28
-60 -59 -76 -68 -29 -18 -30 -17 -46 7 -9 13 -16 28 -16 33 0 16 -36 42 -58
42 -47 0 -81 -30 -82 -72 0 -4 21 -17 48 -29 66 -30 77 -50 44 -85 -9 -10 -27
-24 -39 -31 -19 -11 -22 -9 -34 20 -27 70 -59 82 -116 47 -49 -29 -46 -66 7
-80 21 -6 46 -17 53 -25 8 -8 17 -11 21 -8 3 4 6 -3 6 -15 0 -12 -28 -50 -69
-92 -38 -39 -77 -87 -87 -106 -10 -19 -24 -34 -30 -34 -15 0 -104 -95 -104
-111 0 -20 -73 -79 -97 -79 -18 0 -23 6 -23 25 0 14 5 25 10 25 6 0 10 7 10
15 0 8 9 15 20 15 11 0 20 7 20 15 0 8 -9 20 -20 27 -11 7 -20 18 -20 24 0 7
-7 14 -15 18 -9 3 -15 19 -15 41 0 19 -4 35 -10 35 -5 0 -10 -13 -10 -29 0
-39 -9 -61 -26 -61 -11 0 -14 -16 -14 -68 0 -56 -3 -69 -20 -80 -24 -15 -26
-47 -4 -56 9 -3 31 -6 49 -6 21 0 35 -6 39 -16 8 -22 -31 -90 -60 -103 -34
-15 -48 15 -54 119 -5 84 -5 85 -32 88 -16 2 -28 -1 -28 -7 0 -6 -7 -11 -15
-11 -12 0 -15 -18 -15 -99 l0 -99 45 -13 c25 -7 45 -19 45 -25 0 -18 -42 -114
-50 -114 -4 0 -23 -13 -41 -30 -45 -39 -53 -38 -44 8 9 45 9 69 0 148 -7 53
-10 61 -26 57 -11 -3 -19 0 -19 6 0 6 -7 11 -15 11 -13 0 -15 -21 -15 -125 0
-74 -4 -125 -10 -125 -5 0 -14 -9 -20 -21 -17 -31 5 -52 52 -47 35 3 38 2 38
-22 0 -25 -62 -110 -79 -110 -17 0 -31 55 -31 125 0 43 -4 75 -10 75 -5 0 -10
23 -10 50 0 43 -3 50 -20 50 -17 0 -20 -7 -20 -39 0 -22 -7 -46 -15 -55 -11
-11 -15 -38 -15 -105 0 -81 2 -90 20 -96 11 -3 20 -11 20 -16 0 -5 6 -9 14 -9
24 0 26 -13 9 -78 -12 -47 -24 -69 -50 -92 -60 -53 -63 -47 -64 108 0 75 -3
131 -6 125 -6 -15 -53 -18 -53 -3 0 6 -5 10 -10 10 -7 0 -10 -55 -8 -157 l3
-158 33 -3 c33 -3 34 -5 29 -40 -3 -20 -11 -53 -19 -72 -17 -43 -94 -124 -101
-107 -3 7 -6 -9 -6 -35 -1 -33 -10 -62 -31 -98 -16 -28 -30 -52 -30 -54 0 -1
-18 -22 -40 -45 -29 -31 -40 -50 -40 -74 0 -24 -12 -44 -46 -81 l-47 -49 -13
24 c-9 17 -13 66 -14 159 0 81 -4 129 -9 121 -6 -8 -20 -12 -39 -9 l-30 4 -7
-120 c-9 -163 -7 -178 30 -191 53 -18 56 -26 37 -92 -12 -44 -26 -68 -51 -89
-56 -47 -77 -40 -65 21 4 25 11 35 22 33 25 -4 28 32 3 39 -19 5 -21 13 -22
77 0 39 -3 65 -6 59 -5 -15 -53 -18 -53 -4 0 5 -7 12 -17 15 -15 6 -15 -5 -9
-121 6 -121 5 -129 -14 -141 -46 -28 -2 -81 57 -69 20 4 23 0 23 -28 0 -22
-11 -45 -37 -76 -66 -77 -63 -76 -63 -20 0 27 -5 53 -10 56 -5 3 -10 33 -10
65 0 32 -3 65 -6 74 -7 17 -44 22 -44 6 0 -5 -7 -10 -15 -10 -12 0 -15 -17
-15 -95 0 -52 3 -95 8 -95 4 0 20 -11 36 -25 30 -25 30 -26 16 -77 -13 -53
-35 -81 -79 -99 -32 -13 -43 0 -35 39 5 22 12 32 25 32 11 0 19 7 19 16 0 8
-4 12 -10 9 -5 -3 -10 -1 -10 5 0 6 -4 9 -9 6 -10 -7 -21 41 -21 94 0 33 -3
37 -20 33 -11 -3 -20 0 -20 6 0 6 -4 11 -9 11 -5 0 -12 -56 -16 -125 -6 -94
-11 -125 -21 -125 -7 0 -18 -8 -23 -17 -7 -12 -11 -13 -11 -5 0 26 -50 58 -50
33 0 -5 -9 -11 -20 -14 -17 -4 -20 -14 -20 -65 0 -44 -4 -61 -15 -66 -9 -3
-15 -18 -15 -35 0 -25 5 -32 28 -37 54 -12 61 -15 67 -33 9 -30 -12 -69 -62
-116 -62 -59 -55 -51 -113 -122 -28 -35 -56 -63 -63 -63 -20 -1 -77 -58 -77
-78 0 -22 -32 -53 -76 -75 -17 -9 -38 -31 -47 -49 -18 -38 -46 -65 -102 -99
-53 -32 -64 -32 -78 -1 -28 64 -97 79 -156 34 -39 -29 -34 -54 14 -68 22 -7
54 -18 70 -25 17 -7 33 -12 38 -11 14 4 7 -17 -16 -42 -13 -13 -35 -28 -50
-31 -22 -6 -32 -1 -57 25 -28 30 -33 32 -95 28 -39 -2 -65 1 -65 7 0 6 -5 2
-11 -8 -6 -9 -14 -15 -19 -12 -5 3 -13 -3 -19 -13 -8 -15 -4 -24 20 -44 16
-15 29 -22 29 -17 0 16 87 10 104 -7 21 -21 20 -36 -4 -64 -25 -29 -74 -31
-95 -4 -8 11 -14 14 -15 6 0 -10 -7 -9 -30 3 -16 8 -40 15 -55 15 -14 0 -25 5
-25 10 0 6 -13 10 -28 10 -22 0 -30 -7 -40 -32 -8 -21 -8 -36 -2 -42 6 -6 10
-17 10 -26 0 -13 7 -15 30 -12 17 2 30 8 30 13 0 5 20 9 44 9 36 0 46 -4 51
-20 14 -44 -43 -88 -95 -74 -14 4 -32 8 -40 9 -8 2 -42 12 -75 24 l-60 21 -17
-22 c-10 -13 -18 -28 -18 -34 0 -20 25 -61 35 -57 6 1 38 7 73 11 l62 9 0 -27
c0 -37 -30 -61 -81 -66 -24 -2 -46 -10 -51 -16 -5 -9 -8 -8 -8 5 0 10 -4 16
-9 13 -5 -3 -14 1 -21 9 -7 8 -21 15 -31 15 -11 0 -19 5 -19 10 0 6 -15 10
-34 10 -29 0 -34 -4 -39 -27 -3 -15 -3 -41 0 -58 5 -28 8 -30 39 -27 19 2 34
8 34 12 0 4 20 10 45 12 42 3 45 2 45 -22 -1 -30 -40 -62 -78 -64 -40 -2 -52
-14 -52 -50 0 -21 -8 -40 -23 -53 -32 -30 -49 -32 -76 -11 -19 14 -26 16 -33
6 -5 -9 -8 -6 -8 10 0 13 4 21 10 17 5 -3 18 3 30 15 11 11 33 20 50 20 34 0
47 19 31 47 -7 13 -10 14 -11 4 0 -12 -3 -12 -12 -3 -7 7 -20 12 -30 12 -10 0
-18 5 -18 10 0 6 -18 10 -40 10 l-40 0 0 -75 c0 -64 -3 -76 -20 -85 -11 -6
-20 -17 -20 -26 0 -16 47 -37 67 -30 13 5 18 -11 13 -44 -1 -8 -10 -24 -20
-34 -16 -17 -23 -18 -45 -8 -24 11 -25 16 -25 87 0 58 -3 74 -12 69 -7 -5 -25
-7 -40 -6 -28 2 -28 2 -28 -63 0 -36 -5 -74 -12 -84 -9 -15 -9 -23 1 -35 8 -9
19 -16 26 -16 6 0 17 -11 23 -25 17 -38 -5 -113 -38 -130 -42 -22 -70 -62 -70
-100 0 -31 -9 -59 -44 -134 -6 -13 -20 -27 -32 -31 -30 -12 -42 -51 -49 -160
-3 -53 -13 -134 -21 -180 -8 -47 -19 -108 -24 -137 -4 -29 -17 -65 -28 -80
-11 -15 -22 -37 -25 -48 -4 -16 -5 -17 -6 -2 0 9 -5 17 -10 17 -5 0 -10 146
-13 325 -2 178 -7 328 -12 332 -4 4 -12 1 -17 -7 -8 -11 -12 -12 -16 -2 -2 6
-11 12 -19 12 -10 0 -14 -15 -14 -59 0 -33 -5 -63 -10 -66 -6 -3 -10 -49 -10
-103 0 -133 11 -292 20 -287 9 6 20 -44 21 -99 0 -22 3 -35 6 -28 12 31 22 5
25 -65 2 -45 7 -77 13 -76 15 2 12 -1505 -3 -1677 -16 -177 -23 -221 -32 -215
-9 5 -11 -9 -34 -260 -19 -206 -20 -393 -4 -621 l12 -172 32 1 32 1 7 144 c4
79 6 354 3 610 -2 256 -2 460 0 454 2 -7 8 -10 13 -6 5 3 9 -1 9 -9 0 -8 7
-20 15 -27 9 -7 15 -29 15 -51 0 -21 5 -50 12 -66 6 -15 15 -55 20 -88 4 -33
13 -87 18 -120 16 -97 25 -585 11 -585 -7 0 -11 -19 -11 -50 0 -27 -4 -50 -10
-50 -5 0 -10 -9 -10 -20 0 -11 -4 -20 -10 -20 -6 0 -10 -27 -10 -60 0 -33 -4
-60 -10 -60 -6 0 -10 -73 -10 -200 0 -127 4 -200 10 -200 6 0 10 -28 10 -63 0
-63 0 -64 29 -64 l28 0 7 96 c3 53 6 203 6 334 0 205 2 241 17 263 l16 25 27
-55 c15 -30 33 -90 39 -133 17 -114 28 -274 19 -279 -4 -3 -8 -25 -8 -50 0
-32 -4 -44 -15 -44 -8 0 -15 -9 -15 -20 0 -11 -4 -20 -10 -20 -6 0 -10 -27
-10 -61 0 -37 -4 -58 -10 -54 -12 7 -13 -43 -4 -173 4 -57 11 -89 17 -85 5 3
22 6 37 5 27 -1 27 -1 34 90 3 50 6 144 6 209 0 68 4 120 10 124 6 3 10 -1 10
-9 0 -9 4 -16 8 -16 14 0 62 -81 62 -104 0 -13 5 -37 11 -55 7 -21 8 -55 3
-99 l-8 -67 -7 45 c-5 40 -6 37 -7 -27 -1 -41 -6 -73 -12 -73 -5 0 -10 -10
-10 -22 0 -19 -2 -20 -10 -8 -7 10 -9 -8 -9 -60 1 -74 14 -227 17 -201 1 7 8
11 17 7 8 -3 15 0 15 7 0 8 4 7 10 -3 5 -8 11 -12 13 -10 3 3 10 79 16 169 6
90 13 166 15 168 7 7 46 -40 71 -86 19 -33 25 -57 24 -100 -1 -47 -3 -51 -8
-21 -5 31 -10 35 -36 35 -23 0 -31 -5 -33 -21 -2 -16 2 -22 15 -20 15 1 18 -8
21 -57 2 -44 0 -59 -12 -63 -23 -9 -23 -164 -1 -164 15 0 22 -20 27 -74 5 -52
26 -41 31 16 3 29 11 107 17 173 7 66 13 122 15 124 2 1 14 -4 26 -12 30 -22
69 -93 69 -127 0 -26 -4 -29 -37 -32 -32 -3 -38 -7 -41 -29 -2 -14 4 -31 12
-39 13 -10 16 -36 16 -131 0 -73 4 -119 10 -119 6 0 10 5 10 10 0 17 28 11 39
-7 7 -13 10 21 11 120 0 75 3 137 6 137 3 0 23 -12 45 -27 65 -47 77 -114 28
-165 -24 -26 -29 -38 -25 -62 3 -15 6 -58 6 -93 0 -57 2 -63 15 -49 8 8 24 13
35 11 18 -3 20 2 20 50 0 30 4 57 10 60 6 3 10 14 10 24 0 10 8 26 19 35 18
16 20 15 45 -14 44 -53 30 -105 -30 -112 -36 -4 -43 -32 -15 -61 14 -16 21
-39 23 -82 l3 -60 37 -3 c34 -2 38 0 38 20 1 20 2 21 13 7 7 -9 20 -15 30 -13
15 2 17 -7 17 -77 l0 -79 35 0 c24 0 35 5 35 15 0 9 9 15 24 15 14 0 28 5 31
10 4 6 11 8 16 5 5 -4 9 3 9 14 0 18 -6 21 -40 21 -28 0 -40 4 -40 14 0 8 -5
16 -11 18 -15 5 11 48 29 48 7 0 26 -7 42 -15 27 -14 30 -20 30 -65 0 -52 4
-55 52 -51 9 1 28 -5 42 -14 20 -13 26 -26 28 -63 3 -46 4 -47 38 -48 19 -1
43 -2 52 -3 23 -1 50 -44 42 -65 -7 -18 -84 -24 -84 -6 0 6 -11 10 -25 10 -16
0 -25 -6 -25 -15 0 -8 -7 -15 -15 -15 -28 0 -29 -31 -2 -56 26 -24 67 -33 67
-14 0 6 11 10 24 10 14 0 28 5 32 11 3 6 17 8 32 4 14 -3 38 -1 53 6 36 15 75
5 90 -23 17 -31 -15 -54 -88 -62 -81 -10 -93 -15 -93 -36 0 -26 5 -28 106 -36
87 -6 90 -6 121 20 38 32 60 33 104 3 53 -36 49 -52 -19 -71 -32 -9 -68 -16
-79 -16 -63 0 -72 -39 -15 -63 82 -36 105 -33 183 24 21 16 102 3 130 -20 16
-12 20 -23 15 -39 -6 -18 -15 -22 -51 -22 -74 0 -145 -19 -145 -39 0 -25 29
-47 71 -55 42 -7 173 18 206 39 31 20 72 19 110 -5 33 -20 59 -55 46 -63 -5
-3 -55 -10 -113 -16 -129 -14 -132 -15 -147 -24 -22 -14 6 -43 43 -45 19 -2
46 -7 59 -12 38 -14 112 -3 146 22 26 20 43 23 116 23 81 0 86 -1 109 -29 23
-26 24 -30 9 -46 -13 -14 -40 -19 -135 -25 -73 -4 -126 -12 -137 -21 -17 -12
-17 -14 5 -36 20 -21 32 -23 129 -25 65 -1 112 2 120 9 7 6 13 7 13 4 0 -4 14
3 31 15 26 18 43 21 102 20 78 -2 122 -22 122 -57 0 -30 -43 -44 -138 -44
-109 0 -179 -16 -175 -39 2 -9 8 -16 13 -16 6 0 15 -3 20 -6 23 -14 74 -21
140 -19 127 3 145 6 195 41 14 9 39 16 55 15 17 -2 46 -4 66 -4 26 -2 47 -11
70 -33 30 -28 31 -31 16 -47 -13 -12 -45 -18 -139 -23 -163 -9 -198 -16 -198
-40 0 -11 3 -19 8 -20 18 -2 60 -10 96 -20 63 -17 207 -2 264 28 61 32 165 33
230 2 40 -20 70 -54 58 -66 -3 -3 -77 -10 -163 -15 -187 -11 -227 -18 -231
-40 -5 -23 52 -38 168 -45 114 -7 198 8 229 41 20 21 29 22 129 21 128 -2 185
-16 225 -57 29 -29 30 -31 11 -42 -12 -7 -100 -13 -234 -16 -153 -4 -222 -10
-239 -19 l-25 -14 21 -17 c49 -40 339 -53 418 -20 17 7 36 14 44 16 7 1 24 13
38 25 23 22 31 23 155 21 176 -3 408 -40 510 -82 13 -5 35 -11 51 -14 15 -4
27 -12 27 -19 0 -9 95 -12 422 -12 375 0 428 -2 466 -17 l42 -17 0 39 0 39 67
21 c137 42 389 70 638 70 122 0 167 -4 189 -15 15 -8 30 -15 32 -15 2 0 4 18
4 39 0 39 1 40 57 61 105 39 421 71 653 66 85 -2 114 -7 155 -25 28 -13 61
-25 75 -26 14 -2 54 -10 90 -20 88 -23 390 -31 630 -16 223 13 345 43 268 65
-43 12 -513 28 -751 24 -130 -2 -237 0 -237 5 0 4 -7 7 -15 7 -30 0 -14 29 28
48 114 55 515 87 623 52 20 -7 38 -9 41 -6 3 3 19 -2 36 -11 17 -8 44 -17 61
-19 17 -2 69 -10 116 -19 47 -8 126 -15 175 -15 133 0 135 -1 135 -67 0 -46 3
-54 16 -49 9 3 18 6 20 6 2 0 4 22 4 49 0 42 3 49 23 55 47 12 47 12 47 -114
0 -73 4 -120 10 -120 6 0 10 4 10 9 0 17 34 22 46 7 9 -12 13 9 18 96 4 62 9
114 11 116 1 2 20 -5 41 -15 27 -13 42 -28 52 -55 21 -54 10 -82 -38 -101 -29
-11 -40 -21 -40 -37 0 -11 7 -23 15 -26 11 -5 15 -22 15 -69 l0 -63 35 -4 35
-4 0 61 c1 97 52 139 90 73 19 -35 5 -61 -36 -68 -23 -4 -29 -10 -29 -30 0
-18 6 -26 23 -28 21 -3 22 -8 22 -78 l0 -74 30 0 c18 0 33 6 36 15 4 8 14 15
24 15 11 0 22 5 25 11 5 7 12 5 24 -5 9 -8 35 -17 59 -20 49 -6 62 -12 62 -31
0 -19 -23 -25 -77 -19 -46 6 -49 4 -60 -23 -10 -23 -10 -35 0 -57 11 -26 14
-27 62 -21 27 3 54 10 60 14 9 7 47 12 115 15 33 2 70 -22 70 -44 0 -14 -14
-20 -67 -29 -113 -20 -113 -20 -113 -42 0 -11 4 -18 9 -15 5 4 11 2 13 -4 3
-11 119 -16 153 -7 11 3 49 13 85 23 55 14 76 15 139 5 80 -12 141 -36 141
-55 0 -25 -49 -35 -205 -41 -170 -7 -202 -16 -179 -52 14 -22 49 -28 184 -27
128 0 198 8 263 30 12 4 49 9 82 10 33 2 76 6 95 9 67 12 94 -40 34 -67 -22
-10 -31 -9 -56 5 -30 17 -30 17 -59 -11 -28 -27 -37 -30 -132 -36 -56 -3 -106
-11 -112 -17 -14 -14 29 -49 61 -49 23 0 24 -2 24 -78 0 -73 2 -80 24 -92 13
-7 27 -22 30 -33 9 -34 -13 -120 -38 -147 -13 -14 -29 -39 -37 -57 -22 -52
-29 -19 -29 142 0 101 -3 145 -10 135 -8 -12 -10 -9 -10 13 0 32 -29 38 -37 7
-6 -23 -18 -26 -27 -7 -3 6 -4 -51 0 -128 3 -77 9 -141 15 -143 5 -2 9 -10 9
-18 0 -8 8 -14 19 -14 15 0 19 -11 24 -67 7 -74 7 -742 0 -705 -6 30 -23 28
-23 -3 0 -18 -4 -23 -15 -19 -11 5 -15 -1 -15 -24 0 -51 -12 -95 -21 -80 -11
16 -11 -54 -2 -181 3 -51 9 -87 13 -80 5 6 21 12 38 13 l29 1 7 80 c3 44 7
134 7 200 1 66 4 109 6 96 4 -19 7 -21 14 -10 7 11 9 11 9 -3 0 -9 11 -25 25
-35 18 -13 28 -33 35 -72 5 -30 14 -59 19 -65 15 -19 24 -123 10 -131 -6 -4
-15 -1 -20 6 -6 10 -9 4 -9 -19 0 -33 -18 -62 -39 -62 -7 0 -11 -30 -11 -80 0
-62 3 -80 14 -80 17 0 26 -22 26 -66 0 -22 5 -34 14 -34 14 0 22 40 34 180 7
76 39 153 50 120 3 -8 8 -17 11 -20 4 -3 17 -19 29 -37 17 -24 22 -44 20 -85
-1 -35 -3 -42 -5 -20 -4 28 -8 32 -33 32 -15 0 -30 -7 -34 -15 -7 -19 3 -47
15 -39 5 3 9 -53 9 -130 0 -84 4 -136 10 -136 6 0 10 5 10 11 0 6 9 9 19 6 21
-5 25 13 37 165 l6 66 33 -21 c32 -21 65 -78 65 -113 0 -9 -18 -32 -40 -52
-39 -33 -40 -36 -25 -58 10 -15 15 -47 15 -89 0 -60 1 -65 16 -51 12 12 20 13
35 6 18 -10 19 -7 19 54 0 36 5 68 10 71 6 3 10 14 10 24 0 10 7 24 15 31 20
17 62 -11 80 -53 17 -41 1 -62 -55 -71 -36 -6 -40 -9 -40 -36 0 -19 7 -34 20
-42 16 -10 20 -24 20 -65 0 -64 23 -95 58 -80 12 6 22 13 22 17 0 4 14 5 30 2
30 -4 30 -4 30 -71 0 -39 5 -72 12 -79 18 -18 46 -15 52 6 8 22 53 44 60 28 2
-6 5 1 5 17 1 23 -3 27 -28 27 -31 0 -44 23 -34 60 7 26 15 25 63 -5 31 -20
40 -31 40 -53 0 -16 7 -37 15 -48 8 -10 14 -26 14 -34 0 -10 -2 -11 -6 -3 -3
9 -10 10 -22 3 -10 -5 -21 -6 -25 -3 -3 3 -6 -1 -6 -11 0 -9 -4 -14 -10 -11
-9 6 -16 -30 -11 -65 1 -8 5 -44 9 -79 7 -61 8 -64 24 -48 16 16 18 16 32 -5
16 -22 16 -21 16 24 0 25 8 66 19 90 16 38 17 47 5 63 -28 38 -12 74 17 39 7
-9 23 -20 35 -24 12 -5 32 -30 44 -55 13 -27 39 -59 60 -74 91 -63 107 -151
29 -151 -45 0 -59 -10 -59 -41 0 -18 7 -32 20 -39 17 -9 20 -21 20 -70 0 -33
4 -60 10 -60 6 0 10 -22 10 -50 0 -47 2 -50 25 -50 22 0 25 4 25 34 0 18 3 47
6 64 6 27 8 29 21 17 11 -11 19 -12 34 -5 18 10 19 7 19 -40 0 -27 -4 -50 -10
-50 -6 0 -10 -37 -10 -90 0 -53 4 -90 10 -90 6 0 10 -26 10 -59 0 -57 1 -58
25 -53 23 4 25 8 25 63 0 33 4 59 9 59 5 0 12 52 16 115 4 63 9 115 13 115 20
0 73 -57 87 -94 21 -54 15 -76 -20 -76 -56 0 -85 -41 -50 -70 11 -9 15 -35 15
-104 0 -134 12 -286 21 -280 5 3 9 -29 9 -70 0 -61 3 -76 15 -76 11 0 15 11
15 43 0 46 32 470 36 475 1 2 16 -4 33 -14 24 -14 32 -29 45 -80 17 -68 14
-89 -13 -97 -16 -4 -19 -20 -25 -118 -15 -261 -19 -599 -7 -599 7 0 11 -23 11
-62 0 -38 6 -75 16 -93 26 -50 31 -201 8 -274 -12 -38 -26 -63 -36 -67 -10 -3
-18 -10 -18 -15 0 -5 -7 -9 -15 -9 -13 0 -15 28 -15 190 0 120 -4 190 -10 190
-6 0 -10 30 -10 70 0 63 -2 70 -20 70 -18 0 -20 -7 -20 -70 0 -40 -4 -70 -10
-70 -6 0 -10 -50 -10 -130 0 -80 4 -130 10 -130 6 0 10 -38 10 -95 0 -88 1
-95 20 -95 17 0 20 -7 20 -43 0 -23 -4 -57 -9 -75 -10 -34 -70 -102 -90 -102
-7 0 -11 41 -12 123 -1 109 -14 311 -17 280 -2 -17 -39 -17 -45 0 -3 6 -6 -21
-6 -61 -1 -52 -4 -71 -12 -66 -9 5 -10 -33 -4 -142 7 -157 16 -184 58 -184 19
0 19 -5 14 -71 -5 -57 -10 -74 -27 -86 -12 -8 -34 -33 -50 -55 -35 -48 -33
-54 -50 147 -20 239 -21 245 -36 245 -10 0 -14 -14 -15 -47 -1 -46 -15 -122
-18 -95 0 6 -5 12 -11 12 -6 0 -10 -50 -10 -130 0 -80 4 -130 10 -130 6 0 10
-7 10 -15 0 -8 11 -17 25 -21 24 -6 25 -10 26 -78 2 -64 3 -67 10 -31 5 25 6
-4 4 -79 -3 -65 -9 -123 -14 -130 -5 -6 -14 -36 -21 -67 -10 -43 -19 -60 -42
-75 -16 -10 -34 -29 -39 -42 -13 -32 -12 -1423 1 -1457 5 -14 20 -36 33 -48
35 -33 57 -135 87 -407 9 -73 16 -100 32 -117 12 -13 27 -23 34 -23 17 0 54
-116 53 -164 -1 -23 -4 -31 -6 -19 -3 15 -12 23 -24 23 -23 0 -37 -29 -19 -40
16 -10 9 -132 -8 -138 -16 -5 -16 -149 -1 -154 6 -2 14 -27 17 -56 4 -42 8
-52 23 -52 15 0 19 7 19 37 0 20 4 50 10 67 5 17 12 79 16 137 6 105 6 106 27
96 44 -21 104 -177 62 -161 -30 12 -65 -5 -65 -31 0 -13 5 -27 10 -30 6 -4 10
-59 10 -131 0 -119 1 -125 19 -119 15 4 21 0 24 -17 3 -17 5 -15 6 10 1 34 17
44 23 14 3 -9 8 38 12 104 l8 121 39 -25 c36 -24 69 -80 69 -118 0 -21 -25
-44 -48 -44 -30 0 -48 -27 -34 -51 7 -10 12 -48 12 -84 0 -51 3 -65 15 -65 11
0 15 -12 15 -49 0 -36 4 -51 16 -55 9 -4 18 -5 20 -4 1 2 6 55 10 118 7 120
13 140 42 135 9 -2 20 -4 24 -4 4 -1 16 -11 28 -23 22 -24 28 -92 9 -118 -8
-11 -9 -7 -5 17 4 23 1 35 -10 41 -21 12 -61 3 -68 -14 -6 -14 27 -38 38 -27
3 3 6 -2 6 -13 0 -16 2 -17 10 -4 8 12 10 9 10 -13 0 -16 -4 -26 -10 -22 -6 4
-10 -33 -10 -104 0 -62 4 -111 9 -111 5 0 17 7 25 16 15 14 17 14 24 -3 7 -18
16 31 28 159 l6 57 33 -17 c24 -12 40 -31 55 -66 l22 -49 -24 -22 c-13 -12
-36 -25 -51 -29 -27 -6 -38 -38 -17 -51 6 -3 10 -37 10 -76 0 -54 3 -69 14
-69 11 0 16 -15 18 -52 2 -41 7 -54 21 -56 14 -3 17 4 17 42 0 25 5 48 10 51
6 3 10 37 10 75 0 68 22 130 46 130 13 0 59 -49 67 -72 11 -32 -3 -48 -42 -48
-20 0 -42 -4 -49 -9 -20 -12 -10 -55 15 -66 23 -10 23 -12 16 -140 -6 -123 -5
-129 11 -112 20 20 52 22 59 5 3 -7 6 18 6 55 1 58 4 72 23 86 22 18 18 41 -7
41 -15 0 -32 66 -21 77 3 4 25 -7 48 -23 54 -38 86 -111 67 -156 -7 -16 -19
-28 -30 -28 -10 0 -21 -5 -24 -10 -14 -23 -18 -979 -5 -1180 l13 -200 33 0
c34 0 34 0 35 48 0 26 4 320 8 654 5 420 10 611 18 619 15 15 50 2 68 -24 17
-27 33 -193 18 -184 -20 12 -36 -19 -23 -44 9 -16 14 -18 20 -9 4 7 10 8 13 4
2 -5 6 -189 8 -409 4 -377 3 -400 -13 -397 -16 3 -18 -6 -18 -73 0 -42 -4 -74
-9 -71 -5 3 -11 -20 -13 -51 -3 -31 -10 -59 -16 -61 -15 -5 -17 -402 -2 -402
6 0 10 -30 10 -70 l0 -70 28 0 29 0 6 107 c4 58 7 208 7 332 0 214 1 227 20
244 11 9 20 12 20 6 0 -6 9 -23 20 -39 10 -15 22 -47 26 -71 4 -24 13 -69 20
-99 15 -60 19 -229 4 -195 -6 14 -9 -3 -9 -53 -1 -46 -5 -71 -11 -67 -6 4 -10
-5 -10 -19 0 -14 -4 -26 -10 -26 -6 0 -10 -28 -10 -62 0 -45 -3 -59 -10 -48
-7 10 -9 -8 -9 -60 1 -74 14 -227 17 -201 1 7 8 11 16 8 8 -3 17 -1 20 6 3 9
7 8 15 -3 5 -8 13 -12 16 -8 3 3 9 95 12 204 4 143 10 205 19 219 12 17 14 17
14 2 0 -9 3 -17 8 -17 27 0 82 -202 82 -302 0 -31 -16 -38 -23 -10 -3 9 -5 -2
-6 -26 -1 -28 -6 -45 -16 -48 -8 -4 -15 -12 -15 -20 0 -8 -4 -14 -10 -14 -12
0 -13 -135 -4 -292 l7 -104 32 0 32 1 7 95 c3 52 6 145 6 205 1 72 5 116 13
126 11 15 17 11 50 -36 59 -85 71 -180 26 -221 -14 -13 -19 -30 -19 -73 0 -65
-9 -103 -21 -95 -11 6 -11 -49 -3 -174 7 -89 7 -90 30 -82 17 7 28 5 39 -6 13
-14 15 4 15 174 0 104 3 191 6 194 3 4 20 -4 39 -15 26 -17 38 -36 54 -85 12
-34 21 -81 20 -105 -1 -33 -2 -37 -8 -18 -8 28 -20 35 -41 21 -12 -8 -13 -13
-3 -30 14 -21 17 -89 7 -128 -5 -15 -12 -21 -22 -17 -13 5 -14 -11 -8 -127 7
-123 13 -159 23 -132 2 6 16 9 32 6 l28 -4 7 94 c18 264 17 257 35 246 9 -6
31 -38 49 -72 25 -48 32 -73 31 -111 -1 -29 -4 -39 -6 -23 -7 46 -73 52 -73 6
0 -15 5 -19 20 -15 18 5 20 0 20 -41 0 -57 -9 -94 -21 -86 -11 6 -11 -58 -3
-184 6 -78 9 -89 21 -76 17 16 33 18 33 4 0 -5 4 -10 9 -10 4 0 11 44 15 97
18 272 17 263 36 245 10 -9 32 -42 49 -73 25 -45 31 -66 30 -110 -1 -47 -2
-49 -8 -19 -6 34 -15 39 -63 31 -5 0 -8 -13 -8 -27 0 -22 4 -25 21 -21 20 5
21 3 17 -56 -3 -34 -10 -63 -16 -65 -15 -5 -17 -162 -2 -162 6 0 10 -22 10
-50 0 -49 1 -50 30 -50 27 0 30 3 30 33 0 17 5 96 12 174 l12 141 23 -16 c30
-19 83 -109 83 -139 0 -20 -5 -23 -39 -23 -22 0 -43 -5 -46 -11 -10 -15 4 -61
16 -53 8 4 9 -35 4 -130 -7 -124 -6 -136 9 -130 11 4 16 1 16 -10 0 -18 8 -20
29 -7 10 7 18 46 25 133 l11 123 32 -15 c35 -17 73 -83 73 -130 0 -25 -4 -29
-31 -32 -40 -4 -59 -30 -41 -58 6 -11 12 -47 12 -81 0 -41 5 -65 15 -76 21
-20 65 -9 65 16 0 23 42 24 52 1 5 -12 7 -11 7 3 1 10 6 15 11 12 6 -3 10 3
10 13 0 24 -23 34 -56 26 -23 -6 -24 -4 -24 46 0 49 1 51 23 45 51 -16 74 -62
81 -159 2 -18 -22 -17 -27 1 -4 14 -5 13 -6 -5 0 -13 -5 -20 -11 -17 -6 4 -10
-16 -10 -54 0 -33 5 -63 10 -66 6 -3 10 -23 10 -43 0 -30 5 -39 25 -49 24 -11
25 -10 25 30 0 23 7 61 15 84 11 32 12 49 4 69 -5 15 -7 34 -4 42 5 12 10 11
28 -7 13 -11 29 -21 35 -21 6 0 14 -11 18 -25 3 -14 10 -25 15 -25 5 0 9 -6 9
-14 0 -7 7 -19 15 -26 16 -14 21 -45 5 -35 -13 8 -110 -44 -110 -60 0 -15 15
-31 49 -55 16 -11 21 -25 21 -57 0 -24 5 -43 10 -43 6 0 10 20 10 45 0 32 6
52 20 67 14 15 20 36 20 65 0 39 2 43 18 34 30 -16 89 -78 95 -101 4 -14 0
-23 -11 -26 -33 -11 -97 -38 -106 -45 -20 -17 4 -56 43 -71 36 -14 42 -14 63
0 13 9 26 21 30 26 33 52 33 52 72 26 33 -23 54 -55 43 -66 -3 -3 -14 -6 -26
-7 -11 -1 -21 -5 -21 -9 0 -4 -14 -11 -32 -16 -44 -11 -58 -37 -33 -60 37 -34
69 -42 104 -25 17 9 36 24 42 34 13 25 32 24 85 -3 64 -32 71 -68 13 -68 -39
0 -118 -20 -125 -32 -12 -19 25 -55 61 -61 35 -6 83 8 96 27 4 5 40 8 80 7 77
-2 109 -17 109 -51 0 -20 -20 -27 -105 -35 -92 -9 -105 -14 -105 -34 0 -9 11
-23 24 -30 35 -19 177 -7 230 19 83 40 257 10 256 -44 -1 -34 -19 -39 -162
-47 -156 -8 -173 -10 -189 -26 -7 -7 -5 -14 7 -24 9 -8 19 -13 21 -11 1 1 4 2
6 1 29 -10 82 -14 167 -13 115 0 135 4 195 30 56 24 60 25 147 31 118 8 255
-19 428 -84 40 -15 -70 -25 -350 -32 -301 -8 -367 -16 -357 -44 2 -6 10 -12
18 -13 8 0 21 -4 29 -7 67 -27 320 -36 440 -16 36 6 81 12 100 14 19 1 87 13
150 25 137 27 275 24 410 -9 47 -11 92 -19 100 -18 8 1 56 -5 105 -12 193 -31
659 -12 724 28 18 12 7 27 -26 35 -16 4 -221 11 -458 15 -251 5 -440 12 -455
18 l-25 11 35 15 c117 51 290 80 480 80 160 0 183 -2 220 -22 14 -8 34 -16 45
-18 11 -2 61 -12 110 -23 174 -39 555 -24 594 24 9 10 8 16 -4 26 -21 17 -338
33 -537 27 -92 -3 -158 -1 -158 4 0 5 -7 9 -15 9 -21 0 -19 13 8 37 68 64 478
98 560 46 6 -4 17 -8 22 -10 6 -1 37 -12 70 -24 52 -20 78 -23 195 -22 74 0
154 6 176 12 48 13 73 36 57 52 -19 19 -167 30 -338 27 -145 -3 -166 -1 -170
13 -10 31 7 48 80 74 61 23 91 27 172 28 83 0 129 -4 141 -13 1 -2 5 -3 10 -4
4 -1 19 -9 33 -19 15 -10 42 -22 60 -27 51 -15 204 -12 244 4 18 8 35 12 38
10 2 -3 10 3 17 11 11 13 10 19 -4 33 -14 14 -44 18 -199 21 -108 2 -185 7
-188 13 -28 44 74 99 197 108 81 5 83 5 118 -26 81 -70 284 -68 294 2 4 28
-19 34 -134 34 -100 0 -157 14 -152 37 6 30 81 72 141 79 53 6 60 5 85 -18 55
-51 112 -61 191 -33 22 8 41 11 41 7 0 -4 5 1 11 11 8 13 8 22 1 29 -13 13
-141 37 -199 37 -31 1 -43 5 -43 15 0 20 57 62 101 74 31 8 40 7 56 -10 40
-40 196 -53 227 -19 34 38 -3 61 -99 61 -60 0 -75 8 -75 39 1 42 40 64 101 56
36 -5 49 -4 49 5 0 7 9 1 21 -14 11 -14 29 -26 40 -26 10 0 19 -4 19 -10 0
-17 52 -11 66 8 16 20 18 62 4 62 -5 0 -10 7 -10 15 0 10 -10 15 -30 15 -16 0
-30 -4 -30 -9 0 -5 -18 -11 -40 -13 -37 -3 -40 -2 -40 23 0 30 19 49 73 74 26
12 37 24 37 39 0 23 24 49 73 79 15 10 27 13 27 7 0 -6 4 -8 10 -5 16 10 12
-55 -4 -71 -8 -8 -28 -14 -45 -14 -17 0 -31 -3 -31 -8 0 -14 31 -52 42 -52 7
0 21 -9 33 -20 18 -17 25 -18 48 -7 25 11 27 16 27 83 0 65 2 72 22 77 14 4
27 -1 38 -13 18 -21 40 -26 40 -10 0 6 7 10 15 10 12 0 15 15 15 74 0 56 4 75
15 80 8 3 15 14 15 25 0 20 -18 31 -50 31 -40 0 -30 77 13 104 14 9 22 6 42
-19 19 -24 24 -42 25 -88 0 -56 1 -57 25 -53 14 3 25 0 25 -5 0 -5 5 -9 10 -9
6 0 10 38 10 93 0 81 -3 96 -21 116 -19 20 -21 30 -15 89 5 54 11 71 32 89 21
19 28 21 44 10 18 -11 20 -23 20 -135 0 -112 1 -122 16 -108 19 19 31 20 37 4
11 -31 15 7 18 146 3 139 2 150 -17 160 -10 6 -22 16 -27 21 -9 11 -1 67 14
107 11 27 72 72 83 61 3 -4 6 -61 7 -127 0 -67 3 -115 6 -108 8 20 23 14 24
-10 1 -17 2 -19 6 -5 5 20 29 23 37 5 4 -7 4 43 1 111 -3 68 -5 142 -5 164 0
30 -4 40 -20 44 -15 4 -20 14 -20 42 1 62 18 115 45 138 51 44 55 36 55 -108
0 -84 4 -128 10 -124 6 4 10 -16 10 -53 0 -56 2 -60 25 -64 24 -5 25 -4 25 53
0 33 4 59 10 59 6 0 10 32 10 75 0 43 -4 75 -10 75 -6 0 -10 35 -10 84 0 65
-3 85 -15 90 -8 3 -15 12 -15 20 0 8 -5 16 -10 18 -7 2 -6 23 2 63 13 64 47
107 83 102 19 -2 20 -12 26 -147 4 -80 7 -167 8 -195 1 -38 4 -46 12 -35 8 11
12 12 16 3 13 -32 23 -7 23 58 0 44 4 68 10 64 22 -14 4 277 -19 302 -38 42
-44 67 -30 126 8 39 21 64 41 82 15 14 28 30 28 37 0 6 9 3 20 -7 18 -16 20
-31 20 -149 0 -80 4 -126 9 -117 6 9 19 12 40 8 l31 -7 0 138 c0 124 -2 140
-20 160 -11 12 -20 25 -20 30 0 6 -9 12 -20 15 -19 5 -19 7 -5 41 8 19 15 52
16 73 0 30 7 43 31 62 23 19 34 22 47 14 19 -12 18 -7 26 -155 7 -114 7 -117
27 -105 16 9 22 9 25 0 13 -35 21 -2 28 107 5 82 11 123 21 131 8 6 14 24 14
39 0 24 -5 29 -32 35 -42 9 -78 32 -78 49 0 23 51 78 66 72 10 -4 14 3 14 23
0 36 77 111 115 111 25 0 54 -22 72 -54 10 -18 20 -19 150 -17 72 1 85 4 110
26 27 24 28 25 9 40 -12 9 -42 15 -75 15 -63 1 -128 13 -143 28 -16 16 0 60
24 68 47 14 138 4 170 -19 41 -30 119 -30 150 0 11 12 18 28 15 35 -5 16 -90
38 -142 38 -19 0 -37 5 -41 12 -9 15 41 55 87 69 32 10 39 9 63 -12 49 -43
116 -44 143 -3 19 30 4 54 -36 54 -34 0 -71 26 -71 50 0 21 45 60 69 60 9 0
25 -13 34 -30 10 -16 22 -30 28 -30 5 0 10 -28 11 -62 l1 -63 6 63 c3 34 8 62
11 61 15 -2 58 22 63 35 9 23 -2 46 -22 46 -9 0 -24 11 -33 25 -21 27 -13 58
20 88 20 19 21 18 46 -22 20 -31 26 -54 26 -95 0 -47 3 -54 16 -49 9 3 20 0
25 -8 11 -18 10 166 -1 201 -4 14 -9 21 -10 15 -1 -5 -5 1 -10 15 -14 45 1
109 31 139 15 16 31 26 34 23 3 -3 5 2 5 11 0 22 17 22 24 0 3 -10 8 -71 12
-135 7 -117 7 -118 30 -112 16 4 25 2 26 -7 2 -25 15 124 17 194 1 43 -3 66
-9 62 -5 -3 -10 3 -10 14 0 12 -7 21 -15 21 -11 0 -15 11 -15 43 0 24 -4 37
-8 30 -4 -7 -8 153 -8 355 1 202 -1 628 -4 946 -4 458 -2 580 8 583 8 3 12 29
12 79 0 42 4 73 9 70 11 -7 21 153 21 345 l0 157 31 6 c27 5 30 9 27 38 -3 30
-6 33 -42 38 -27 3 -41 11 -46 25 -7 19 6 63 19 66 35 8 51 4 62 -17 7 -13 16
-24 20 -24 5 0 6 -564 2 -1252 -6 -1197 -2 -1515 18 -1502 5 3 9 -28 9 -70 0
-99 18 -98 22 1 3 73 4 76 21 59 9 -10 17 -16 17 -14 1 2 3 363 6 803 4 514 2
966 -6 1265 -7 255 -9 519 -5 585 l7 120 34 16 c29 14 34 14 34 2 0 -8 5 -11
10 -8 6 3 10 33 10 65 l0 59 43 5 c23 3 70 7 105 10 62 4 92 17 92 41 0 18
-23 25 -109 31 -86 6 -153 30 -149 52 2 8 15 24 30 35 24 18 32 19 65 9 21 -7
56 -14 78 -16 22 -2 58 -10 80 -19 41 -15 78 -12 185 11 38 8 52 35 24 46 -9
3 -62 11 -118 17 -129 13 -146 16 -146 33 0 14 41 46 59 46 5 0 22 5 38 12 34
14 59 11 90 -9 30 -20 201 -30 231 -14 29 16 29 49 0 55 -13 3 -52 7 -88 10
-82 6 -100 13 -100 38 0 34 24 46 96 49 52 1 80 -3 115 -19 63 -29 119 -14
119 32 0 16 -10 24 -40 34 -22 6 -53 12 -69 12 -63 0 -48 31 33 70 49 23 49
23 65 4 32 -39 62 -53 90 -43 33 13 61 38 61 56 0 7 -17 21 -37 31 -21 9 -46
24 -56 34 -18 16 -18 17 0 45 24 38 34 50 63 79 l25 24 5 -57 c6 -65 12 -78
39 -86 24 -6 33 1 49 36 13 30 6 49 -31 91 -31 36 -7 120 42 149 l31 18 0 -66
c0 -53 4 -68 20 -82 11 -10 20 -29 20 -43 0 -14 5 -32 10 -40 7 -11 10 -5 10
24 0 25 6 44 19 55 15 13 19 34 22 111 l4 95 -27 0 c-25 -1 -28 3 -28 31 0 17
9 43 20 57 11 14 20 30 20 35 0 22 20 22 39 0 18 -18 21 -35 21 -100 0 -50 4
-77 10 -73 6 3 10 -1 10 -9 0 -9 5 -16 10 -16 6 0 10 5 10 10 0 6 9 10 20 10
18 0 20 7 20 80 0 73 -2 80 -20 80 -17 0 -20 7 -20 40 0 22 -5 40 -10 40 -14
0 -4 103 17 187 10 38 26 73 43 90 15 15 30 35 33 43 3 8 6 -37 6 -101 1 -64
4 -157 7 -207 l7 -90 31 -5 c17 -2 32 -4 33 -3 1 0 5 61 9 134 6 120 5 132
-10 126 -14 -5 -16 2 -16 55 0 58 -1 61 -24 61 l-24 0 4 858 c2 471 6 938 8
1037 5 206 39 475 62 488 8 4 14 15 14 24 0 9 3 13 7 10 3 -4 11 -3 17 2 8 7
10 -269 8 -992 -2 -551 -1 -1123 3 -1272 l7 -270 33 -1 32 0 13 200 c17 264 9
2058 -9 2064 -6 2 -11 27 -11 62 0 38 -4 60 -12 62 -10 4 -13 74 -13 309 0
297 1 305 23 344 12 22 22 45 22 53 0 9 6 8 25 -4 l25 -16 0 -302 c0 -349 16
-636 37 -636 9 0 13 18 13 64 0 43 4 66 13 69 9 3 12 91 12 395 0 214 -4 394
-8 398 -4 5 -12 3 -16 -4 -10 -17 -24 287 -15 324 4 15 21 39 38 55 46 41 56
25 56 -85 0 -50 3 -134 6 -186 l7 -95 32 -2 32 -1 7 98 c10 138 -2 310 -23
333 -12 14 -16 40 -16 97 0 69 3 82 22 100 12 11 33 21 45 23 23 2 23 1 26
-125 l3 -128 34 0 35 0 0 150 c0 127 -2 150 -15 150 -11 0 -15 13 -15 54 0 30
5 58 10 61 6 3 10 23 10 44 0 40 14 61 41 61 14 0 18 -17 24 -122 l7 -123 33
-1 32 0 7 80 c3 45 6 114 6 155 0 61 -3 72 -15 67 -23 -9 -19 60 5 91 12 16
20 41 20 64 0 22 5 39 10 39 6 0 10 -25 10 -55 0 -42 3 -55 15 -55 12 0 15
-14 15 -67 0 -36 3 -64 6 -60 3 3 18 1 32 -4 l25 -10 -6 158 c-3 87 -4 152 -1
146 9 -21 44 -15 44 7 0 14 -7 20 -24 20 -16 0 -26 7 -29 22 -8 28 9 59 31 54
49 -9 50 -12 57 -142 7 -109 9 -124 25 -124 16 0 19 15 25 135 4 78 11 132 17
129 13 -8 38 15 38 37 0 10 -10 21 -22 25 -13 4 -26 12 -30 18 -13 19 -9 63 7
76 12 10 20 7 45 -18 26 -26 30 -38 30 -84 0 -51 1 -54 25 -54 23 0 25 3 25
52 0 65 7 84 31 84 14 0 19 7 19 30 0 21 -5 30 -16 30 -18 0 -54 36 -54 54 0
13 20 45 20 33 0 -4 9 -3 21 3 17 10 21 8 26 -9 3 -11 14 -23 24 -26 16 -5 19
-16 19 -60 0 -44 3 -53 15 -49 10 4 15 20 15 48 0 35 5 45 35 69 43 34 44 51
5 74 -39 23 -49 57 -24 84 18 20 18 20 34 1 33 -43 95 -56 126 -28 8 6 20 17
29 24 19 16 16 32 -10 46 -30 18 -65 49 -65 59 0 12 26 37 40 37 6 0 24 -10
40 -21 23 -18 36 -20 73 -15 48 7 83 36 74 61 -4 8 -16 15 -28 15 -26 0 -79
36 -79 54 0 7 8 20 19 30 19 17 37 15 81 -13 25 -17 80 -23 80 -9 0 4 8 8 18
8 23 0 42 19 42 42 0 12 -12 21 -39 28 -47 12 -62 42 -36 70 18 20 38 17 67
-8 24 -21 104 -9 135 20 l23 21 0 -26 c0 -15 5 -27 10 -27 6 0 10 27 10 61 0
68 14 88 61 89 14 0 30 5 37 12 9 9 12 8 12 -4 0 -9 7 -18 15 -22 10 -3 15 1
15 13 0 11 6 22 13 25 10 5 10 7 0 12 -8 3 -13 24 -13 49 0 41 2 44 33 50 17
4 40 9 50 11 10 3 17 0 17 -9 0 -8 9 -17 20 -20 12 -3 20 0 20 8 0 7 7 15 15
19 8 3 15 12 15 21 0 8 -7 15 -15 15 -9 0 -15 10 -15 26 0 19 -4 25 -15 20 -8
-3 -15 -1 -15 4 0 6 6 10 14 10 8 0 17 11 20 25 5 21 10 23 29 16 14 -5 30 -5
40 0 13 7 17 6 17 -4 0 -8 7 -18 16 -21 22 -9 24 -8 24 10 0 8 5 12 10 9 6 -4
10 5 10 19 0 14 -4 26 -10 26 -13 0 -13 80 0 100 8 12 10 12 10 1 0 -10 9 -12
35 -8 26 4 35 2 35 -9 0 -8 4 -14 9 -14 5 0 16 -3 25 -6 13 -5 16 7 18 73 2
43 7 78 13 78 18 1 55 25 55 36 0 6 -13 16 -30 22 -16 6 -30 15 -30 20 0 4 -4
5 -10 2 -18 -11 -11 37 7 50 14 11 23 10 45 -1 26 -13 28 -19 28 -73 0 -58 1
-59 30 -63 l30 -5 0 64 c0 58 2 64 24 75 14 6 27 17 31 26 6 16 -11 42 -28 42
-11 0 -47 39 -47 52 0 4 9 17 20 28 l20 20 30 -27 c26 -23 30 -33 30 -81 0
-42 3 -53 14 -49 7 3 19 0 25 -6 8 -8 11 5 11 50 0 58 2 63 28 75 33 16 38 61
7 67 -25 4 -55 38 -55 62 0 10 7 24 15 33 8 8 15 19 15 24 0 6 8 9 17 8 29 -5
51 -56 52 -121 1 -58 2 -61 26 -61 23 0 25 3 25 53 0 44 4 56 26 77 28 25 27
56 -1 56 -8 0 -15 7 -15 15 0 8 -4 15 -10 15 -15 0 -11 62 5 84 8 11 15 28 15
38 0 9 9 22 20 28 19 10 20 8 20 -40 0 -32 6 -57 15 -66 9 -10 15 -35 15 -68
0 -45 3 -52 20 -52 17 0 20 7 20 48 0 26 5 50 10 53 6 3 10 31 10 62 0 47 -2
54 -16 49 -15 -6 -16 1 -10 66 7 78 20 98 63 98 21 0 23 -4 23 -59 0 -52 2
-59 23 -65 45 -12 47 -9 47 68 0 56 4 75 15 80 8 3 15 15 15 26 0 15 -7 20
-25 20 -19 0 -25 5 -26 23 -2 38 2 51 23 74 l20 22 24 -26 c20 -21 24 -36 24
-87 l0 -61 30 0 30 -1 0 86 c0 47 -4 101 -10 120 -7 24 -6 53 2 95 13 65 19
78 43 81 12 2 15 -10 15 -57 0 -33 4 -58 9 -55 11 7 21 -28 21 -79 0 -35 3
-40 24 -40 22 0 24 4 30 80 9 122 8 217 -4 210 -17 -11 -12 101 5 115 8 7 15
28 15 46 0 24 5 34 15 34 11 0 15 -11 15 -40 0 -22 5 -40 10 -40 6 0 10 -32
10 -75 0 -60 3 -73 14 -69 8 3 24 1 35 -6 20 -10 21 -8 21 43 0 30 -5 114 -11
187 -11 136 -1 245 25 262 26 18 36 7 36 -35 0 -24 4 -47 9 -52 5 -6 13 -70
17 -142 6 -120 9 -133 25 -133 17 0 19 8 19 71 0 49 3 68 11 63 8 -5 9 35 4
147 -4 85 -11 156 -16 159 -19 12 -30 67 -23 119 5 44 13 62 35 83 16 15 29
23 29 17 0 -5 6 -8 13 -6 9 1 15 -33 22 -123 6 -69 13 -118 17 -110 4 8 7 -22
7 -67 1 -67 4 -83 16 -83 12 0 15 15 15 76 0 41 4 73 9 70 4 -3 11 36 15 86 9
127 8 190 -3 184 -13 -8 -31 83 -31 158 0 38 6 76 16 95 16 33 17 33 36 13 19
-18 23 -37 47 -217 5 -33 9 -57 10 -53 0 4 12 3 26 -2 l25 -10 0 73 c0 53 3
68 11 57 7 -11 9 27 4 130 -5 111 -10 149 -22 162 -13 15 -15 34 -9 115 4 54
10 101 14 105 5 5 16 2 25 -4 14 -10 19 -36 24 -126 3 -66 10 -108 14 -100 6
9 9 4 9 -13 0 -22 4 -27 25 -25 16 1 25 7 25 18 0 11 5 15 15 12 13 -5 15 12
15 124 l0 130 30 7 c17 4 30 11 30 16 0 13 28 11 32 -3 8 -24 28 5 28 41 0 21
3 51 6 67 5 29 6 29 65 26 l59 -4 0 66 0 66 60 0 60 0 1 78 c0 42 2 73 5 67 6
-15 764 -11 774 5 8 14 20 -46 20 -107 0 -41 0 -42 38 -43 65 -1 72 -3 72 -20
0 -12 10 -16 40 -17 22 -1 40 3 40 8 0 6 5 7 10 4 6 -3 18 2 28 11 16 17 17
14 20 -59 2 -59 6 -77 17 -77 8 0 15 -4 15 -10 0 -6 18 -7 44 -4 25 4 56 4 70
0 24 -6 26 -11 26 -57 0 -41 3 -50 15 -45 8 3 15 0 15 -5 0 -6 9 -9 20 -6 11
3 20 1 20 -4 0 -5 6 -8 13 -6 8 1 13 -18 15 -65 l3 -66 34 2 c19 2 35 0 35 -4
0 -3 22 -5 50 -4 l49 3 3 -65 3 -66 65 -1 c153 -2 200 2 200 18 0 17 41 30 70
22 18 -5 20 0 20 39 0 34 3 42 15 38 8 -4 15 -1 15 6 0 6 5 8 10 5 6 -3 10 1
10 10 0 9 5 13 10 10 6 -3 10 3 10 14 0 23 25 29 33 9 3 -7 6 15 6 50 1 34 5
62 10 62 5 0 12 63 16 141 5 84 11 135 16 127 5 -8 9 16 9 60 0 46 4 71 10 67
12 -7 13 43 4 172 l-7 89 -32 0 -32 -1 -7 -95 c-3 -52 -6 -148 -6 -212 0 -67
-4 -119 -10 -123 -5 -3 -10 -15 -10 -26 0 -39 -17 -17 -38 49 -12 38 -22 86
-22 108 0 21 -7 52 -15 68 -9 16 -18 56 -22 88 -5 50 -3 58 11 58 11 0 16 9
16 30 0 20 5 30 15 30 9 0 15 9 15 23 0 18 2 19 10 7 7 -10 9 8 9 60 -1 74
-14 227 -17 203 -1 -7 -15 -13 -31 -13 -16 0 -32 6 -34 13 -3 6 -6 -50 -6
-126 -1 -110 -4 -143 -18 -163 l-16 -25 -31 48 c-17 26 -36 53 -42 58 -7 6
-15 38 -19 73 -6 53 -5 62 9 62 9 0 16 6 16 14 0 8 7 16 15 20 8 3 15 12 15
21 0 8 5 15 10 15 6 0 10 52 10 135 l0 135 -31 -7 c-20 -4 -34 -1 -39 7 -4 7
-12 -51 -16 -129 -5 -78 -13 -141 -18 -140 -5 0 -13 -5 -17 -13 -6 -9 -9 -10
-9 -1 0 7 -16 29 -35 49 -33 33 -35 40 -35 100 0 36 4 64 10 64 6 0 10 7 10
15 0 8 6 15 13 15 26 0 37 54 37 182 0 79 -4 128 -10 128 -5 0 -10 -5 -10 -11
0 -14 -52 -2 -62 14 -4 7 -8 -43 -8 -110 0 -169 -6 -178 -72 -119 -32 28 -38
40 -44 89 -5 44 -3 59 9 71 9 9 19 16 24 16 21 0 31 48 38 183 7 134 6 147 -9
141 -14 -5 -16 3 -16 55 0 54 -2 61 -20 61 -11 0 -21 6 -22 13 -3 28 -16 -165
-17 -260 -1 -140 -12 -160 -61 -108 -13 14 -29 25 -36 25 -15 0 -34 104 -25
139 4 14 9 24 12 22 2 -2 14 -1 27 3 20 7 22 13 22 87 0 46 4 79 10 79 6 0 10
34 10 81 0 67 -3 80 -15 76 -11 -5 -15 6 -17 51 -3 49 -6 57 -24 60 -20 3 -21
-3 -27 -89 -4 -51 -7 -133 -7 -184 l0 -92 -50 25 c-53 26 -70 57 -70 130 0 25
4 32 19 32 30 0 35 18 32 108 -2 59 1 82 8 78 8 -5 11 15 10 66 -1 73 -14 224
-17 201 -1 -8 -12 -10 -32 -6 -30 5 -30 5 -30 -38 0 -24 -5 -104 -11 -180
l-12 -136 -28 16 c-17 9 -36 35 -48 61 -21 50 -37 200 -21 200 6 0 10 -22 10
-50 0 -41 3 -50 18 -50 28 0 43 20 31 42 -5 10 -14 16 -20 13 -10 -7 -12 56
-3 104 5 23 11 30 22 26 13 -5 14 11 8 127 -7 125 -13 159 -23 131 -3 -8 -13
-9 -34 -3 l-29 9 0 -129 c0 -75 -4 -131 -10 -135 -5 -3 -10 -25 -11 -48 0 -37
-2 -40 -12 -23 -7 10 -27 41 -44 68 -23 34 -33 62 -33 88 0 53 11 101 21 94 5
-3 9 5 9 18 0 13 7 36 15 52 18 33 22 286 5 286 -5 0 -10 -4 -10 -9 0 -6 -12
-6 -30 -1 l-30 9 0 -114 c0 -92 -3 -120 -17 -143 -22 -35 -42 -31 -71 14 -26
40 -44 164 -23 164 6 0 11 7 11 15 0 8 4 15 8 15 5 0 14 11 20 25 15 33 16
295 2 295 -5 0 -10 -5 -10 -11 0 -7 -10 -9 -24 -7 -23 5 -24 4 -30 -106 -9
-137 -11 -145 -37 -139 -42 11 -68 50 -75 113 -6 56 -5 62 20 85 14 13 26 29
26 35 0 6 5 8 10 5 11 -7 12 104 1 219 -6 65 -7 69 -23 53 -21 -21 -34 -22
-46 -1 -6 12 -12 -24 -17 -110 -5 -84 -11 -126 -19 -126 -6 0 -24 11 -40 24
-26 20 -30 31 -34 88 -4 59 -2 67 22 91 26 26 26 28 26 172 0 90 -4 145 -10
145 -5 0 -10 -4 -10 -9 0 -15 -42 -25 -50 -11 -4 6 -10 -39 -14 -102 -4 -62
-9 -114 -11 -116 -2 -2 -22 4 -43 13 -43 19 -52 40 -52 116 0 31 6 42 31 60
l32 22 -6 205 c-3 124 -10 209 -16 215 -6 6 -11 43 -11 82 l0 71 70 -4 70 -4
0 72 0 73 265 -5 264 -6 3 67 3 66 58 -2 57 -2 0 60 c0 52 2 59 20 59 15 0 20
7 20 28 0 15 4 23 8 17 4 -5 16 -12 27 -13 11 -2 22 -8 25 -12 3 -5 10 -6 16
-2 7 4 14 71 18 172 3 91 9 238 13 327 l6 162 -32 -2 -31 -2 0 -77 c0 -45 -4
-78 -10 -78 -5 0 -10 -13 -10 -28 0 -19 -5 -29 -15 -29 -8 0 -15 8 -15 18 0 9
-6 19 -12 22 -10 3 -13 56 -13 220 -1 119 -3 219 -6 222 -4 3 -14 3 -23 -1
-12 -4 -16 -19 -16 -53 0 -25 -7 -59 -15 -75 -8 -15 -15 -48 -15 -73 0 -59
-23 -53 -31 8 -3 24 -7 40 -8 34 -1 -5 -6 -3 -11 5 -6 9 -7 72 -3 164 6 144 6
148 -13 139 -10 -6 -25 -8 -31 -6 -10 3 -13 -12 -13 -59 0 -51 -4 -67 -20 -81
-19 -16 -22 -16 -45 -1 -19 12 -25 25 -25 50 0 19 5 34 10 34 10 0 15 192 5
202 -3 2 -18 3 -35 0 -29 -4 -29 -4 -32 -80 -3 -66 -5 -75 -23 -78 -22 -3 -48
13 -57 36 -8 23 10 63 26 57 8 -3 22 1 33 8 16 13 16 16 3 25 -8 6 -23 8 -32
6 -16 -4 -18 5 -18 80 l0 84 -30 0 c-24 0 -30 -4 -30 -21 0 -15 -5 -19 -15
-15 -21 8 -45 -3 -45 -21 0 -12 7 -14 30 -9 30 5 30 5 30 -39 0 -40 -2 -45
-22 -45 -46 1 -65 29 -73 109 -6 67 -5 73 11 67 15 -6 16 2 10 101 -4 60 -12
112 -17 118 -6 5 -9 5 -9 -3 0 -6 -7 -9 -15 -6 -12 5 -15 -4 -15 -44 0 -32 -6
-56 -15 -66 -10 -9 -15 -34 -15 -72 0 -56 0 -57 -20 -39 -11 10 -20 23 -20 30
0 6 -9 30 -20 53 -11 22 -20 46 -20 53 0 13 38 49 52 49 11 0 10 37 -2 45 -5
3 -10 37 -10 75 l0 69 -35 -1 -35 -1 0 -65 c0 -47 -5 -71 -16 -83 -16 -18 -18
-18 -45 -2 -24 14 -29 24 -29 55 0 36 2 38 30 38 26 0 30 4 30 26 0 21 -4 25
-20 21 -18 -5 -19 1 -22 77 -3 84 -2 83 -48 77 -5 0 -10 -34 -12 -73 l-3 -73
-28 2 c-49 3 -57 18 -57 100 0 49 4 72 10 68 7 -4 8 -24 4 -51 l-6 -44 33 6
c41 8 43 10 34 24 -4 6 -15 8 -26 5 -18 -6 -19 0 -19 83 0 85 -1 90 -22 96
-42 11 -57 7 -64 -19 -3 -14 -10 -25 -15 -25 -11 0 -12 -27 -1 -32 14 -5 22
-52 13 -67 -7 -11 -13 -10 -34 5 -21 16 -26 30 -32 89 -5 48 -4 70 4 73 6 2
11 12 11 22 0 10 4 21 9 25 6 3 4 19 -5 40 -8 19 -14 54 -14 78 0 39 -2 43
-22 42 -19 -1 -24 -9 -28 -46 -5 -45 -51 -132 -58 -111 -2 7 -8 12 -14 12 -15
0 -37 31 -38 53 0 9 5 17 10 17 6 0 10 6 10 14 0 8 11 17 25 20 30 8 33 36 5
43 -18 5 -20 14 -20 80 l0 74 -27 -4 c-27 -3 -28 -6 -31 -65 -2 -52 -7 -65
-26 -77 -28 -19 -49 -12 -66 20 -14 27 -6 39 43 64 l27 14 -20 22 c-16 17 -20
35 -20 93 0 57 -3 72 -15 72 -8 0 -15 4 -15 9 0 12 -41 1 -57 -15 -8 -7 -13
-38 -13 -73 0 -57 -1 -61 -22 -57 -19 2 -24 10 -26 40 -2 25 0 36 7 31 7 -4
11 6 10 27 0 27 -2 30 -9 13 -7 -17 -9 -14 -9 13 -1 20 3 31 9 27 6 -4 10 18
10 58 0 64 -1 65 -31 76 -29 10 -33 8 -70 -30 -30 -31 -39 -36 -39 -22 0 15
-2 16 -10 3 -7 -11 -10 -3 -10 28 0 24 4 41 9 38 14 -9 23 59 11 88 -5 15 -10
49 -10 76 0 43 -2 48 -20 45 -11 -2 -38 4 -60 13 -39 17 -40 18 -40 70 0 28
-4 52 -10 52 -6 0 -10 29 -10 68 l0 67 -51 3 c-61 2 -78 19 -79 77 0 37 -2 40
-28 41 -16 1 -41 4 -55 8 -25 6 -27 10 -27 66 0 32 -4 62 -10 65 -5 3 -10 1
-10 -4 0 -6 -4 -11 -10 -11 -6 0 -10 32 -10 75 0 43 4 75 10 75 6 0 10 32 10
75 0 73 -1 75 -22 71 -13 -3 -47 -8 -76 -11 l-54 -6 2 608 c1 334 2 639 1 676
l-1 68 -50 -7 -50 -7 0 62 c0 34 -4 61 -10 61 -6 0 -10 30 -10 71 0 59 -3 70
-15 65 -13 -4 -15 7 -15 69 0 60 3 75 15 75 12 0 15 15 15 75 0 58 -3 75 -14
75 -28 0 -46 -30 -46 -76 0 -24 -2 -44 -5 -44 -2 0 -20 7 -39 16 -28 14 -35
23 -39 57 -3 22 -1 51 4 64 5 13 9 46 9 73 0 39 -3 48 -15 44 -8 -3 -17 -15
-20 -25 -4 -11 -22 -27 -40 -36 -33 -16 -33 -15 -94 27 -34 24 -61 48 -61 55
0 13 31 25 68 25 12 0 22 4 22 9 0 5 9 11 20 14 25 6 27 45 3 54 -10 4 -21 10
-24 15 -6 10 -68 -9 -90 -28 -9 -8 -19 -11 -23 -7 -4 4 -39 8 -77 8 -51 0 -72
4 -79 15 -15 24 -12 41 10 47 11 3 20 9 20 13 0 4 32 10 71 12 79 6 102 19 78
44 -10 9 -41 17 -80 20 -108 8 -142 4 -165 -17 -25 -24 -45 -24 -107 -2 -80
29 -88 73 -13 73 39 0 139 15 179 26 9 3 17 12 17 20 0 8 -4 12 -10 9 -5 -3
-10 -1 -10 6 0 7 -3 10 -6 6 -4 -3 -18 0 -33 7 -59 30 -136 27 -179 -7 -8 -6
-21 -11 -30 -12 -10 -1 -38 -5 -63 -9 -41 -6 -50 -4 -78 19 -17 15 -31 31 -31
36 0 18 65 38 142 44 42 4 85 13 95 21 17 13 17 15 -7 34 -40 31 -217 33 -259
3 -30 -23 -68 -22 -123 3 -32 14 -55 40 -45 50 1 1 26 4 55 5 28 2 52 6 52 9
0 4 21 10 46 13 55 6 70 18 55 44 -6 10 -11 14 -11 9 0 -5 -6 -4 -12 2 -44 35
-130 32 -180 -8 -36 -28 -145 -21 -170 10 -25 31 -23 59 5 64 12 3 54 7 93 8
39 2 79 9 87 16 39 33 -25 68 -106 59 -94 -11 -144 -20 -153 -30 -14 -14 -50
-6 -88 21 -63 43 -60 45 112 71 108 16 94 50 -28 67 -19 3 -41 7 -48 9 -17 6
-70 -21 -103 -52 -16 -15 -29 -21 -33 -14 -4 5 -28 13 -54 17 -57 8 -92 30
-92 56 0 37 24 48 109 48 81 0 131 11 131 30 0 6 -15 20 -32 31 -28 17 -44 19
-98 15 -107 -9 -123 -12 -168 -36 -42 -22 -44 -22 -83 -5 -52 24 -83 51 -76
68 3 9 40 17 108 25 141 15 144 16 144 37 0 15 -16 23 -75 38 -88 22 -128 17
-173 -22 -32 -28 -54 -32 -122 -17 -11 3 -23 5 -27 5 -14 2 -48 45 -48 62 0
22 20 29 83 29 67 1 135 14 150 30 9 9 7 16 -11 30 -33 28 -88 35 -152 21 -30
-7 -60 -13 -66 -14 -6 -2 -24 -11 -40 -22 -42 -28 -57 -28 -115 3 -52 27 -79
55 -66 68 3 4 59 13 124 20 135 16 143 18 143 38 0 18 -8 23 -43 30 -15 3 -35
7 -45 10 -49 16 -98 14 -137 -3 -23 -10 -46 -24 -49 -30 -4 -6 -12 -9 -17 -6
-5 4 -9 3 -9 -2 0 -4 -25 -7 -57 -6 -42 2 -62 8 -80 24 -48 46 -12 79 88 79
73 0 129 15 129 35 0 7 -12 20 -26 30 -21 14 -45 16 -129 13 -98 -3 -105 -5
-133 -31 -24 -23 -35 -27 -58 -21 -69 16 -137 68 -117 88 3 3 29 6 57 7 28 0
78 6 111 13 53 11 60 15 60 36 0 21 -9 27 -55 42 -63 20 -98 16 -156 -18 -23
-13 -44 -21 -47 -18 -3 3 -21 1 -40 -5 -68 -23 -143 34 -101 76 12 13 40 19
103 23 91 5 111 12 111 36 0 25 -64 44 -147 44 -74 0 -81 -2 -117 -32 -44 -36
-58 -41 -90 -28 -11 5 -33 11 -48 14 -52 11 -89 76 -52 90 9 3 52 6 97 7 45 1
93 4 107 8 39 11 32 43 -14 65 -35 17 -47 18 -100 8 -97 -17 -106 -20 -143
-42 -41 -24 -71 -25 -120 -5 -48 20 -73 43 -73 67 0 15 8 18 43 18 55 1 219
24 235 34 30 18 7 44 -48 53 -14 2 -52 8 -85 13 -52 8 -65 7 -103 -11 -24 -12
-46 -28 -49 -35 -3 -8 -8 -12 -12 -10 -3 2 -28 0 -54 -5 -53 -9 -85 -1 -117
31 -47 47 -2 76 123 79 79 2 127 13 127 29 0 5 -9 17 -20 27 -19 17 -128 35
-180 29 -14 -1 -33 -3 -42 -3 -10 -1 -35 -17 -56 -36 l-38 -34 -58 13 c-65 15
-96 39 -96 72 0 29 14 32 132 36 94 3 121 15 102 46 -21 33 -80 47 -148 34
-94 -17 -100 -19 -137 -41 -39 -24 -57 -26 -111 -9 -44 13 -88 49 -88 73 0 11
11 15 48 15 65 0 233 27 245 39 18 18 -1 38 -45 46 -23 4 -50 9 -58 11 -8 2
-40 5 -70 6 -44 1 -65 -4 -105 -26 -27 -16 -55 -32 -60 -36 -6 -5 -40 -8 -75
-6 -109 4 -205 62 -167 100 10 10 49 14 154 15 151 1 197 10 191 39 -5 27 -74
45 -173 45 -67 1 -98 -4 -122 -16 -18 -10 -36 -18 -40 -18 -5 0 -14 -6 -22
-12 -56 -47 -358 -16 -435 44 -15 12 -25 23 -22 26 15 15 103 22 277 23 200 2
279 12 279 36 0 7 -14 21 -32 30 -43 23 -256 31 -358 14 -41 -7 -86 -13 -100
-14 -14 -2 -48 -14 -77 -28 -29 -14 -54 -21 -55 -16 -2 5 -16 4 -32 -2 -19 -7
-149 -11 -380 -10 -388 0 -429 2 -450 19 -8 7 -30 14 -48 16 -18 2 -58 12 -88
21 -72 22 -350 28 -428 9z m1376 -359 c246 -37 499 -112 696 -205 162 -76 848
-486 1436 -858 671 -423 1377 -897 2129 -1427 324 -228 390 -279 380 -290 -11
-12 -560 208 -1149 461 -765 328 -1635 728 -2520 1158 -440 214 -531 253 -694
295 -188 48 -331 63 -556 57 -358 -9 -659 -91 -960 -262 -221 -125 -447 -325
-581 -514 -36 -50 -237 -401 -447 -779 -1791 -3226 -3059 -5290 -4431 -7214
-124 -174 -227 -316 -228 -314 -4 4 182 462 342 846 818 1960 1851 4078 3216
6595 612 1130 663 1219 783 1380 112 151 373 413 518 521 418 311 893 501
1403 559 152 18 518 13 663 -9z m-10001 -1626 c336 -15 399 -29 488 -111 62
-57 85 -98 145 -264 260 -712 654 -1331 1205 -1894 312 -318 643 -561 1290
-948 160 -95 297 -177 305 -183 38 -25 -164 71 -340 162 -634 329 -1021 576
-1323 847 -588 527 -1055 1174 -1358 1883 -76 178 -86 195 -122 208 -63 21
-735 7 -1182 -25 -806 -59 -1502 -175 -2400 -402 -827 -208 -1434 -465 -1815
-769 -119 -96 -337 -317 -452 -459 -256 -319 -417 -585 -806 -1335 -473 -913
-663 -1227 -960 -1589 -226 -275 -365 -408 -792 -756 -259 -211 -483 -424
-568 -540 -108 -146 -173 -305 -215 -525 -21 -110 -22 -138 -21 -625 3 -1021
50 -1556 184 -2100 72 -292 159 -528 289 -781 262 -509 645 -903 1176 -1209
166 -96 690 -359 860 -433 275 -119 495 -188 730 -229 142 -24 593 -25 790 0
77 10 980 150 2007 312 1026 162 1886 295 1910 295 111 0 229 -53 312 -140 69
-72 96 -127 135 -274 54 -200 90 -306 148 -426 45 -94 67 -126 122 -181 81
-81 97 -87 296 -99 83 -6 191 -19 241 -29 271 -56 599 -257 884 -541 116 -116
169 -197 217 -335 25 -72 28 -93 27 -205 0 -108 -4 -136 -27 -205 -15 -44 -43
-109 -64 -145 -55 -94 -212 -246 -398 -385 -183 -138 -197 -156 -203 -271 -9
-166 81 -330 348 -635 182 -208 313 -368 427 -520 676 -903 930 -1733 772
-2514 -43 -211 -112 -388 -276 -715 -189 -376 -225 -454 -274 -601 -84 -251
-122 -488 -122 -759 1 -399 78 -718 269 -1100 124 -247 276 -477 464 -700 236
-280 415 -650 476 -980 11 -62 18 -201 24 -510 10 -462 15 -511 80 -772 81
-321 207 -651 447 -1173 270 -585 399 -806 591 -1007 188 -197 382 -292 675
-328 65 -8 166 -11 295 -7 298 8 498 43 1097 188 397 97 534 140 696 220 443
218 660 501 969 1264 226 562 409 867 666 1115 140 135 250 209 476 322 304
151 325 170 335 312 4 63 -42 1232 -67 1696 -32 585 81 977 368 1281 133 141
286 250 545 386 374 196 544 325 676 513 204 289 248 559 235 1435 -4 302 -3
493 5 610 28 402 95 754 213 1115 235 725 613 1344 1143 1875 182 181 309 288
659 555 497 378 741 587 943 808 465 509 844 1189 1208 2167 37 99 132 374
211 610 79 237 144 425 144 420 0 -19 -137 -566 -188 -750 -292 -1051 -644
-1838 -1082 -2420 -250 -332 -485 -566 -1020 -1016 -135 -114 -304 -260 -375
-326 -462 -424 -785 -889 -1057 -1518 -288 -666 -357 -1086 -326 -2005 19
-589 17 -986 -5 -1128 -40 -251 -119 -493 -218 -667 -96 -168 -183 -274 -331
-401 -122 -104 -224 -173 -488 -331 -237 -142 -345 -219 -440 -314 -164 -164
-224 -371 -200 -695 5 -76 19 -278 30 -449 11 -170 35 -517 52 -770 20 -282
32 -534 32 -650 -1 -172 -3 -199 -27 -287 -77 -291 -250 -464 -692 -694 -78
-41 -170 -98 -208 -129 -171 -141 -334 -413 -482 -800 -182 -481 -322 -785
-465 -1013 -176 -281 -383 -507 -595 -649 -94 -63 -308 -176 -450 -238 -288
-126 -699 -240 -1272 -355 -548 -109 -846 -129 -1226 -80 -539 68 -1026 414
-1412 1000 -109 165 -157 254 -310 570 -399 829 -532 1166 -650 1655 -61 249
-73 362 -85 756 -6 204 -16 383 -26 446 -32 222 -111 364 -419 758 -86 110
-205 272 -263 360 -303 454 -481 966 -533 1534 -17 196 -7 606 21 786 68 447
203 842 402 1172 108 180 187 376 230 570 19 83 22 129 22 303 0 176 -3 220
-23 310 -59 274 -149 482 -358 832 -119 198 -200 305 -511 668 -200 233 -348
426 -432 560 -77 123 -175 331 -205 435 -90 311 -70 640 55 902 81 172 182
290 368 431 62 47 109 88 105 92 -63 56 -142 110 -202 138 -71 34 -81 36 -220
43 -211 10 -376 51 -536 131 -289 146 -532 441 -690 841 -28 72 -43 97 -56 97
-10 0 -271 -39 -581 -86 -310 -47 -729 -109 -933 -139 -203 -30 -525 -79 -715
-109 -1544 -246 -2009 -255 -2685 -51 -424 128 -1297 566 -1707 856 -665 471
-1157 1108 -1399 1807 -148 429 -242 937 -290 1567 -16 215 -23 1322 -10 1570
30 550 123 859 359 1193 141 201 318 374 626 615 497 388 586 465 753 649 334
369 605 784 1058 1623 545 1008 1047 1611 1663 1997 557 349 1252 561 2549
777 546 91 1015 138 1653 164 181 8 786 6 987 -3z m1593 -1442 c0 -26 -8 -52
-19 -67 -16 -21 -20 -22 -42 -11 -33 18 -48 40 -49 73 0 25 3 27 44 27 25 0
48 5 51 10 11 18 15 10 15 -32z m10927 -519 c571 -48 1070 -250 1495 -607 91
-76 374 -380 822 -882 354 -397 942 -1092 1133 -1337 59 -77 151 -193 204
-259 52 -65 140 -177 194 -249 99 -131 156 -204 240 -305 150 -181 208 -257
244 -319 40 -67 53 -121 30 -121 -29 0 -889 713 -1469 1219 -411 358 -986 876
-1470 1322 -273 252 -315 287 -441 369 -438 284 -994 386 -1521 279 -230 -46
-517 -171 -708 -306 -63 -46 -218 -188 -475 -438 -2272 -2207 -3656 -3474
-5160 -4725 -594 -494 -1632 -1320 -1660 -1320 -3 0 87 116 201 258 1123 1394
2379 2800 3924 4392 729 751 2306 2318 2450 2433 439 353 950 550 1555 600 95
8 293 6 412 -4z m-20308 -2005 c19 -6 6 -54 -21 -76 -42 -37 -77 -11 -78 58
l0 41 43 -10 c23 -5 48 -11 56 -13z m21641 -1793 c845 -131 1563 -610 1936
-1293 408 -746 979 -1913 1419 -2898 247 -554 491 -1120 497 -1157 9 -50 -38
2 -204 224 -625 838 -1371 1931 -2112 3093 -65 102 -151 235 -191 295 -307
463 -836 784 -1418 861 -147 19 -446 14 -576 -10 -188 -35 -374 -98 -516 -175
-38 -21 -272 -153 -520 -293 -3328 -1885 -5598 -3038 -7838 -3979 -104 -43
-191 -79 -194 -79 -13 0 529 399 972 715 1847 1318 3919 2619 6710 4212 116
66 239 137 274 158 272 160 646 288 961 329 69 9 139 18 155 20 17 2 138 3
270 1 181 -2 273 -8 375 -24z m2374 -1297 c21 -8 24 -144 3 -144 -37 0 -61 55
-50 113 4 21 8 25 14 15 7 -10 9 -9 9 5 0 19 2 20 24 11z m156 -304 c0 -70 -4
-110 -10 -110 -6 0 -24 7 -39 15 -23 11 -30 23 -35 60 -8 48 -1 85 15 85 5 0
9 7 9 15 0 8 6 15 14 15 8 0 16 7 20 15 3 8 10 15 16 15 6 0 10 -41 10 -110z
m-25783 -3372 c-3 -7 -5 -2 -5 12 0 14 2 19 5 13 2 -7 2 -19 0 -25z m509 -627
c15 -1 35 -48 28 -66 -4 -9 -19 -15 -38 -15 -18 0 -37 -5 -44 -12 -9 -9 -12
-4 -12 25 0 44 17 76 39 72 9 -2 21 -4 27 -4z m34 -177 c0 -8 -4 -14 -10 -14
-5 0 -10 9 -10 21 0 11 5 17 10 14 6 -3 10 -13 10 -21z m7444 -1145 c21 -16
26 -28 24 -53 -3 -31 -4 -31 -53 -29 -27 1 -68 1 -90 0 -22 -1 -138 -2 -257
-2 -245 0 -268 6 -194 49 62 36 183 54 382 55 150 1 163 0 188 -20z m374 -565
c19 -5 22 -12 20 -37 -3 -27 -7 -30 -36 -31 -31 -1 -32 1 -32 37 0 38 6 42 48
31z m15020 -660 c18 -5 22 -13 22 -43 0 -36 0 -37 -39 -33 -45 4 -58 28 -34
61 15 23 18 24 51 15z m-14208 -89 c-6 -7 -20 -15 -30 -18 -18 -5 -20 0 -20
38 0 40 2 44 28 47 23 3 27 -1 30 -25 2 -16 -2 -34 -8 -42z m14098 -85 l3 -36
-40 4 c-42 4 -56 21 -45 54 4 15 13 18 42 16 34 -3 37 -6 40 -38z m-144 -96
c10 -4 16 -18 16 -40 0 -32 -1 -33 -32 -27 -54 10 -73 34 -46 61 13 13 37 15
62 6z m-139 -126 c20 -9 25 -18 25 -49 l0 -37 -40 10 c-47 12 -66 38 -50 68
12 23 28 25 65 8z m-139 -134 c30 -15 34 -20 34 -57 0 -32 -3 -38 -12 -29 -7
7 -22 12 -35 12 -49 0 -82 58 -45 79 22 13 18 14 58 -5z m-13254 -1591 c10 -9
18 -30 18 -49 0 -31 -1 -32 -50 -36 l-50 -3 0 37 c0 60 43 87 82 51z m536
-686 c12 -11 22 -31 22 -43 0 -20 -6 -23 -55 -26 l-55 -3 0 34 c0 40 24 72 48
64 10 -3 27 -15 40 -26z m19 -144 c-3 -10 -5 -4 -5 12 0 17 2 24 5 18 2 -7 2
-21 0 -30z m374 -660 c21 -36 22 -52 27 -256 3 -154 1 -235 -8 -277 -7 -33
-14 -60 -15 -60 -1 0 -19 -7 -39 -15 l-36 -15 0 304 c0 292 1 304 21 330 11
14 22 26 24 26 2 0 13 -17 26 -37z m9118 -3567 c5 -13 17 -26 25 -29 10 -4 16
-19 16 -40 0 -32 -2 -34 -27 -30 -16 3 -35 7 -43 10 -24 9 -52 14 -87 15 -18
1 -33 6 -33 11 0 6 19 27 42 49 50 46 93 52 107 14z m-251 -554 c5 -224 1
-289 -17 -277 -5 3 -11 0 -13 -7 -2 -6 -13 24 -24 68 -23 95 -28 334 -6 355 6
7 12 32 12 55 0 41 15 61 34 43 5 -4 11 -111 14 -237z m-7651 -4569 c-3 -10
-5 -2 -5 17 0 19 2 27 5 18 2 -10 2 -26 0 -35z m5647 -629 c17 -17 19 -27 10
-60 -5 -17 -13 -20 -55 -20 -46 1 -49 2 -49 28 0 17 10 34 26 47 32 25 47 26
68 5z m-73 -177 c-8 -8 -11 -3 -11 19 1 25 2 27 11 11 8 -14 8 -22 0 -30z"/>
<path d="M18411 16514 c0 -11 3 -14 6 -6 3 7 2 16 -1 19 -3 4 -6 -2 -5 -13z"/>
<path d="M16189 34966 c-2 -2 -101 -6 -219 -9 -323 -9 -437 -35 -258 -58 90
-12 1749 -14 1797 -2 72 18 42 49 -55 58 -65 6 -1259 16 -1265 11z"/>
<path d="M15560 34930 c-13 -9 -13 -11 0 -20 24 -16 40 -12 40 10 0 22 -16 26
-40 10z"/>
<path d="M23970 34386 c0 -18 4 -24 15 -20 8 4 15 8 15 11 0 2 -7 11 -15 19
-13 14 -15 13 -15 -10z"/>
<path d="M23825 34120 c-3 -6 1 -13 10 -16 19 -8 30 0 20 15 -8 14 -22 14 -30
1z"/>
<path d="M18276 33991 c-16 -17 -16 -19 0 -25 24 -9 46 25 25 38 -4 3 -16 -3
-25 -13z"/>
<path d="M18611 33458 c-7 -79 -12 -152 -12 -162 0 -38 42 -42 82 -8 16 14 19
31 19 109 0 55 -4 93 -10 93 -5 0 -10 23 -10 50 0 36 -4 50 -14 50 -8 0 -21 2
-29 5 -11 5 -16 -21 -26 -137z"/>
<path d="M11457 33507 c-58 -14 -80 -87 -27 -87 11 0 36 -7 56 -15 19 -8 41
-12 49 -9 22 9 20 77 -2 96 -28 24 -36 25 -76 15z"/>
<path d="M32360 33275 c0 -73 1 -75 25 -75 24 0 25 2 25 75 0 73 -1 75 -25 75
-24 0 -25 -2 -25 -75z"/>
<path d="M11092 33198 c-7 -7 -12 -26 -12 -43 0 -22 -9 -40 -30 -60 -29 -27
-41 -65 -21 -65 5 0 16 -6 23 -13 7 -8 28 -16 46 -20 28 -6 34 -3 44 18 9 19
7 34 -6 68 -9 23 -16 62 -16 85 0 43 -7 51 -28 30z"/>
<path d="M10940 33026 c0 -23 -4 -46 -9 -51 -10 -11 -15 -44 -13 -89 2 -21 6
-27 17 -22 8 3 15 1 15 -5 0 -11 31 3 60 28 17 15 17 53 -1 53 -5 0 -9 7 -9
15 0 8 -4 15 -10 15 -5 0 -10 20 -10 44 0 35 -4 45 -20 49 -18 5 -20 0 -20
-37z"/>
<path d="M19020 32894 c0 -28 -7 -65 -16 -82 -18 -36 -11 -68 15 -77 25 -8
111 31 111 50 0 8 -9 23 -20 32 -16 14 -20 30 -20 74 l0 56 -35 -1 -35 -1 0
-51z"/>
<path d="M19160 32763 c0 -36 -5 -53 -20 -65 -32 -28 -36 -65 -10 -88 29 -25
79 -20 115 14 29 27 25 48 -14 76 -16 11 -21 26 -22 65 0 27 -3 44 -6 38 -3
-9 -10 -10 -24 -3 -17 10 -19 7 -19 -37z"/>
<path d="M19289 32577 c-40 -49 -49 -62 -49 -74 0 -7 5 -13 10 -13 6 0 22 -12
35 -26 14 -15 25 -22 25 -15 0 6 6 11 14 11 8 0 21 6 28 13 7 7 21 16 31 20
25 9 21 40 -10 67 -30 26 -69 34 -84 17z"/>
<path d="M19423 32443 c-7 -2 -20 -20 -29 -38 -15 -32 -15 -36 3 -59 18 -25
73 -37 73 -17 0 5 16 15 35 21 42 14 49 24 36 49 -19 34 -83 59 -118 44z"/>
<path d="M10350 31980 c0 -5 7 -10 15 -10 8 0 15 5 15 10 0 6 -7 10 -15 10 -8
0 -15 -4 -15 -10z"/>
<path d="M10139 31887 c0 -12 -3 -16 -6 -9 -13 33 -23 4 -23 -68 0 -47 4 -80
10 -80 6 0 10 -25 10 -55 0 -41 -4 -55 -14 -55 -24 0 -31 -41 -10 -57 27 -20
68 -13 72 12 8 59 26 124 35 122 17 -3 19 20 2 36 -10 11 -15 36 -15 84 0 48
-3 63 -10 53 -8 -12 -10 -11 -10 6 0 30 -40 40 -41 11z"/>
<path d="M10013 31723 c-8 -3 -13 -24 -13 -54 0 -37 -4 -49 -15 -49 -12 0 -15
-15 -15 -79 0 -73 2 -81 25 -99 14 -11 25 -25 25 -31 0 -17 37 -13 44 5 11 27
7 221 -4 204 -7 -11 -10 3 -10 48 0 62 -5 69 -37 55z"/>
<path d="M20571 31714 c0 -11 3 -14 6 -6 3 7 2 16 -1 19 -3 4 -6 -2 -5 -13z"/>
<path d="M20955 31451 c-3 -5 -1 -12 5 -16 5 -3 10 1 10 9 0 18 -6 21 -15 7z"/>
<path d="M20981 31444 c0 -11 3 -14 6 -6 3 7 2 16 -1 19 -3 4 -6 -2 -5 -13z"/>
<path d="M9956 31343 c-12 -12 -6 -44 9 -49 27 -11 47 3 36 25 -11 20 -35 33
-45 24z"/>
<path d="M9190 30363 c0 -50 -3 -60 -27 -79 -23 -19 -26 -26 -17 -41 6 -10 21
-19 33 -21 11 -2 21 -7 21 -12 0 -4 12 -12 28 -18 20 -7 31 -6 40 4 14 16 16
80 2 89 -5 3 -10 35 -10 71 0 59 -2 64 -17 55 -11 -6 -24 -6 -35 0 -16 9 -18
4 -18 -48z"/>
<path d="M9070 30230 c0 -38 -5 -49 -30 -70 -34 -28 -39 -59 -10 -67 11 -3 20
-9 20 -13 0 -4 12 -11 28 -15 45 -13 52 -14 52 -5 0 5 7 16 16 25 16 15 15 19
-5 57 -13 25 -21 58 -21 88 0 45 -2 48 -25 46 -23 -1 -25 -5 -25 -46z"/>
<path d="M8920 30041 c0 -5 -9 -12 -19 -16 -44 -14 -27 -68 25 -81 13 -3 24
-10 24 -15 0 -12 28 -11 43 1 7 6 20 17 31 24 18 12 18 13 0 42 -10 16 -26 34
-34 41 -18 15 -70 17 -70 4z"/>
<path d="M8781 29902 c-19 -9 -39 -24 -44 -33 -14 -23 -2 -49 23 -49 12 0 28
-7 36 -15 21 -20 57 -19 82 4 28 23 28 39 -1 72 -30 35 -56 41 -96 21z"/>
<path d="M34012 29180 c0 -14 2 -19 5 -12 2 6 2 18 0 25 -3 6 -5 1 -5 -13z"/>
<path d="M7594 28678 c6 -101 4 -138 -4 -138 -6 0 -10 -10 -8 -22 2 -15 10
-23 23 -23 16 0 21 8 23 43 2 26 9 45 18 49 11 4 14 28 14 113 l0 108 -36 4
-37 4 7 -138z"/>
<path d="M7460 28605 c0 -30 -4 -55 -10 -55 -6 0 -10 -31 -10 -73 0 -61 3 -75
20 -87 15 -11 20 -26 20 -57 0 -32 4 -43 15 -43 8 0 15 -6 15 -12 0 -9 4 -8
10 2 11 17 13 156 4 288 l-7 92 -28 0 c-28 0 -29 -1 -29 -55z"/>
<path d="M34770 28340 c0 -64 3 -80 15 -80 12 0 15 16 15 80 0 64 -3 80 -15
80 -12 0 -15 -16 -15 -80z"/>
<path d="M7200 27946 c0 -43 -4 -66 -12 -68 -10 -4 -13 -239 -13 -1133 0 -894
3 -1129 13 -1132 8 -3 12 -27 12 -74 0 -66 1 -69 23 -69 23 0 24 3 30 107 9
138 9 2208 0 2336 -6 93 -7 97 -30 97 -22 0 -23 -3 -23 -64z"/>
<path d="M34261 25714 c0 -11 3 -14 6 -6 3 7 2 16 -1 19 -3 4 -6 -2 -5 -13z"/>
<path d="M34287 25723 c-13 -12 -7 -23 13 -23 11 0 20 7 20 15 0 15 -21 21
-33 8z"/>
<path d="M35437 23503 c-4 -58 -7 -148 -7 -200 0 -86 1 -93 20 -93 18 0 20 7
20 60 0 33 4 60 10 60 6 0 10 32 10 75 0 43 -4 75 -10 75 -6 0 -10 28 -10 65
0 48 -4 65 -13 65 -11 0 -16 -27 -20 -107z"/>
<path d="M8523 22723 c-10 -21 -10 -33 -1 -55 14 -31 54 -39 64 -13 4 8 14 15
24 15 19 0 50 30 50 48 0 7 -15 12 -35 12 -19 0 -35 5 -35 10 0 6 -12 10 -27
10 -21 0 -31 -7 -40 -27z"/>
<path d="M13615 21390 c-3 -5 6 -17 20 -26 69 -45 312 -69 605 -61 257 8 421
23 467 42 100 42 -38 54 -609 55 -293 0 -479 -4 -483 -10z"/>
<path d="M10922 21260 c-116 -13 -106 -48 21 -72 106 -19 399 -16 512 6 148
28 208 52 168 67 -23 10 -618 9 -701 -1z"/>
<path d="M12710 21261 l-25 -7 30 -16 c50 -25 152 -46 290 -59 248 -23 832 5
870 42 20 20 -16 30 -141 39 -149 11 -987 12 -1024 1z"/>
<path d="M11620 21130 c-234 -7 -280 -12 -280 -31 0 -16 36 -28 126 -41 124
-18 1243 -18 1396 0 148 18 204 39 146 56 -68 20 -893 29 -1388 16z"/>
<path d="M16792 20569 c2 -6 8 -10 13 -10 5 0 11 4 13 10 2 6 -4 11 -13 11 -9
0 -15 -5 -13 -11z"/>
<path d="M16671 20208 c-1 -64 -4 -76 -16 -72 -13 5 -15 -43 -15 -395 0 -261
3 -401 10 -401 6 0 10 -30 10 -70 0 -40 4 -70 10 -70 6 0 10 5 10 10 0 6 7 10
15 10 8 0 15 -5 15 -12 0 -8 3 -9 10 -2 13 13 18 738 6 934 -5 80 -11 139 -13
133 -3 -7 -11 -13 -18 -13 -7 0 -16 6 -18 13 -3 6 -6 -23 -6 -65z"/>
<path d="M17738 17937 c-62 -30 -69 -44 -38 -72 16 -14 20 -31 20 -77 0 -59 4
-65 30 -48 10 6 20 4 31 -6 15 -13 16 -5 22 97 4 61 3 116 -1 123 -5 8 -24 3
-64 -17z"/>
<path d="M31870 16420 c-136 -9 -157 -13 -171 -27 -16 -16 -4 -30 34 -37 56
-10 481 -8 510 3 39 15 34 38 -10 51 -51 15 -222 19 -363 10z"/>
<path d="M31622 16275 c-7 -8 -22 -15 -32 -15 -32 0 -24 -30 10 -36 17 -4 30
-13 30 -20 0 -10 13 -14 40 -14 22 0 40 -4 40 -9 0 -9 -57 -27 -72 -23 -5 1
-8 -3 -8 -8 0 -11 -76 -12 -95 -1 -16 8 -45 8 -45 -1 0 -4 -11 -8 -24 -8 -25
0 -43 -27 -28 -42 5 -5 19 -10 31 -11 11 -1 21 -7 21 -13 0 -7 8 -15 18 -19
15 -6 15 -8 1 -18 -8 -7 -18 -20 -22 -29 -8 -23 -18 -23 -62 3 -46 28 -76 27
-108 -2 -32 -27 -34 -45 -7 -54 11 -3 20 -11 20 -16 0 -5 7 -9 15 -9 10 0 15
-10 15 -31 0 -16 -4 -28 -9 -25 -5 4 -11 0 -14 -6 -3 -10 -15 -7 -45 10 -50
27 -87 28 -129 2 -36 -22 -43 -47 -15 -56 61 -21 72 -30 72 -55 0 -17 -9 -32
-23 -42 -21 -13 -25 -13 -52 9 -24 19 -37 22 -75 18 -71 -8 -110 -23 -110 -44
0 -18 35 -30 86 -30 13 0 24 -4 24 -10 0 -5 7 -10 15 -10 24 0 18 -45 -7 -57
-40 -19 -55 -22 -67 -10 -6 6 -19 12 -28 14 -17 4 -25 4 -55 2 -7 0 -41 1 -76
2 -49 2 -66 -1 -80 -15 -16 -16 -16 -18 2 -32 13 -9 44 -14 84 -14 84 0 115
-28 75 -68 -21 -22 -126 -26 -162 -7 -41 21 -101 30 -101 15 0 -7 -7 -10 -15
-7 -7 3 -24 -2 -36 -12 -28 -22 -19 -51 15 -51 14 0 28 -4 31 -10 3 -5 27 -10
53 -10 58 0 81 -12 64 -33 -7 -8 -27 -18 -45 -22 -17 -4 -37 -9 -44 -10 -6 -2
-19 -8 -29 -13 -14 -8 -25 -6 -45 8 -29 22 -89 35 -89 21 0 -5 -12 -11 -27
-13 -42 -5 -45 -44 -4 -53 17 -4 31 -11 31 -16 0 -5 7 -9 15 -9 8 0 15 -8 15
-19 0 -23 -52 -47 -77 -36 -33 14 -47 14 -95 -2 -55 -17 -63 -41 -18 -49 17
-4 30 -12 30 -19 0 -8 5 -15 12 -17 7 -3 5 -11 -6 -25 -15 -17 -24 -19 -59
-12 -23 4 -47 3 -53 -2 -6 -5 -14 -6 -17 -2 -4 3 -7 -1 -7 -10 0 -10 -7 -16
-17 -14 -26 3 -29 -16 -5 -28 39 -18 37 -71 -3 -81 -46 -12 -64 10 -68 84 l-3
67 -2 -68 c-2 -66 -2 -68 -37 -84 -39 -19 -49 -53 -15 -53 13 0 20 -7 20 -20
0 -11 5 -20 12 -20 9 0 9 -3 0 -12 -7 -7 -12 -20 -12 -30 0 -10 -7 -18 -15
-18 -8 0 -15 -4 -15 -10 0 -5 -11 0 -25 12 -22 19 -25 30 -25 88 0 66 0 67
-25 62 l-25 -4 1 -174 c1 -171 1 -175 -22 -198 -13 -12 -32 -25 -41 -29 -15
-5 -18 0 -18 37 0 24 -3 84 -6 134 -6 81 -9 92 -25 92 -18 0 -19 -11 -19 -144
0 -80 4 -147 9 -151 5 -3 12 5 15 17 3 13 3 -25 1 -85 -4 -81 -10 -117 -25
-147 -11 -21 -20 -49 -20 -60 0 -12 -4 -19 -9 -16 -5 3 -12 -4 -16 -17 -13
-39 -27 54 -32 208 -3 91 -7 134 -13 125 -7 -10 -10 11 -10 63 0 44 -4 77 -10
77 -6 0 -10 -32 -10 -76 0 -69 -1 -74 -16 -60 -8 9 -18 16 -21 16 -11 0 8
-274 19 -281 6 -4 13 -32 16 -62 3 -43 8 -56 23 -60 18 -5 19 -18 19 -216 0
-134 -4 -211 -10 -211 -5 0 -10 -20 -10 -45 0 -32 -4 -45 -14 -45 -16 0 -26
-43 -26 -112 0 -30 -4 -47 -10 -43 -12 7 -13 -43 -4 -172 7 -89 7 -90 31 -85
15 3 29 -1 34 -9 5 -9 9 31 9 101 0 63 3 152 7 198 6 82 6 82 25 62 10 -11 24
-20 31 -20 8 0 20 -30 30 -73 18 -77 23 -192 8 -183 -5 3 -11 -16 -15 -43 -4
-27 -12 -51 -19 -54 -15 -5 -13 -527 2 -536 5 -3 12 -56 16 -118 7 -104 6
-115 -14 -146 -12 -19 -21 -46 -21 -60 0 -13 -7 -27 -15 -31 -12 -4 -15 4 -15
39 0 25 -4 45 -9 45 -5 0 -12 63 -16 140 -7 136 -8 140 -30 140 -21 0 -22 -5
-29 -100 -6 -94 0 -287 10 -320 5 -13 6 -13 15 0 8 11 9 -16 5 -89 -3 -56 -10
-108 -15 -115 -5 -6 -14 -30 -20 -53 -11 -40 -13 -42 -36 -31 -25 11 -25 11
-25 162 0 101 -4 146 -10 136 -7 -10 -10 11 -10 68 0 74 -2 83 -17 80 -15 -3
-19 -16 -21 -71 -2 -46 -6 -65 -14 -61 -16 10 -1 -248 17 -283 21 -42 39 -299
40 -563 2 -337 2 -350 19 -344 9 3 16 -4 20 -21 4 -14 10 -24 15 -21 9 6 21
-112 21 -201 0 -50 1 -53 19 -43 15 8 22 7 28 -5 5 -8 26 -16 48 -17 39 -3 40
-4 43 -46 2 -28 8 -42 18 -42 8 0 14 -7 14 -15 0 -18 1 -18 34 -5 21 8 31 6
51 -12 20 -17 25 -31 25 -67 1 -40 2 -44 14 -28 17 23 26 22 26 -3 0 -18 3
-19 20 -10 11 6 25 8 32 4 6 -4 20 -7 32 -8 19 -1 21 -8 24 -72 l3 -72 87 4
c48 2 101 6 117 9 27 6 476 15 870 18 153 1 212 -4 235 -18 30 -19 267 -30
287 -13 7 6 13 7 13 3 0 -4 7 -2 15 5 8 7 15 16 15 20 0 16 -65 30 -136 30
-43 0 -74 4 -74 10 0 6 -20 10 -45 10 -71 0 -59 21 28 51 62 21 136 18 255 -9
24 -6 42 -6 42 -1 0 5 15 9 34 9 18 0 39 7 46 15 19 22 -5 45 -46 45 -19 0
-34 5 -34 10 0 6 -22 10 -50 10 -37 0 -50 4 -50 14 0 19 7 23 53 30 21 3 46
10 55 14 19 8 39 8 62 -1 27 -10 70 -14 70 -7 0 4 14 10 30 14 35 7 44 46 11
46 -11 0 -26 7 -35 15 -8 8 -22 15 -30 15 -26 0 -18 30 12 42 31 13 61 11 81
-5 23 -19 54 -18 89 3 35 22 43 56 15 67 -29 11 -69 56 -55 61 7 2 12 8 12 14
0 6 7 16 16 22 13 10 22 6 49 -21 35 -35 56 -41 77 -20 7 7 21 16 31 20 17 6
25 47 9 47 -5 0 -19 9 -32 20 -17 15 -21 26 -17 52 15 93 57 152 57 80 0 -39
19 -92 33 -92 4 0 7 -22 7 -49 0 -46 12 -72 23 -53 3 4 9 56 13 115 6 97 5
107 -10 101 -24 -9 -21 31 4 56 11 11 20 16 20 11 0 -16 35 -5 38 12 3 16 -13
22 -45 18 -8 -1 -13 11 -13 33 0 26 6 40 24 51 43 28 56 12 56 -71 0 -43 4
-74 10 -74 6 0 10 -28 10 -62 0 -45 3 -59 10 -48 6 10 10 11 10 3 0 -7 5 -13
10 -13 6 0 10 27 10 60 0 33 4 60 10 60 6 0 10 40 10 100 0 89 -2 100 -18 100
-9 0 -23 9 -30 21 -21 33 9 124 47 144 16 8 36 22 45 30 15 15 16 5 16 -117 0
-89 3 -128 10 -118 8 12 10 9 10 -12 0 -16 5 -28 10 -28 6 0 10 7 10 16 0 11
6 14 20 9 19 -6 20 -2 20 69 0 44 -4 76 -10 76 -6 0 -10 31 -10 73 0 59 -4 77
-18 90 -10 10 -22 14 -27 10 -14 -14 4 150 19 166 7 9 19 32 25 52 7 20 25 56
40 80 27 41 29 53 35 179 9 192 34 422 57 516 10 45 19 87 19 93 0 7 14 30 31
51 l31 38 -3 204 c-2 112 0 471 5 798 6 428 5 658 -3 819 -13 254 -7 391 18
398 24 6 41 50 41 104 0 26 5 51 12 55 14 9 3 383 -12 398 -7 7 -10 6 -10 -2
0 -8 -7 -9 -24 -3 l-23 9 -7 -105 c-3 -59 -6 -181 -6 -272 0 -97 -4 -160 -9
-152 -7 11 -9 11 -14 0 -4 -11 -6 -11 -6 1 -1 8 -12 23 -26 35 -19 15 -30 39
-43 95 -19 84 -21 212 -3 218 6 2 11 17 11 33 0 16 5 29 10 29 6 0 10 28 11
63 0 34 3 56 6 50 13 -34 23 -5 23 67 0 47 -4 80 -10 80 -6 0 -10 26 -10 58
l0 59 -29 -5 c-28 -4 -28 -4 -35 -94 -3 -50 -6 -131 -6 -180 0 -94 -2 -98 -49
-73 -20 10 -33 29 -45 64 -23 73 -21 109 7 113 13 2 22 10 21 21 0 9 -1 77 -2
151 l-2 133 -30 -1 -30 -1 0 -62 c0 -35 -4 -63 -10 -63 -5 0 -10 -20 -10 -45
0 -50 -7 -54 -40 -27 -18 14 -24 32 -28 74 -4 51 -2 58 22 79 33 29 33 44 -1
66 -37 24 -50 24 -70 -1 -28 -35 -48 -38 -77 -11 -14 13 -26 28 -26 34 0 24
14 41 35 41 36 0 55 10 55 31 0 23 -44 36 -65 19 -8 -7 -15 -9 -15 -4 0 5 -28
8 -62 6 -68 -4 -134 17 -145 44 -3 8 -4 16 -2 18 2 2 45 9 96 15 111 14 123
18 123 43 0 10 -4 16 -10 13 -5 -3 -10 -1 -10 5 0 12 -146 8 -197 -4 -49 -13
-67 -15 -102 -17 -41 -1 -261 10 -306 16 -16 2 -46 6 -66 8 -20 3 -45 7 -55
10 -11 4 -25 0 -32 -8z m538 -347 c21 -13 67 -57 102 -98 53 -61 80 -107 146
-245 44 -93 90 -201 102 -240 12 -38 37 -105 56 -147 43 -95 54 -146 98 -428
63 -404 74 -854 31 -1285 -14 -137 -32 -302 -40 -365 -8 -63 -19 -169 -25
-235 -19 -204 -38 -346 -75 -557 -51 -288 -71 -370 -120 -478 -23 -52 -52
-124 -64 -160 -13 -36 -44 -99 -70 -140 -27 -41 -57 -93 -69 -115 -11 -22 -30
-49 -42 -60 -13 -11 -43 -47 -67 -80 -77 -103 -243 -274 -317 -326 -39 -27
-91 -64 -116 -83 -25 -18 -72 -43 -105 -56 -33 -13 -76 -34 -95 -47 -60 -40
-205 -80 -332 -92 -264 -25 -559 -9 -651 35 -63 30 -47 40 76 48 295 17 620
129 849 292 106 77 271 239 337 334 186 266 266 562 291 1087 6 120 21 394 33
608 26 464 30 1096 9 1290 -17 147 -46 323 -73 430 -23 93 -88 295 -95 295 -3
0 -42 -31 -87 -69 -173 -145 -400 -300 -622 -426 -248 -141 -433 -277 -526
-386 -126 -148 -174 -264 -173 -419 1 -83 6 -110 42 -215 103 -304 132 -446
132 -662 0 -166 -1 -174 -31 -260 -57 -161 -111 -251 -288 -476 -64 -81 -143
-184 -176 -227 -131 -171 -209 -338 -222 -475 -7 -75 -21 -84 -54 -32 -19 30
-20 43 -16 182 5 133 9 161 37 245 17 52 41 113 54 135 13 22 27 51 31 65 4
14 28 61 53 105 25 44 66 121 92 170 25 50 62 119 82 155 20 36 49 110 63 165
23 86 26 113 21 195 -9 160 -30 216 -228 615 -59 120 -78 218 -78 400 1 146
20 261 55 329 15 28 47 92 72 141 88 175 231 346 458 549 126 113 152 133 398
304 100 69 227 159 282 201 128 97 300 263 381 367 115 148 178 177 353 169
64 -3 92 -9 121 -27z m-2158 -2745 c22 -25 31 -102 32 -295 1 -140 -2 -169
-15 -185 -9 -10 -20 -28 -24 -41 -3 -12 -11 -20 -16 -17 -5 4 -10 -13 -11 -37
l-1 -43 -4 40 c-3 22 -9 44 -14 49 -10 11 -12 302 -2 449 5 82 9 97 23 97 9 0
24 -8 32 -17z m205 -2685 c-3 -8 -6 -5 -6 6 -1 11 2 17 5 13 3 -3 4 -12 1 -19z"/>
<path d="M30012 12950 c0 -14 2 -19 5 -12 2 6 2 18 0 25 -3 6 -5 1 -5 -13z"/>
<path d="M18260 16115 c0 -8 4 -15 10 -15 5 0 7 7 4 15 -4 8 -8 15 -10 15 -2
0 -4 -7 -4 -15z"/>
<path d="M30941 15714 c0 -11 3 -14 6 -6 3 7 2 16 -1 19 -3 4 -6 -2 -5 -13z"/>
<path d="M17761 15338 c-1 -32 -6 -34 -29 -11 -16 16 -18 10 -25 -87 -10 -118
4 -322 22 -328 6 -2 11 -21 11 -43 0 -21 4 -39 9 -39 5 0 11 -10 13 -22 5 -34
25 -32 32 3 3 17 6 145 6 283 -1 217 -3 248 -15 233 -13 -18 -14 -17 -18 10
l-4 28 -2 -27z"/>
<path d="M33015 14935 c-8 -294 1 -2310 11 -2452 6 -77 8 -83 28 -83 21 0 22
5 40 252 16 224 18 375 17 1333 -1 685 -5 1081 -11 1083 -6 2 -10 35 -10 73 0
38 -2 69 -4 69 -3 0 -16 -4 -30 -9 -17 -7 -26 -7 -29 2 -2 7 -8 -114 -12 -268z"/>
<path d="M17872 15050 c0 -14 2 -19 5 -12 2 6 2 18 0 25 -3 6 -5 1 -5 -13z"/>
<path d="M17580 14736 c-17 -274 -11 -1527 8 -1534 8 -2 12 -25 12 -68 0 -60
1 -64 23 -64 23 0 24 2 35 173 13 183 17 1403 6 1588 l-7 104 -32 1 -32 0 -13
-200z"/>
<path d="M29620 14334 c0 -59 -3 -75 -13 -71 -10 4 -16 -30 -25 -152 -12 -163
-6 -511 10 -511 4 0 8 -28 8 -62 0 -63 0 -63 29 -63 l28 0 7 95 c3 52 6 231 6
397 0 265 -2 302 -15 297 -13 -5 -15 6 -15 70 0 44 -4 76 -10 76 -6 0 -10 -32
-10 -76z"/>
<path d="M33178 14305 c-5 -55 -8 -161 -8 -235 0 -74 3 -180 8 -235 l7 -100 6
75 c4 41 6 158 6 260 0 102 -2 219 -6 260 l-6 75 -7 -100z"/>
<path d="M17783 13325 c-11 -17 -14 -18 -23 -5 -7 11 -10 5 -10 -26 0 -54 -10
-105 -20 -99 -13 8 -23 -245 -15 -387 l7 -134 33 4 33 4 7 141 c3 78 5 228 3
332 -2 156 -5 186 -15 170z"/>
<path d="M17903 12833 c-7 -3 -13 -13 -13 -24 0 -10 -4 -19 -10 -19 -5 0 -10
-20 -10 -44 0 -26 -6 -51 -15 -60 -17 -17 -22 -156 -5 -156 6 0 10 -24 10 -54
l0 -54 34 1 34 1 7 102 c5 63 3 143 -5 206 -6 57 -12 104 -13 104 -1 1 -8 -1
-14 -3z"/>
<path d="M32887 12693 c-4 -54 -7 -262 -7 -462 l0 -363 25 16 c14 9 25 12 25
7 0 -5 9 -11 19 -14 18 -4 20 5 26 140 8 152 -21 643 -37 643 -4 0 -8 7 -8 15
0 8 -4 15 -10 15 -5 0 -10 23 -10 50 0 88 -17 54 -23 -47z"/>
<path d="M29480 12077 c0 -35 -5 -68 -11 -74 -15 -15 -24 -461 -14 -658 4 -82
10 -144 12 -137 12 34 23 4 23 -63 0 -43 4 -75 10 -75 6 0 10 31 10 74 0 46 4
76 11 78 18 6 24 477 9 715 -12 187 -14 203 -31 203 -17 0 -19 -8 -19 -63z"/>
<path d="M32760 11884 c-11 -29 -13 -164 -4 -306 l7 -96 28 -4 29 -5 0 71 c0
53 3 67 11 56 7 -11 9 25 4 125 -3 77 -10 142 -16 143 -5 2 -9 10 -9 17 0 11
-20 25 -36 25 -3 0 -9 -12 -14 -26z"/>
<path d="M18910 11099 c0 -11 5 -17 10 -14 6 3 10 13 10 21 0 8 -4 14 -10 14
-5 0 -10 -9 -10 -21z"/>
<path d="M30492 10330 c-194 -6 -232 -14 -204 -42 6 -6 17 -13 24 -15 98 -22
106 -23 413 -25 22 0 96 0 165 1 69 1 206 0 305 -3 99 -2 214 0 255 6 140 19
157 62 27 72 -119 9 -779 13 -985 6z"/>
<path d="M30940 10160 c0 -18 4 -20 23 -14 25 7 32 12 26 18 -2 2 -14 7 -26
10 -19 6 -23 4 -23 -14z"/>
<path d="M26339 9549 c-7 -4 -17 -5 -21 -3 -17 11 -7 -62 12 -86 14 -17 20
-41 20 -77 0 -49 10 -67 25 -43 4 7 13 7 26 0 18 -10 19 -7 19 40 0 43 3 52
23 59 12 5 35 21 51 36 28 26 29 28 10 39 -10 6 -32 14 -49 18 -16 3 -46 11
-66 16 -21 5 -43 6 -50 1z"/>
<path d="M26134 9245 c-4 -10 1 -25 14 -38 18 -17 23 -18 37 -7 9 7 15 23 13
34 -4 27 -55 36 -64 11z"/>
<path d="M21840 6189 c-113 -3 -213 -9 -222 -13 -50 -22 3 -44 126 -54 143
-11 683 -6 751 7 103 20 99 46 -10 55 -101 9 -429 12 -645 5z"/>
<path d="M0 70 l0 -70 70 0 70 0 0 70 0 70 -70 0 -70 0 0 -70z"/>
</g>
</svg>
