<?xml version="1.0" encoding="UTF-8"?>
<svg id="Layer_2" data-name="Layer 2" xmlns="http://www.w3.org/2000/svg" xmlns:xlink="http://www.w3.org/1999/xlink" viewBox="0 0 83.73 71.73">
  <defs>
    <style>
      .cls-1 {
        fill: url(#linear-gradient);
      }
    </style>
    <linearGradient id="linear-gradient" x1="0" y1="35.86" x2="83.73" y2="35.86" gradientUnits="userSpaceOnUse">
      <stop offset=".87" stop-color="#4755a5"/>
      <stop offset=".98" stop-color="#4755a5"/>
      <stop offset="1" stop-color="#4755a5"/>
      <stop offset="1" stop-color="#824d9e"/>
    </linearGradient>
  </defs>
  <g id="Layer_1-2" data-name="Layer 1">
    <path class="cls-1" d="m83.73,64.71c0,3.32-.22,5.29-.66,5.9-.54.75-2.21,1.12-5.02,1.12h-2.95c-1.48-.03-2.72-.05-3.73-.05s-2.51-.03-4.5-.1c-1.99-.07-3.48-.1-4.46-.1-.79,0-4.33-3.26-10.62-9.77-6.3-6.51-9.57-9.78-9.81-9.82-1.03.58-4.57,4-10.62,10.28-5.8,6-9.2,9.11-10.18,9.31-.69.13-2.53.2-5.53.2-10.08,0-15.12-.36-15.12-1.07s-.06-1.73-.18-3.05c-.12-1.32-.18-2.31-.18-2.95,0-4.2.37-6.68,1.11-7.43.05-.03,4.11-3.75,12.17-11.14,6.54-5.97,9.81-9.38,9.81-10.23s-3.27-4.21-9.81-10.07c-4.13-3.63-8.24-7.27-12.32-10.94-.44-.44-.71-1.17-.81-2.19-.05-.71-.05-1.68,0-2.9.15-1.46.22-2.27.22-2.44,0-.68-.09-1.73-.26-3.15C.08,2.7,0,1.65,0,.97,0,.32.86,0,2.58,0c1.13,0,2.8.05,5.02.15,2.21.1,3.86.15,4.94.15.98,0,2.43-.03,4.35-.1,1.92-.07,3.34-.1,4.28-.1.79,0,4.36,3.3,10.73,9.89,6.37,6.6,9.7,9.89,10,9.89.98-.41,4.6-3.87,10.84-10.38C58.7,3.24,62.12.1,63,.1h17.56c1.72,0,2.58.29,2.58.86v12.36c0,.88-3.8,4.73-11.4,11.55-7.6,6.82-11.4,10.43-11.4,10.84,0,.58,3.34,3.92,10.03,10.02,7.87,7.16,11.98,10.9,12.32,11.24.69.75,1.03,3.32,1.03,7.73Z"/>
  </g>
</svg>